<svg width="1440" height="1005" viewBox="0 0 1440 1005" fill="none" xmlns="http://www.w3.org/2000/svg">
<g clip-path="url(#clip0_600_274)">
<path d="M242.903 766.35L236.324 810.215L251.517 812.494L258.096 768.629L242.903 766.35Z" fill="#C61D39"/>
<path d="M258.076 768.782C254.781 768.727 251.457 768.479 248.11 767.98C248.096 767.978 248.073 767.974 248.059 767.972C246.291 767.706 244.546 767.358 242.814 766.971L241.229 777.54C242.964 777.911 244.711 778.245 246.479 778.511C246.499 778.514 246.518 778.517 246.538 778.519C249.874 779.017 253.191 779.295 256.484 779.404L258.076 768.782Z" fill="#9D1928"/>
<path d="M259.933 813.766L227.808 808.97C228.471 804.528 232.61 801.465 237.051 802.128L253.091 804.523C257.534 805.186 260.595 809.324 259.933 813.766Z" fill="#C61D39"/>
<path opacity="0.2" d="M249.983 804.057L237.053 802.126C232.612 801.463 228.472 804.525 227.81 808.968L240.74 810.899C241.403 806.458 245.542 803.395 249.983 804.057Z" fill="#FEFEFE"/>
<path d="M321.484 634.537L196.194 736.595L202.924 744.856L328.213 642.799L321.484 634.537Z" fill="#9D1928"/>
<path d="M293 746.084C325.53 727.959 337.208 686.894 319.082 654.364C300.957 621.834 259.892 610.156 227.362 628.282C194.832 646.407 183.154 687.472 201.28 720.002C219.405 752.532 260.47 764.21 293 746.084Z" fill="#8CDBDF"/>
<mask id="mask0_600_274" style="mask-type:luminance" maskUnits="userSpaceOnUse" x="192" y="619" width="136" height="136">
<path d="M293 746.084C325.53 727.959 337.208 686.894 319.082 654.364C300.957 621.834 259.892 610.156 227.362 628.282C194.832 646.407 183.154 687.472 201.28 720.002C219.405 752.532 260.47 764.21 293 746.084Z" fill="white"/>
</mask>
<g mask="url(#mask0_600_274)">
<path d="M205.747 653.908L209.576 654.613C209.654 654.628 209.736 654.611 209.803 654.568C210.61 654.042 211.654 654.048 212.456 654.583L213.301 655.147C213.339 655.172 213.383 655.189 213.429 655.197L218.969 656.027C219.07 656.042 219.174 656.007 219.245 655.931L220.464 654.635C220.58 654.511 220.576 654.317 220.456 654.197L218.938 652.69C218.851 652.603 218.822 652.473 218.866 652.356L219.423 650.877C219.474 650.738 219.617 650.655 219.763 650.677L221.518 650.941C221.663 650.962 221.774 651.08 221.784 651.226L221.964 653.404C221.966 653.438 221.975 653.472 221.988 653.503L222.848 655.482C222.937 655.689 223.209 655.737 223.364 655.574L223.751 655.165C223.939 654.968 224.27 655.085 224.292 655.354L224.439 657.077C224.461 657.338 224.773 657.459 224.965 657.281L226.362 655.987C226.446 655.909 226.481 655.791 226.454 655.68L226.216 654.736C226.149 654.474 226.423 654.256 226.663 654.379L229.109 655.623C229.338 655.74 229.338 656.066 229.108 656.184L228.814 656.333C228.673 656.405 228.608 656.571 228.662 656.721L229.095 657.905C229.144 658.039 229.095 658.192 228.977 658.272L227.113 659.546C227.004 659.62 226.954 659.754 226.985 659.881L227.325 661.234C227.358 661.37 227.298 661.512 227.178 661.582L226.005 662.263C225.886 662.332 225.737 662.315 225.636 662.225L224.812 661.476C224.723 661.394 224.688 661.269 224.722 661.153L224.912 660.517C225.004 660.21 224.633 659.979 224.397 660.196L223.944 660.614C223.918 660.638 223.888 660.659 223.854 660.673L222.197 661.379C222.036 661.447 221.963 661.634 222.032 661.794L222.192 662.161C222.295 662.399 222.082 662.651 221.831 662.591L220.903 662.373C220.819 662.353 220.732 662.368 220.661 662.414L218.374 663.88C218.282 663.939 218.226 664.043 218.229 664.153L218.276 665.952C218.282 666.179 218.519 666.325 218.724 666.228C218.944 666.125 219.192 666.299 219.171 666.539L219.052 667.903C219.035 668.096 219.195 668.257 219.387 668.244L220.247 668.184C220.301 668.179 220.356 668.19 220.405 668.214L225.796 670.811C225.901 670.861 225.971 670.968 225.974 671.086L226.029 673.22C226.03 673.303 226.067 673.383 226.126 673.44L227.673 674.92C227.869 675.107 228.194 674.979 228.21 674.707L228.334 672.4L230.491 671.032C230.623 670.949 230.673 670.781 230.611 670.64L229.533 668.189C229.474 668.055 229.515 667.898 229.634 667.81L230.519 667.155C230.64 667.067 230.681 666.905 230.617 666.768L229.596 664.591C229.506 664.402 229.623 664.181 229.83 664.146L232.979 663.635C233.062 663.621 233.146 663.642 233.213 663.69L236.671 666.192C236.789 666.277 236.833 666.432 236.778 666.567L236.251 667.835C236.218 667.917 236.219 668.009 236.257 668.089L236.742 669.12C236.805 669.257 236.959 669.328 237.106 669.29L238.823 668.842C238.904 668.82 238.974 668.766 239.017 668.692L239.561 667.733C239.699 667.491 240.059 667.533 240.136 667.801L241.409 672.233C241.43 672.306 241.477 672.37 241.544 672.412L243.547 673.671L246.424 676.5C246.574 676.648 246.54 676.9 246.357 677.003L244.284 678.169C244.251 678.188 244.214 678.2 244.175 678.207L241.296 678.632C241.266 678.637 241.237 678.645 241.21 678.657L238.355 679.964C238.219 680.026 238.144 680.175 238.176 680.321L238.443 681.521C238.475 681.669 238.608 681.772 238.76 681.77L241.048 681.717C241.244 681.713 241.399 681.886 241.37 682.082L241.259 682.828C241.237 682.971 241.12 683.083 240.975 683.097L238.731 683.313C238.677 683.319 238.625 683.337 238.58 683.368L236.794 684.602C236.603 684.733 236.34 684.624 236.301 684.395L236.205 683.848C236.19 683.761 236.211 683.672 236.264 683.603L236.812 682.872C236.985 682.643 236.787 682.319 236.504 682.369L233.93 682.818C233.834 682.834 233.75 682.895 233.704 682.981L232.785 684.712C232.741 684.794 232.664 684.852 232.574 684.874L230.518 685.338C230.415 685.361 230.33 685.434 230.292 685.532L228.762 689.434C228.729 689.519 228.661 689.585 228.575 689.617L224.765 691.019C224.636 691.066 224.552 691.191 224.557 691.33L224.723 695.7C224.726 695.777 224.702 695.851 224.654 695.91L224.025 696.693C223.863 696.894 223.54 696.828 223.471 696.578L222.697 693.775C222.668 693.669 222.585 693.586 222.48 693.555L217.962 692.233C217.702 692.158 217.473 692.42 217.582 692.667C217.706 692.946 217.404 693.222 217.138 693.074L215.322 692.063C215.222 692.008 215.099 692.011 215.001 692.069L211.019 694.505C210.906 694.574 210.847 694.705 210.872 694.835L211.789 699.663C211.81 699.772 211.886 699.862 211.991 699.901L214.52 700.837C214.634 700.879 214.761 700.853 214.848 700.77L216.243 699.455C216.298 699.403 216.37 699.373 216.446 699.368L218.457 699.271C218.669 699.262 218.831 699.458 218.78 699.665L217.993 702.85C217.951 703.023 218.057 703.196 218.231 703.236L220.758 703.817C220.942 703.859 221.05 704.051 220.987 704.23L219.98 707.147L220.73 708.911L224.254 709.654C224.668 709.742 225.1 709.638 225.429 709.37L226.408 708.575C226.714 708.327 227.111 708.218 227.501 708.276L229.425 708.565C229.699 708.605 229.954 708.727 230.16 708.914L230.591 709.306C230.896 709.583 231.308 709.712 231.716 709.659L233.85 709.38C234.198 709.335 234.551 709.421 234.84 709.624L241.971 714.635C242.239 714.825 242.434 715.102 242.519 715.419L243.258 718.158C243.369 718.568 243.658 718.905 244.046 719.076L253.574 723.294C254.153 723.55 254.489 724.162 254.394 724.789L254.045 727.119C253.979 727.561 253.706 727.945 253.309 728.154L250.663 729.544C250.337 729.715 250.091 730.008 249.978 730.36L248.22 735.869C248.06 736.372 247.628 736.743 247.107 736.829L242.613 737.558C242.223 737.621 241.878 737.846 241.661 738.177L237.62 744.376C237.342 744.804 236.851 745.046 236.342 745.01L235.475 744.946C234.743 744.893 234.093 745.413 233.985 746.139C233.914 746.612 233.606 747.017 233.169 747.213L228.076 749.49C227.794 749.616 227.561 749.832 227.413 750.104L223.682 757.008C223.536 757.28 223.482 757.593 223.531 757.899L223.867 759.996C224.047 761.12 222.886 761.98 221.863 761.481L220.937 761.028C220.471 760.8 220.168 760.333 220.15 759.815L219.836 750.842C219.831 750.685 219.851 750.529 219.897 750.379L223.455 738.826L225.84 731.262C226.007 730.732 225.845 730.151 225.427 729.784L223.479 728.075C223.321 727.936 223.195 727.763 223.112 727.568L220.111 720.488C220.022 720.277 219.985 720.048 220.004 719.818L220.226 717.259C220.268 716.783 220.548 716.359 220.973 716.137L223.45 714.836C223.846 714.627 224.119 714.243 224.185 713.8L224.383 712.483C224.498 711.715 223.969 711 223.203 710.885L221.963 710.7C221.747 710.667 221.542 710.585 221.365 710.459L218.692 708.58L217.476 705.84L214.747 705.43L212.784 703.311C212.758 703.284 212.729 703.261 212.696 703.244L205.72 699.695C205.654 699.66 205.6 699.604 205.572 699.536L202.474 692.179C202.326 691.828 201.799 691.986 201.869 692.36L202.136 693.795C202.202 694.148 201.721 694.321 201.545 694.007L198.09 687.816L193.918 679.982L196.147 672.876L190.132 668.02L187.085 661.982L180.805 658.788C180.674 658.721 180.524 658.698 180.379 658.722L173.319 659.883C173.248 659.895 173.175 659.895 173.104 659.886L170.913 659.557C170.78 659.537 170.657 659.48 170.557 659.39L166.774 656.027C166.403 655.697 166.49 655.097 166.939 654.886L170.145 653.382C170.629 653.154 170.681 652.485 170.237 652.185L169.343 651.582C168.733 651.171 169.104 650.219 169.831 650.327C170.551 650.435 170.926 649.499 170.331 649.081L168.652 647.9C168.145 647.543 168.328 646.75 168.943 646.653L173.236 645.98C174.783 645.738 176.366 645.866 177.855 646.352L187.299 649.446C189.056 650.022 190.946 650.055 192.722 649.543C194.733 648.963 196.881 649.085 198.814 649.888L205.272 652.573C205.386 652.621 205.462 652.73 205.465 652.854L205.487 653.608C205.494 653.756 205.601 653.88 205.747 653.908ZM225.368 649.615L225.147 650.034C224.761 650.764 225.065 651.669 225.814 652.016L231.052 654.449C231.216 654.525 231.364 654.632 231.488 654.764L233.088 656.444C233.373 656.744 233.517 657.153 233.48 657.567L233.19 660.83C233.148 661.314 233.351 661.787 233.731 662.089L237.874 665.373C238.558 665.917 239.565 665.731 240.012 664.981L240.761 663.725C240.853 663.569 240.974 663.434 241.115 663.324L242.399 662.326C243.225 661.684 243.114 660.403 242.191 659.912L240.529 659.029C239.99 658.742 239.688 658.145 239.779 657.54C239.855 657.032 239.656 656.521 239.255 656.201L235.469 653.159C235.342 653.057 235.233 652.934 235.147 652.795L233.659 650.396C233.435 650.036 233.065 649.792 232.646 649.73L226.858 648.861C226.253 648.771 225.655 649.073 225.368 649.615ZM222.225 648.167L221.3 648.028C220.858 647.962 220.444 648.266 220.378 648.71L220.324 649.076C220.258 649.52 220.562 649.932 221.006 649.998L221.604 650.088C221.833 650.123 222.065 650.058 222.242 649.91L222.625 649.593C223.163 649.145 222.918 648.27 222.225 648.167ZM218.035 650.895L219.002 650.058C219.223 649.868 219.324 649.574 219.267 649.288L219.091 648.395C219.011 647.986 218.633 647.704 218.217 647.745L216.285 647.93C215.657 647.991 215.336 648.712 215.71 649.219L216.851 650.763C217.132 651.143 217.676 651.204 218.035 650.895ZM207.443 646.891L200.975 644.365C200.361 644.126 199.663 644.336 199.284 644.876L198.751 645.635C198.369 646.178 198.411 646.912 198.852 647.408L199.093 647.681C199.396 648.022 199.845 648.198 200.299 648.154L201.365 648.052C201.717 648.018 202.071 648.117 202.355 648.328L203.698 649.326C203.802 649.403 203.895 649.495 203.974 649.596L205.891 652.061C206.2 652.458 206.693 652.664 207.194 652.604L210.218 652.238C210.495 652.204 210.773 652.252 211.023 652.375L213.408 653.553C213.778 653.735 214.212 653.75 214.593 653.589C215.523 653.2 215.771 651.999 215.07 651.274L213.945 650.11C213.721 649.877 213.581 649.576 213.55 649.253L213.444 648.162C213.373 647.412 212.73 646.846 211.978 646.87L208.004 646.988C207.814 646.994 207.623 646.961 207.443 646.891ZM202.334 641.949L207.204 644.961C207.326 645.036 207.469 645.072 207.612 645.063L211.437 644.825C212.173 644.78 212.335 643.766 211.65 643.492L208.509 642.239C208.46 642.22 208.414 642.195 208.371 642.165L205.533 640.189C205.37 640.075 205.164 640.036 204.97 640.085L202.532 640.69C201.936 640.837 201.812 641.627 202.334 641.949ZM208.193 640.417L208.329 640.639C208.496 640.91 208.804 641.059 209.12 641.02L210.887 640.801C211.249 640.756 211.536 640.476 211.59 640.116L211.625 639.878C211.705 639.348 211.258 638.888 210.725 638.953L208.787 639.188C208.201 639.26 207.883 639.914 208.193 640.417ZM215.965 643.569L217.406 645.658C217.507 645.804 217.652 645.913 217.821 645.967L220.201 646.747C220.81 646.946 221.4 646.394 221.239 645.774L221.106 645.259C221.024 644.944 220.763 644.707 220.441 644.659L219.752 644.555C219.461 644.511 219.217 644.315 219.114 644.04L218.729 643.022C218.625 642.748 218.381 642.55 218.09 642.507L216.751 642.307C216.051 642.202 215.562 642.985 215.965 643.569ZM223.37 647.475L231.878 648.751C232.039 648.774 232.187 648.664 232.211 648.505L232.435 647.013C232.457 646.865 232.364 646.725 232.219 646.686L229.899 646.085C229.861 646.074 229.821 646.072 229.782 646.078L226.091 646.627C225.959 646.646 225.83 646.573 225.778 646.45L225.458 645.686C225.392 645.528 225.474 645.348 225.637 645.295L226.916 644.878C226.971 644.86 227.028 644.859 227.084 644.874L233.042 646.51C233.21 646.556 233.383 646.445 233.409 646.271L233.604 644.966C233.617 644.885 233.664 644.812 233.732 644.765L236.348 643.026C236.571 642.878 236.494 642.533 236.229 642.494C235.912 642.446 235.892 641.994 236.205 641.921L238.442 641.393C238.452 641.39 238.464 641.388 238.474 641.383L242.399 639.973C242.409 639.969 242.418 639.966 242.428 639.963L246.6 638.935C246.877 638.868 246.902 638.483 246.636 638.38L238.578 635.231C238.541 635.216 238.5 635.21 238.459 635.211L225.519 635.733C225.273 635.742 225.149 636.033 225.311 636.217L226.444 637.51C226.483 637.555 226.537 637.587 226.596 637.602L231.176 638.707C231.211 638.715 231.246 638.717 231.282 638.714L232.28 638.589C232.627 638.545 232.744 639.037 232.415 639.154L231.001 639.661C230.961 639.676 230.918 639.681 230.876 639.678L228.584 639.471C228.545 639.468 228.509 639.456 228.475 639.439L224.693 637.465C224.668 637.451 224.644 637.433 224.624 637.414L223.394 636.202C223.321 636.131 223.216 636.101 223.116 636.127L219.793 636.98C219.595 637.031 219.509 637.264 219.627 637.431L221.599 640.247C221.625 640.283 221.657 640.314 221.696 640.335L224.847 642.105C224.918 642.145 225 642.154 225.076 642.129L227.598 641.354C227.89 641.264 228.106 641.626 227.89 641.841L226.576 643.149C226.545 643.18 226.508 643.203 226.466 643.217L223.772 644.157C223.691 644.186 223.599 644.176 223.525 644.131L220.85 642.515C220.671 642.407 220.441 642.516 220.41 642.722L220.276 643.608C220.256 643.742 220.331 643.872 220.456 643.923L222.599 644.788C222.695 644.827 222.762 644.913 222.779 645.015L223.124 647.229C223.144 647.356 223.244 647.455 223.37 647.475ZM214.413 640.364C214.511 640.524 214.662 640.644 214.841 640.706L216.988 641.446C217.642 641.671 218.259 641.027 218.008 640.383L217.905 640.119C217.807 639.87 217.594 639.685 217.333 639.625L215.289 639.149C214.586 638.985 214.036 639.75 214.413 640.364ZM219.498 640.731L219.517 640.821C219.587 641.151 219.856 641.404 220.189 641.454L220.253 641.463C220.913 641.563 221.403 640.866 221.088 640.278L221.037 640.183C220.916 639.957 220.696 639.801 220.442 639.765L220.411 639.759C219.852 639.678 219.38 640.178 219.498 640.731ZM240.551 647.703L245.563 648.696C245.836 648.751 246.08 648.903 246.251 649.123L250.921 655.224C251.072 655.422 251.155 655.663 251.157 655.912L251.237 667.034C251.239 667.252 251.303 667.464 251.422 667.648L252.679 669.592C253.127 670.284 254.137 670.292 254.595 669.607L257.266 665.607C257.513 665.237 257.952 665.044 258.389 665.11L260.425 665.416C260.744 665.464 261.071 665.375 261.321 665.169L263.943 663.025C264.09 662.905 264.264 662.823 264.45 662.788L269.996 661.71C270.271 661.656 270.518 661.504 270.687 661.282L274.995 655.659C275.187 655.408 275.267 655.09 275.217 654.778L274.372 649.596C274.285 649.07 274.573 648.556 275.065 648.353L280.124 646.261C281.082 645.865 281.063 644.501 280.095 644.131L276.067 642.593C276.039 642.582 276.01 642.574 275.982 642.565L264.189 639.085C264.074 639.051 263.954 639.034 263.834 639.039L249.431 639.422C249.254 639.427 249.079 639.473 248.923 639.555L244.006 642.166C243.895 642.224 243.776 642.265 243.652 642.285L239.353 642.984C238.588 643.109 238.165 643.939 238.512 644.631L239.747 647.093C239.908 647.409 240.204 647.635 240.551 647.703ZM269.748 665.471L272.782 668.549L277.057 669.191L279.614 666.328L273.754 664.575L269.748 665.471ZM275.906 699.416L274.529 700.607C274.484 700.646 274.442 700.685 274.399 700.726L269.875 705.136C269.096 705.896 268.803 707.026 269.112 708.071L269.259 708.564C269.514 709.421 269.365 710.345 268.854 711.078C268.131 712.116 268.153 713.5 268.911 714.512L272.631 719.485C273.094 720.103 273.781 720.513 274.544 720.627L277.034 721L278.222 721.179C278.652 721.244 279.09 721.212 279.505 721.086L282.314 720.237C282.501 720.18 282.704 720.237 282.835 720.381L284.275 721.971C284.353 722.058 284.458 722.115 284.575 722.132L285.921 722.334C286.196 722.375 286.387 722.633 286.346 722.909L285.812 726.474C285.778 726.706 285.798 726.942 285.869 727.164L287.63 732.573C287.752 732.949 287.723 733.356 287.548 733.708L285.656 737.527C285.486 737.871 285.453 738.265 285.564 738.634L286.425 741.484C286.489 741.698 286.505 741.923 286.472 742.144L286.066 744.854C286.023 745.148 286.065 745.449 286.192 745.719L289.078 751.864C289.292 752.32 289.72 752.639 290.221 752.715L294.549 753.365C295.028 753.437 295.515 753.274 295.853 752.926L298.977 749.723C299.199 749.496 299.342 749.207 299.39 748.894L299.564 747.74C299.664 747.073 300.194 746.553 300.861 746.468L301.291 746.412C301.959 746.324 302.488 745.805 302.588 745.14L302.823 743.57C302.882 743.175 303.097 742.818 303.419 742.581L306.647 740.195C306.969 739.957 307.183 739.601 307.243 739.206L307.81 735.435C307.849 735.175 307.819 734.91 307.724 734.666L307.206 733.331C306.956 732.689 307.173 731.961 307.732 731.559L314.455 726.727C314.68 726.565 314.858 726.344 314.965 726.088L315.897 723.88C316.459 722.549 315.403 721.098 313.963 721.224C312.877 721.32 311.835 720.767 311.306 719.813L310.694 718.712L308.835 717.305L306.956 708.1C306.921 707.927 307.155 707.835 307.247 707.986L310.547 713.421L311.963 717.898C312.391 719.251 313.775 720.061 315.165 719.768L321.149 718.511C321.35 718.469 321.53 718.355 321.656 718.191L323.7 715.512C323.907 715.241 323.934 714.875 323.769 714.578L322.5 712.274C322.284 711.882 321.801 711.721 321.393 711.906L319.545 712.743C319.083 712.952 318.542 712.717 318.378 712.237L317.178 708.717C316.97 708.108 317.482 707.495 318.118 707.59C318.397 707.631 318.638 707.807 318.762 708.061L319.649 709.867C319.78 710.136 320.043 710.317 320.34 710.343L322.821 710.575C323.064 710.598 323.286 710.724 323.431 710.92L324.243 712.019C324.378 712.201 324.581 712.324 324.806 712.358L329.234 713.021C329.472 713.057 329.685 713.192 329.817 713.392L332.451 717.356C332.5 717.43 332.538 717.51 332.561 717.596L334.894 725.867C335.083 726.54 335.957 726.711 336.386 726.159L339.442 722.233C339.512 722.143 339.599 722.069 339.698 722.013L346.73 718.076C347.24 717.79 347.877 718.09 347.983 718.664L348.574 721.832C348.649 722.237 349.003 722.529 349.414 722.529L350.347 722.525C350.799 722.522 351.174 722.875 351.2 723.324L351.364 725.991C351.368 726.051 351.366 726.11 351.356 726.17L351.03 728.344C351.012 728.462 351.02 728.582 351.051 728.697L351.936 731.904C351.964 732.004 352.01 732.1 352.073 732.184L352.488 732.744C353.013 733.456 354.139 732.995 354.018 732.12L353.781 730.423C353.765 730.31 353.727 730.202 353.668 730.106L352.559 728.242C352.458 728.074 352.419 727.876 352.449 727.681C352.575 726.843 353.713 726.682 354.066 727.452L354.867 729.197C355.086 729.674 355.681 729.842 356.116 729.549L359.04 727.587C359.315 727.403 359.499 727.112 359.548 726.786L359.776 725.266C359.839 724.845 359.67 724.424 359.335 724.164L358.206 723.285C357.658 722.858 357.597 722.052 358.076 721.547L358.155 721.464C358.507 721.092 359.06 720.992 359.521 721.215L361.031 721.948C361.36 722.108 361.745 722.106 362.073 721.94L368.071 718.926C368.332 718.796 368.533 718.572 368.638 718.301L370.484 713.556C370.57 713.331 370.587 713.084 370.53 712.849L369.933 710.427C369.849 710.085 369.922 709.723 370.133 709.441L370.876 708.45C371.209 708.005 371.808 707.854 372.313 708.089L373.882 708.817C374.231 708.979 374.477 709.303 374.545 709.682L374.75 710.858C374.892 711.674 375.811 712.09 376.519 711.661C377.076 711.322 377.253 710.594 376.91 710.038L376.354 709.137C376.069 708.674 376.136 708.077 376.52 707.691L377.886 706.314C378.15 706.048 378.524 705.924 378.895 705.98L381.295 706.341C381.722 706.405 382.149 706.231 382.409 705.887L386.292 700.74C386.397 700.601 386.466 700.438 386.492 700.265L386.905 697.514C386.99 696.943 386.596 696.409 386.025 696.323C385.082 696.183 384.802 694.957 385.591 694.422L389.539 691.733C389.757 691.585 390.023 691.524 390.283 691.564L395.812 692.393C396.023 692.425 396.239 692.392 396.43 692.298L400.922 690.09C401.113 689.996 401.329 689.963 401.54 689.994L402.969 690.209C403.915 690.35 404.192 691.579 403.399 692.114L398.553 695.38C398.266 695.574 398.092 695.896 398.091 696.242L398.065 700.006C398.059 700.899 399.101 701.39 399.786 700.818L404.418 696.94C404.613 696.775 404.744 696.546 404.782 696.292L405.041 694.565C405.109 694.108 405.467 693.751 405.923 693.684L409.775 693.115L414.468 691.936L416.309 692.213L422.17 688.119C422.861 687.636 422.806 686.596 422.068 686.187L413.019 681.183C412.72 681.017 412.361 680.995 412.042 681.122L409.46 682.161C409.251 682.246 409.021 682.267 408.8 682.22L403.36 681.074C403.088 681.016 402.846 680.862 402.68 680.637L399.617 676.51C399.437 676.268 399.169 676.107 398.871 676.062L390.209 674.762C389.924 674.72 389.633 674.787 389.396 674.949L386.902 676.659C386.594 676.869 386.201 676.917 385.852 676.783L381.57 675.152C381.069 674.961 380.769 674.448 380.848 673.918L380.965 673.135C381.044 672.615 380.754 672.107 380.265 671.909L377.403 670.751C376.958 670.571 376.449 670.688 376.129 671.045L375.442 671.807C375.096 672.191 374.536 672.293 374.077 672.058L370.788 670.374C369.918 669.929 369.975 668.668 370.881 668.303L371.3 668.134C371.708 667.969 371.985 667.584 372.012 667.144L372.034 666.765C372.066 666.215 371.699 665.72 371.163 665.591L359.872 662.879C359.665 662.83 359.448 662.839 359.245 662.906L350.111 665.959C349.704 666.096 349.409 666.447 349.346 666.87L349.336 666.933C349.27 667.372 348.956 667.731 348.531 667.857L344.389 669.075C343.977 669.197 343.53 669.076 343.236 668.76L342.552 668.03C342.27 667.728 341.845 667.603 341.444 667.703L336.889 668.845C336.385 668.971 336.03 669.422 336.026 669.942C336.02 670.766 335.17 671.312 334.418 670.974L331.392 669.612C330.826 669.357 330.16 669.604 329.893 670.166L329.871 670.214C329.672 670.634 329.239 670.893 328.774 670.866L323.666 670.567C323.482 670.557 323.298 670.591 323.13 670.667L314.595 674.526C314.3 674.658 313.952 674.584 313.737 674.341L312.902 673.393C312.516 672.954 312.768 672.261 313.346 672.175L316.128 671.757C316.203 671.746 316.277 671.723 316.346 671.689C316.848 671.44 316.9 670.743 316.441 670.422L307.234 663.986C307.028 663.841 306.76 663.813 306.527 663.909L296.771 667.971C296.7 668.001 296.633 668.041 296.576 668.09L289.535 674.085C289.285 674.298 289.204 674.651 289.341 674.952L290.431 677.356C290.57 677.663 290.899 677.837 291.232 677.779L293.73 677.341C294.16 677.265 294.562 677.578 294.594 678.014L294.731 679.886C294.76 680.27 295.078 680.568 295.463 680.571L297.009 680.582C297.262 680.584 297.497 680.456 297.633 680.245L299.709 677.046C299.807 676.895 299.846 676.713 299.82 676.534L299.554 674.768C299.512 674.487 299.635 674.207 299.87 674.046L303.855 671.352C304.007 671.247 304.195 671.205 304.378 671.233L304.92 671.314C305.568 671.411 305.778 672.243 305.253 672.636L302.431 674.744C302.177 674.934 302.072 675.264 302.171 675.565L302.502 676.582C302.592 676.86 302.839 677.059 303.131 677.088L305.92 677.365C306.192 677.393 306.426 677.567 306.53 677.818L306.552 677.871C306.771 678.402 306.328 678.969 305.76 678.883L304.596 678.708C304.215 678.652 303.855 678.897 303.767 679.272L303.488 680.478C303.427 680.747 303.22 680.959 302.954 681.027L297.085 682.54C296.98 682.567 296.872 682.571 296.765 682.551L292.002 681.661C291.87 681.636 291.733 681.648 291.607 681.695L288.246 682.952C288.222 682.96 288.199 682.972 288.177 682.985L284.352 685.124C282.984 685.889 282.529 687.64 283.354 688.974C283.449 689.128 283.454 689.322 283.368 689.48L282.637 690.826C282.536 691.013 282.329 691.116 282.119 691.084L280.458 690.835C279.061 690.626 277.784 691.652 277.686 693.061L277.567 694.769C277.553 694.972 277.661 695.163 277.842 695.255L280.523 696.619C280.631 696.674 280.755 696.688 280.873 696.66L283.684 695.966C283.882 695.918 284.033 695.753 284.063 695.551L284.189 694.713C284.385 693.411 285.328 692.344 286.594 691.992L289.478 691.189C290.688 690.852 291.865 691.824 291.76 693.076C291.749 693.208 291.791 693.34 291.876 693.442L294.364 696.426C294.512 696.602 294.76 696.658 294.968 696.559L295.406 696.354C295.645 696.241 295.757 695.965 295.664 695.717L294.041 691.426C293.979 691.265 294.005 691.083 294.11 690.944L294.87 689.929C295.138 689.57 295.705 689.713 295.774 690.155L296.054 691.962C296.064 692.022 296.083 692.078 296.113 692.13L297.536 694.693C297.547 694.711 297.554 694.73 297.562 694.75L299.141 698.649C299.247 698.912 299.551 699.036 299.811 698.923L300.634 698.565C300.822 698.484 300.944 698.295 300.938 698.088C300.925 697.522 301.707 697.363 301.915 697.89L302.641 699.737C302.802 700.149 303.196 700.421 303.639 700.426L306.829 700.461C308.182 700.475 309.082 701.862 308.547 703.102L307.984 704.408C307.789 704.859 307.313 705.124 306.826 705.051L303.702 704.582C303.636 704.572 303.571 704.557 303.509 704.535L298.356 702.755C297.742 702.543 297.062 702.725 296.635 703.215C296.124 703.803 295.26 703.935 294.597 703.524L290.098 700.742C289.882 700.608 289.798 700.335 289.904 700.103L290.544 698.697C290.688 698.378 290.474 698.011 290.124 697.983L282.475 697.352L282.037 697.33C279.793 697.203 277.599 697.952 275.906 699.416ZM311.902 693.207L311.912 693.413C311.933 693.817 312.14 694.186 312.474 694.413L314.536 695.809C315.219 696.273 315.294 697.25 314.689 697.811C314.342 698.133 313.845 698.237 313.398 698.081L308.513 696.384C308.438 696.358 308.361 696.339 308.281 696.327L305.884 695.967C304.933 695.823 304.473 694.723 305.037 693.946L306.422 692.04C306.704 691.653 307.176 691.456 307.648 691.526L310.81 692C311.417 692.093 311.873 692.597 311.902 693.207ZM322.381 698.505L321.917 701.593C321.813 702.294 321.159 702.775 320.46 702.67L319.865 702.581C319.164 702.476 318.682 701.824 318.788 701.123L319.05 699.376C319.08 699.18 319.063 698.977 319.001 698.789L318.105 696.038C317.874 695.329 318.295 694.573 319.02 694.396L320.53 694.027C321.29 693.841 322.039 694.375 322.111 695.154L322.39 698.195C322.398 698.3 322.396 698.404 322.381 698.505ZM311.471 740.061L309.47 741.679C309.216 741.884 309.029 742.159 308.931 742.472L307.856 745.899C307.552 746.868 308.185 747.882 309.191 748.032L309.758 748.116C310.473 748.223 311.174 747.854 311.492 747.206L314.002 742.074C314.142 741.787 314.196 741.464 314.158 741.145C313.997 739.857 312.481 739.244 311.471 740.061ZM349.944 734.52L350.941 737.228C350.974 737.318 351.026 737.402 351.092 737.472L353.355 739.848C353.653 740.16 354.157 740.136 354.424 739.797L355.371 738.598C355.6 738.307 355.567 737.889 355.294 737.637L351.167 733.83C351.153 733.817 351.14 733.804 351.127 733.791C350.603 733.226 349.677 733.793 349.944 734.52ZM356.042 740.226C355.628 740.863 355.834 741.715 356.493 742.094L358.619 743.316C359.022 743.548 359.516 743.551 359.922 743.327L360.432 743.043C361.192 742.622 361.346 741.594 360.744 740.968L360.132 740.334C359.93 740.123 359.663 739.985 359.374 739.942L357.35 739.639C356.834 739.561 356.324 739.792 356.042 740.226ZM357.836 736.386L358.928 738.5C359.017 738.673 359.158 738.814 359.332 738.902L361.518 740.015C361.92 740.218 362.41 740.105 362.679 739.745L364.977 736.694C365.158 736.453 365.212 736.137 365.119 735.849L364.574 734.174C364.45 733.795 364.584 733.378 364.904 733.141C365.385 732.785 365.409 732.073 364.95 731.686L364.482 731.292C364.054 730.931 363.407 731.028 363.104 731.499L361.6 733.836C361.512 733.972 361.391 734.083 361.245 734.158L359.812 734.898C359.692 734.96 359.56 734.995 359.425 735L358.622 735.034C357.943 735.062 357.524 735.783 357.836 736.386ZM368.596 719.324L368.049 719.649C367.867 719.758 367.78 719.976 367.838 720.181L368.166 721.315C368.216 721.49 368.365 721.62 368.546 721.648C368.802 721.686 369.039 721.51 369.077 721.254L369.297 719.793C369.355 719.405 368.935 719.123 368.596 719.324ZM367.701 724.348L366.903 725.95C366.828 726.1 366.819 726.274 366.877 726.431L367.071 726.958C367.207 727.326 367.652 727.47 367.977 727.252C368.119 727.157 368.215 727.007 368.24 726.838L368.35 726.11C368.368 725.992 368.42 725.881 368.5 725.792L369.137 725.091C369.462 724.731 369.257 724.155 368.777 724.083L368.333 724.016C368.074 723.979 367.818 724.111 367.701 724.348ZM367.478 731.605C367.371 732.009 367.695 732.396 368.112 732.365L368.225 732.355C368.499 732.334 368.751 732.5 368.843 732.758L369.137 733.591C369.264 733.953 369.69 734.106 370.019 733.91L371.117 733.255C371.319 733.135 371.431 732.91 371.409 732.676L371.29 731.439C371.257 731.104 370.959 730.861 370.626 730.894L368.003 731.156C367.753 731.183 367.544 731.36 367.478 731.605ZM368.672 728.122L369.145 728.759C369.188 728.816 369.216 728.883 369.226 728.954L369.423 730.251C369.451 730.441 369.601 730.589 369.789 730.619L369.957 730.644C370.196 730.68 370.419 730.515 370.455 730.277L370.571 729.504C370.587 729.392 370.561 729.28 370.495 729.187L369.379 727.61C369.212 727.374 368.866 727.364 368.683 727.588C368.558 727.741 368.554 727.961 368.672 728.122ZM366.128 736.838L364.513 739.306C364.484 739.349 364.468 739.4 364.468 739.453L364.417 741.77C364.414 741.91 364.515 742.031 364.655 742.052L364.895 742.088C365.048 742.111 365.189 742.006 365.213 741.853L365.405 740.573C365.446 740.299 365.819 740.245 365.934 740.497L366.315 741.324C366.373 741.452 366.514 741.516 366.647 741.476L367.336 741.273C367.499 741.224 367.582 741.043 367.511 740.89L366.844 739.431C366.793 739.321 366.819 739.192 366.907 739.11L367.367 738.683C367.538 738.524 367.451 738.236 367.219 738.202L366.607 738.11C366.569 738.104 366.532 738.106 366.495 738.115C366.242 738.181 366.045 737.894 366.2 737.681L366.395 737.412C366.464 737.315 366.587 737.273 366.701 737.308L368.429 737.827C368.525 737.855 368.629 737.832 368.702 737.762L369.702 736.812C369.841 736.681 369.809 736.451 369.64 736.362L369.1 736.078C368.97 736.011 368.811 736.054 368.734 736.177L368.379 736.744C368.323 736.834 368.222 736.884 368.117 736.874L366.387 736.711C366.284 736.703 366.185 736.751 366.128 736.838ZM377.882 740.715L376.072 741.185C375.944 741.218 375.81 741.166 375.737 741.056L375.605 740.857C375.562 740.793 375.545 740.717 375.557 740.641L375.697 739.708C375.717 739.572 375.646 739.44 375.523 739.381L373.87 738.604C373.844 738.592 373.815 738.583 373.784 738.579L373.215 738.493C373.046 738.469 372.889 738.584 372.864 738.754L372.849 738.857C372.832 738.972 372.88 739.085 372.975 739.153L373.743 739.708C373.788 739.74 373.824 739.784 373.845 739.836L374.041 740.287C374.081 740.376 374.158 740.441 374.252 740.465L374.66 740.564C374.815 740.602 374.916 740.752 374.892 740.911L374.876 741.015C374.869 741.065 374.849 741.112 374.819 741.154L374.534 741.538C374.369 741.762 374.558 742.074 374.833 742.028L375.002 741.999C375.054 741.991 375.108 741.995 375.16 742.014L376.481 742.5C376.514 742.513 376.544 742.531 376.572 742.552L378.169 743.869C378.327 743.999 378.316 744.244 378.149 744.362L377.628 744.726C377.4 744.886 377.484 745.244 377.76 745.286L379.088 745.485C379.169 745.497 379.243 745.541 379.291 745.608L380.033 746.618C380.124 746.741 380.289 746.779 380.425 746.709L382.136 745.824C382.244 745.769 382.375 745.782 382.47 745.857L383.153 746.396C383.24 746.465 383.283 746.575 383.268 746.685L383.213 747.048C383.192 747.185 383.266 747.319 383.392 747.377L385.531 748.338C385.817 748.467 386.091 748.137 385.912 747.878L384.408 745.724C384.34 745.627 384.334 745.499 384.391 745.397L384.725 744.795C384.83 744.606 384.714 744.371 384.5 744.339L383.795 744.233C383.658 744.212 383.55 744.102 383.533 743.965L383.409 742.947C383.395 742.834 383.319 742.738 383.212 742.696L378.072 740.729C378.01 740.701 377.944 740.698 377.882 740.715ZM363.518 751.949L359.386 752.931C358.93 753.039 358.612 753.452 358.621 753.92L358.797 762.169C358.808 762.653 359.165 763.06 359.644 763.132L364.009 763.788C364.165 763.812 364.325 763.797 364.475 763.747L368.789 762.292C369.142 762.175 369.53 762.26 369.796 762.518L371.958 764.595C372.247 764.873 372.675 764.949 373.043 764.791L373.505 764.591C374.057 764.351 374.695 764.653 374.857 765.234L375.745 768.396C375.851 768.773 376.168 769.053 376.556 769.111L379.281 769.52C379.416 769.54 379.555 769.532 379.687 769.496L382.173 768.825C382.375 768.77 382.553 768.654 382.686 768.492L385.835 764.628C385.947 764.489 386.021 764.324 386.048 764.148L386.759 759.405C386.801 759.128 386.724 758.845 386.546 758.627L382.664 753.885C382.605 753.811 382.555 753.73 382.517 753.642L380.897 749.814C380.566 749.031 379.469 748.998 379.09 749.759L378.136 751.681C377.821 752.315 376.965 752.428 376.499 751.897L375.53 750.795C375.309 750.543 375.229 750.198 375.317 749.873L375.67 748.592C375.828 748.018 375.448 747.434 374.858 747.344L373.186 747.093C372.94 747.056 372.689 747.112 372.481 747.253L369.566 749.225C369.206 749.469 368.728 749.45 368.388 749.177C367.995 748.863 367.432 748.892 367.071 749.242L366.048 750.238C366.01 750.275 365.969 750.309 365.925 750.339L363.859 751.791C363.757 751.869 363.639 751.92 363.518 751.949ZM399.709 769.894L400.233 772.41C400.268 772.574 400.225 772.744 400.119 772.872L399.754 773.314C399.608 773.492 399.587 773.743 399.704 773.942L400.301 774.963C400.528 775.351 401.098 775.318 401.28 774.908L401.795 773.741C401.861 773.592 401.988 773.479 402.145 773.435L403.253 773.115C403.46 773.055 403.612 772.881 403.644 772.667L403.672 772.484C403.724 772.141 403.448 771.834 403.1 771.851L401.875 771.911C401.621 771.923 401.39 771.76 401.32 771.513L400.778 769.628C400.718 769.421 400.544 769.268 400.33 769.237C399.952 769.18 399.632 769.519 399.709 769.894ZM398.669 775.32L398.112 775.09C397.953 775.024 397.771 775.036 397.622 775.124L394.057 777.223C393.677 777.448 393.701 778.007 394.1 778.195L395.622 778.917C395.856 779.028 396.137 778.96 396.295 778.754L397.482 777.205C397.517 777.16 397.559 777.119 397.607 777.087L398.77 776.284C399.129 776.033 399.071 775.487 398.669 775.32Z" fill="#61AC6E"/>
</g>
<path d="M247.445 772.434C247.425 772.431 247.406 772.428 247.386 772.426C222.85 768.745 201.077 754.655 187.652 733.77C186.061 731.294 186.776 727.998 189.252 726.407C191.727 724.815 195.025 725.533 196.615 728.008C208.382 746.312 227.462 758.662 248.966 761.888C248.98 761.89 249.003 761.894 249.017 761.896C290.192 768.049 328.698 739.57 334.876 698.395C338.616 673.466 329.727 648.414 311.094 631.379C308.923 629.394 308.771 626.024 310.757 623.852C312.744 621.681 316.112 621.529 318.285 623.515C339.54 642.949 349.682 671.531 345.413 699.975C338.366 746.956 294.423 779.451 247.445 772.434Z" fill="#C61D39"/>
<path d="M1176.97 684.327L1158.54 681.856L1160.04 670.943L1168.36 670.275L1176.97 684.327Z" fill="#24357F"/>
<path d="M1120.04 661.06C1118.88 663.308 1146.6 699.438 1147.62 699.533C1148.65 699.629 1167.75 671.909 1167.75 671.909C1167.75 671.909 1190.33 649.435 1189.96 648.099C1189.59 646.763 1120.91 659.373 1120.04 661.06Z" fill="#8CDCDF"/>
<path d="M1123.36 662.541L1174.15 665.469C1174.15 665.469 1177.65 683.72 1176.97 684.327C1176.28 684.935 1166.34 673.953 1166.34 673.953L1123.36 662.541Z" fill="#69BAC2"/>
<path d="M1179.07 816.481C1178.81 816.39 1178.61 816.168 1178.56 815.88C1178.48 815.456 1178.76 815.051 1179.19 814.975C1181.69 814.532 1184.2 813.898 1186.64 813.086C1187.05 812.95 1187.49 813.17 1187.63 813.58C1187.76 813.99 1187.54 814.431 1187.13 814.567C1184.62 815.402 1182.04 816.057 1179.46 816.511C1179.32 816.538 1179.19 816.524 1179.07 816.481ZM1193.84 811.581C1193.65 811.517 1193.49 811.382 1193.4 811.193C1193.2 810.808 1193.36 810.338 1193.74 810.145C1196.04 808.999 1198.26 807.678 1200.35 806.218C1200.71 805.969 1201.19 806.06 1201.44 806.412C1201.69 806.766 1201.6 807.253 1201.25 807.5C1199.09 809.002 1196.8 810.362 1194.44 811.543C1194.25 811.641 1194.03 811.648 1193.84 811.581ZM1206.6 802.676C1206.48 802.636 1206.38 802.569 1206.29 802.474C1205.99 802.161 1206.01 801.667 1206.32 801.371C1208.17 799.625 1209.91 797.715 1211.5 795.693C1211.77 795.354 1212.26 795.297 1212.6 795.562C1212.93 795.828 1212.99 796.319 1212.73 796.658C1211.09 798.742 1209.3 800.708 1207.39 802.508C1207.17 802.714 1206.86 802.769 1206.6 802.676ZM1189.86 783.343C1189.83 783.336 1189.82 783.328 1189.8 783.32C1187.38 782.247 1185.04 780.953 1182.85 779.481C1182.49 779.24 1182.4 778.755 1182.64 778.397C1182.88 778.04 1183.36 777.939 1183.72 778.185C1185.84 779.607 1188.09 780.855 1190.43 781.892C1190.82 782.067 1191 782.529 1190.82 782.922C1190.66 783.298 1190.24 783.476 1189.86 783.343ZM1197.23 785.872C1196.85 785.74 1196.63 785.343 1196.73 784.948C1196.83 784.528 1197.26 784.274 1197.67 784.376C1200.17 784.995 1202.71 785.387 1205.24 785.54C1205.67 785.569 1206 785.938 1205.97 786.367C1205.95 786.799 1205.58 787.126 1205.15 787.1C1202.53 786.939 1199.89 786.534 1197.3 785.894C1197.27 785.888 1197.25 785.881 1197.23 785.872ZM1216.22 790.446C1216.17 790.43 1216.13 790.409 1216.09 790.386C1215.71 790.169 1215.58 789.693 1215.8 789.319C1216.41 788.244 1217 787.144 1217.54 786.024C1216.06 786.373 1214.57 786.645 1213.08 786.837C1212.66 786.894 1212.27 786.592 1212.21 786.163C1212.16 785.734 1212.46 785.344 1212.89 785.289C1214.73 785.052 1216.57 784.688 1218.38 784.203C1218.65 783.603 1218.9 783.001 1219.14 782.396C1219.29 782.006 1219.73 781.81 1220.12 781.947C1220.13 781.95 1220.14 781.954 1220.15 781.959C1220.55 782.118 1220.75 782.571 1220.59 782.972C1220.5 783.192 1220.41 783.413 1220.32 783.634C1220.33 783.63 1220.35 783.625 1220.36 783.622C1220.77 783.491 1221.21 783.716 1221.34 784.128C1221.47 784.539 1221.24 784.977 1220.83 785.11C1220.39 785.251 1219.95 785.384 1219.51 785.511C1218.79 787.076 1218.01 788.611 1217.15 790.098C1216.96 790.428 1216.56 790.567 1216.22 790.446ZM1176.98 774.653C1176.87 774.616 1176.78 774.557 1176.69 774.475C1175.61 773.421 1174.58 772.298 1173.63 771.143C1172.9 770.271 1172.21 769.347 1171.57 768.4C1171.32 768.043 1171.42 767.558 1171.77 767.315C1172.13 767.072 1172.61 767.163 1172.86 767.52C1173.48 768.429 1174.14 769.313 1174.83 770.149C1175.75 771.262 1176.74 772.342 1177.78 773.359C1178.09 773.66 1178.1 774.155 1177.8 774.463C1177.57 774.685 1177.25 774.749 1176.98 774.653ZM1168.27 761.826C1168.06 761.755 1167.89 761.598 1167.8 761.38C1166.78 758.833 1166.07 756.242 1165.71 753.68C1165.65 753.253 1165.95 752.859 1166.38 752.797C1166.8 752.737 1167.2 753.034 1167.26 753.461C1167.6 755.898 1168.27 758.365 1169.25 760.794C1169.41 761.193 1169.22 761.649 1168.82 761.81C1168.64 761.888 1168.44 761.886 1168.27 761.826ZM1227.53 782.086C1227.35 782.023 1227.19 781.894 1227.09 781.713C1226.89 781.332 1227.04 780.86 1227.42 780.659C1229.69 779.467 1231.86 778.071 1233.87 776.514C1234.21 776.249 1234.7 776.315 1234.96 776.653C1235.22 776.993 1235.16 777.483 1234.82 777.747C1232.74 779.361 1230.49 780.805 1228.15 782.041C1227.95 782.144 1227.72 782.155 1227.53 782.086ZM1221.95 775.98C1221.58 775.85 1221.36 775.457 1221.45 775.065C1221.79 773.641 1222.07 772.19 1222.28 770.749C1222.44 769.68 1222.57 768.581 1222.65 767.477C1222.69 767.046 1223.07 766.726 1223.5 766.761C1223.93 766.799 1224.25 767.173 1224.21 767.602C1224.12 768.74 1223.99 769.876 1223.82 770.978C1223.6 772.462 1223.32 773.957 1222.97 775.422C1222.87 775.841 1222.45 776.102 1222.03 776.004C1222 775.998 1221.98 775.99 1221.95 775.98ZM1239.8 772.557C1239.7 772.523 1239.61 772.472 1239.54 772.402C1239.21 772.114 1239.19 771.621 1239.47 771.3C1240.43 770.225 1241.34 769.097 1242.17 767.948C1242.82 767.053 1243.44 766.112 1244.02 765.147C1244.24 764.779 1244.72 764.665 1245.09 764.883C1245.46 765.106 1245.58 765.586 1245.36 765.956C1244.75 766.956 1244.11 767.935 1243.43 768.862C1242.58 770.056 1241.63 771.227 1240.64 772.342C1240.42 772.583 1240.09 772.658 1239.8 772.557ZM1166.26 746.532C1165.91 746.409 1165.69 746.051 1165.75 745.673C1165.97 744.272 1166.32 742.9 1166.77 741.591C1166.93 741.154 1167.09 740.72 1167.28 740.291C1167.59 739.535 1167.96 738.788 1168.36 738.07C1168.57 737.693 1169.05 737.566 1169.42 737.769C1169.8 737.98 1169.93 738.456 1169.72 738.832C1169.35 739.498 1169.01 740.193 1168.71 740.896C1168.55 741.296 1168.39 741.7 1168.25 742.106C1167.82 743.327 1167.5 744.61 1167.29 745.917C1167.22 746.344 1166.82 746.633 1166.39 746.564C1166.35 746.56 1166.3 746.548 1166.26 746.532ZM1223.18 760.477C1222.9 760.378 1222.69 760.12 1222.66 759.803C1222.45 757.215 1222.02 754.673 1221.39 752.248C1221.28 751.831 1221.53 751.404 1221.95 751.294C1222.36 751.186 1222.79 751.433 1222.9 751.851C1223.56 754.364 1224 756.995 1224.22 759.676C1224.25 760.106 1223.93 760.483 1223.5 760.517C1223.39 760.527 1223.28 760.512 1223.18 760.477ZM1247.84 759.277C1247.84 759.276 1247.83 759.273 1247.82 759.27C1247.42 759.116 1247.22 758.666 1247.37 758.263C1247.52 757.871 1247.67 757.476 1247.8 757.08C1248.5 755.08 1249.07 753 1249.5 750.894C1249.58 750.47 1249.99 750.197 1250.41 750.282C1250.83 750.365 1251.11 750.778 1251.03 751.201C1250.59 753.377 1250 755.529 1249.28 757.596C1249.13 758.007 1248.98 758.413 1248.83 758.82C1248.68 759.213 1248.24 759.416 1247.84 759.277ZM1173.68 733.162C1173.56 733.119 1173.45 733.045 1173.36 732.941C1173.07 732.618 1173.1 732.124 1173.43 731.839C1175.42 730.083 1177.68 728.626 1180.17 727.508C1180.56 727.332 1181.02 727.505 1181.2 727.899C1181.38 728.293 1181.2 728.755 1180.81 728.931C1178.47 729.985 1176.33 731.358 1174.46 733.01C1174.24 733.204 1173.94 733.251 1173.68 733.162ZM1219.2 745.469C1219.02 745.404 1218.85 745.266 1218.76 745.073C1218.21 743.942 1217.6 742.846 1216.96 741.811C1216.28 740.712 1215.52 739.636 1214.71 738.617C1214.44 738.279 1214.49 737.788 1214.83 737.519C1215.17 737.249 1215.66 737.309 1215.93 737.643C1216.78 738.71 1217.58 739.836 1218.29 740.988C1218.96 742.067 1219.59 743.211 1220.16 744.389C1220.35 744.777 1220.19 745.244 1219.8 745.433C1219.61 745.529 1219.39 745.537 1219.2 745.469ZM1187.71 726.81C1187.44 726.717 1187.23 726.479 1187.19 726.177C1187.14 725.749 1187.44 725.356 1187.86 725.3C1189.48 725.086 1191.1 725.018 1192.68 725.1C1193.74 725.156 1194.82 725.274 1195.87 725.451C1196.31 725.531 1196.58 725.925 1196.51 726.351C1196.44 726.777 1196.04 727.063 1195.61 726.992C1194.61 726.824 1193.6 726.712 1192.6 726.66C1191.11 726.584 1189.59 726.645 1188.07 726.848C1187.94 726.865 1187.82 726.85 1187.71 726.81ZM1209.54 733.366C1209.46 733.339 1209.39 733.296 1209.32 733.241C1207.3 731.639 1205.12 730.294 1202.85 729.246C1202.46 729.064 1202.29 728.601 1202.47 728.209C1202.65 727.816 1203.13 727.655 1203.5 727.828C1205.89 728.929 1208.17 730.338 1210.29 732.019C1210.63 732.286 1210.68 732.777 1210.42 733.116C1210.2 733.382 1209.85 733.474 1209.54 733.366ZM1250.92 744.037C1250.61 743.926 1250.39 743.62 1250.4 743.27C1250.5 740.717 1250.4 738.137 1250.1 735.598C1250.05 735.17 1250.35 734.783 1250.78 734.732C1251.21 734.683 1251.6 734.986 1251.65 735.416C1251.96 738.035 1252.06 740.698 1251.96 743.331C1251.94 743.762 1251.58 744.097 1251.15 744.081C1251.07 744.076 1250.99 744.062 1250.92 744.037ZM1249.09 728.597C1248.86 728.516 1248.67 728.329 1248.59 728.078L1248.51 727.784C1247.83 725.447 1246.95 723.121 1245.92 720.871C1245.74 720.48 1245.91 720.016 1246.31 719.836C1246.7 719.655 1247.16 719.828 1247.34 720.219C1248.41 722.538 1249.3 724.935 1250.01 727.347L1250.09 727.641C1250.21 728.056 1249.97 728.489 1249.56 728.608C1249.4 728.655 1249.23 728.649 1249.09 728.597ZM1242.62 714.447C1242.46 714.392 1242.32 714.286 1242.22 714.134C1240.84 712.002 1239.29 709.927 1237.61 707.97C1237.33 707.643 1237.37 707.149 1237.7 706.868C1238.03 706.586 1238.52 706.625 1238.8 706.951C1240.52 708.963 1242.12 711.094 1243.53 713.285C1243.77 713.648 1243.66 714.131 1243.3 714.365C1243.09 714.501 1242.84 714.523 1242.62 714.447ZM1181.84 686.148C1181.56 686.047 1181.34 685.78 1181.32 685.455C1181.3 685.025 1181.63 684.655 1182.06 684.631C1184.68 684.482 1187.33 684.461 1189.94 684.568C1190.37 684.581 1190.71 684.949 1190.69 685.379C1190.67 685.81 1190.31 686.145 1189.88 686.127C1187.31 686.022 1184.71 686.043 1182.15 686.189C1182.04 686.196 1181.94 686.18 1181.84 686.148ZM1232.49 702.622C1232.39 702.588 1232.3 702.537 1232.22 702.465C1230.32 700.756 1228.29 699.153 1226.17 697.7C1225.82 697.456 1225.73 696.969 1225.97 696.614C1226.22 696.259 1226.7 696.162 1227.06 696.414C1229.23 697.903 1231.31 699.549 1233.27 701.302C1233.59 701.59 1233.62 702.084 1233.33 702.404C1233.11 702.648 1232.78 702.723 1232.49 702.622ZM1197.42 686.797C1197.08 686.677 1196.85 686.326 1196.91 685.949C1196.97 685.522 1197.36 685.226 1197.79 685.287C1200.4 685.661 1203.01 686.173 1205.53 686.809C1205.94 686.924 1206.2 687.338 1206.09 687.757C1205.99 688.175 1205.56 688.428 1205.15 688.323C1202.68 687.7 1200.13 687.197 1197.57 686.832C1197.52 686.826 1197.47 686.814 1197.42 686.797ZM1219.66 693.79C1219.63 693.778 1219.6 693.764 1219.56 693.746C1217.31 692.582 1214.94 691.531 1212.51 690.622C1212.11 690.47 1211.9 690.02 1212.06 689.617C1212.21 689.215 1212.68 689.066 1213.06 689.159C1215.55 690.092 1217.97 691.167 1220.28 692.359C1220.66 692.556 1220.81 693.027 1220.61 693.411C1220.43 693.761 1220.02 693.917 1219.66 693.79Z" fill="#93928F"/>
<path d="M1410.93 665.809C1503.67 646.971 1588.04 691.082 1599.38 764.335C1610.72 837.587 1544.72 912.243 1451.98 931.082C1420.24 937.529 1389.48 936.602 1362.3 929.659C1358.41 994.921 1296.84 1056.49 1213.83 1073.36C1141.41 1088.07 1074.09 1064.39 1042.67 1018.43C1019.56 1037.61 984.395 1049.86 945 1049.86C910.111 1049.86 878.534 1040.25 855.718 1024.73C843.576 1052.29 815.142 1071.62 782 1071.62C752.599 1071.62 726.903 1056.41 713 1033.73C699.097 1056.41 673.401 1071.62 644 1071.62C628.885 1071.62 614.748 1067.6 602.69 1060.61C579.428 1100.58 533.66 1127.76 481 1127.76C421.976 1127.76 371.609 1093.61 351.889 1045.59C324.147 1070.84 285.608 1086.49 243 1086.49C158.5 1086.49 90 1024.94 90 949.016C90 941.025 90.7614 933.194 92.2178 925.576C77.3852 933.996 60.6754 938.73 43 938.73C-18.3036 938.73 -68 881.796 -68 811.564C-67.9999 741.332 -18.3035 684.398 43 684.398C104.304 684.398 154 741.332 154 811.564C154 820.936 153.113 830.072 151.434 838.867C176.965 821.704 208.661 811.54 243 811.54C310.888 811.54 368.447 851.269 388.455 906.262C412.934 885.857 445.392 873.429 481 873.429C529.985 873.429 573.008 896.949 597.498 932.401C610.603 923.404 626.657 918.109 644 918.109C673.401 918.109 699.097 933.326 713 956C726.903 933.326 752.599 918.109 782 918.109C799.254 918.109 815.233 923.35 828.301 932.263C847.079 901.11 892.255 879.157 945 879.157C981.093 879.157 1013.64 889.438 1036.61 905.912C1059.04 859.492 1109.73 820.891 1172.78 808.085C1204.51 801.638 1235.27 802.563 1262.46 809.505C1266.34 744.244 1327.92 682.67 1410.93 665.809Z" fill="white"/>
<path d="M1346.05 233.406L1350.17 235.486C1350.36 235.58 1350.5 235.747 1350.57 235.947L1351.94 240.359C1352.12 240.917 1352.82 241.089 1353.23 240.673L1356.49 237.391C1356.64 237.241 1356.84 237.158 1357.05 237.161L1361.67 237.215C1362.25 237.221 1362.64 236.602 1362.37 236.082L1360.25 231.973C1360.16 231.786 1360.14 231.568 1360.21 231.369L1361.69 226.99C1361.87 226.436 1361.4 225.882 1360.83 225.976L1356.26 226.719C1356.06 226.752 1355.84 226.701 1355.68 226.575L1351.97 223.815C1351.5 223.466 1350.83 223.741 1350.74 224.32L1350.03 228.887C1350 229.096 1349.89 229.281 1349.72 229.402L1345.94 232.076C1345.47 232.419 1345.52 233.144 1346.05 233.406Z" fill="#E4899B"/>
<path d="M226.228 408.086L228.434 409.172C228.535 409.221 228.611 409.308 228.644 409.413L229.379 411.716C229.473 412.007 229.85 412.097 230.07 411.88L231.81 410.167C231.889 410.089 231.997 410.045 232.11 410.047L234.58 410.075C234.892 410.078 235.097 409.755 234.953 409.483L233.822 407.339C233.771 407.242 233.762 407.128 233.798 407.024L234.589 404.738C234.689 404.449 234.438 404.16 234.129 404.209L231.691 404.597C231.58 404.614 231.467 404.587 231.377 404.521L229.396 403.081C229.145 402.898 228.785 403.042 228.738 403.344L228.362 405.728C228.345 405.837 228.283 405.933 228.191 405.997L226.176 407.392C225.92 407.57 225.949 407.949 226.228 408.086Z" fill="#FF4C73"/>
<path d="M1397.17 463.452L1401.3 465.531C1401.48 465.626 1401.63 465.792 1401.69 465.993L1403.06 470.404C1403.24 470.962 1403.94 471.135 1404.36 470.719L1407.61 467.436C1407.76 467.287 1407.96 467.204 1408.17 467.206L1412.79 467.26C1413.38 467.267 1413.76 466.648 1413.49 466.129L1411.37 462.02C1411.28 461.833 1411.26 461.615 1411.33 461.416L1412.81 457.037C1413 456.483 1412.53 455.929 1411.95 456.023L1407.39 456.766C1407.18 456.799 1406.97 456.748 1406.8 456.622L1403.09 453.861C1402.62 453.511 1401.95 453.787 1401.86 454.366L1401.16 458.933C1401.12 459.141 1401.01 459.327 1400.84 459.448L1397.07 462.121C1396.59 462.463 1396.65 463.188 1397.17 463.452Z" fill="#F0C73E"/>
<path d="M235.787 655.15L236.82 657.537C236.867 657.646 236.869 657.768 236.823 657.877L235.827 660.279C235.701 660.583 235.944 660.912 236.273 660.881L238.861 660.636C238.978 660.626 239.096 660.662 239.187 660.739L241.163 662.428C241.413 662.642 241.802 662.513 241.873 662.192L242.441 659.654C242.466 659.539 242.538 659.439 242.639 659.377L244.856 658.02C245.137 657.848 245.133 657.439 244.85 657.272L242.612 655.948C242.509 655.888 242.437 655.789 242.409 655.674L241.802 653.146C241.725 652.826 241.335 652.702 241.089 652.92L239.138 654.639C239.049 654.717 238.932 654.756 238.815 654.747L236.223 654.542C235.893 654.515 235.655 654.848 235.787 655.15Z" fill="#F0C73E"/>
<path d="M87.8039 243.49L88.8371 245.876C88.8842 245.985 88.8855 246.108 88.8398 246.217L87.8442 248.618C87.7178 248.922 87.9613 249.252 88.2882 249.221L90.8766 248.976C90.9949 248.965 91.112 249.001 91.2021 249.078L93.1784 250.768C93.4286 250.982 93.816 250.852 93.8887 250.531L94.4564 247.994C94.4819 247.878 94.5533 247.778 94.6541 247.717L96.8712 246.359C97.1524 246.187 97.1483 245.778 96.8658 245.611L94.6272 244.287C94.525 244.227 94.4524 244.129 94.4255 244.013L93.8187 241.485C93.742 241.165 93.3519 241.041 93.1057 241.259L91.155 242.978C91.0662 243.056 90.9492 243.096 90.8322 243.086L88.2398 242.882C87.9102 242.855 87.6734 243.187 87.8039 243.49Z" fill="#FF4C73"/>
<path d="M1209.06 515.005L1210.83 519.09C1210.91 519.275 1210.91 519.487 1210.83 519.674L1209.13 523.785C1208.91 524.305 1209.33 524.868 1209.89 524.815L1214.32 524.397C1214.52 524.378 1214.72 524.441 1214.88 524.573L1218.26 527.464C1218.69 527.83 1219.35 527.609 1219.48 527.059L1220.45 522.717C1220.49 522.519 1220.61 522.348 1220.78 522.242L1224.58 519.917C1225.06 519.622 1225.05 518.923 1224.57 518.636L1220.74 516.371C1220.57 516.267 1220.44 516.099 1220.39 515.901L1219.36 511.573C1219.23 511.026 1218.56 510.815 1218.14 511.187L1214.8 514.131C1214.65 514.264 1214.45 514.331 1214.24 514.315L1209.81 513.964C1209.25 513.918 1208.84 514.489 1209.06 515.005Z" fill="#435DB0"/>
<path d="M26.0364 567.34L27.0696 569.727C27.1167 569.836 27.1167 569.958 27.0723 570.067L26.0768 572.468C25.9503 572.772 26.1938 573.102 26.5207 573.071L29.1091 572.826C29.2274 572.815 29.3445 572.852 29.4346 572.928L31.4109 574.618C31.6611 574.832 32.0499 574.703 32.1212 574.381L32.6875 571.844C32.7131 571.728 32.7844 571.629 32.8853 571.567L35.1024 570.21C35.3835 570.037 35.3795 569.628 35.097 569.462L32.8584 568.138C32.7562 568.077 32.6835 567.979 32.6553 567.863L32.0485 565.336C31.9718 565.015 31.5817 564.892 31.3342 565.11L29.3835 566.829C29.2947 566.907 29.1777 566.946 29.0606 566.936L26.4682 566.732C26.144 566.705 25.9059 567.037 26.0364 567.34Z" fill="#F0C73E"/>
</g>
<defs>
<clipPath id="clip0_600_274">
<rect width="1440" height="1005" fill="white"/>
</clipPath>
</defs>
</svg>
