<svg id="Layer_1" data-name="Layer 1" xmlns="http://www.w3.org/2000/svg" viewBox="0 0 40.06 49.2"><title>apple_icon</title><path d="M41.78,30.52a11.13,11.13,0,0,1,5.31-9.37,11.52,11.52,0,0,0-9-4.88c-3.83-.39-7.48,2.26-9.42,2.26s-4.94-2.2-8.12-2.14a12,12,0,0,0-10.17,6.17C6,30.08,9.27,41.24,13.49,47.35c2.07,3,4.54,6.34,7.77,6.22s4.29-2,8.06-2,4.83,2,8.12,2,5.48-3,7.53-6a27.46,27.46,0,0,0,3.41-7A10.87,10.87,0,0,1,41.78,30.52Z" transform="translate(-8.32 -4.37)"/><path d="M35.58,12.23a10.82,10.82,0,0,0,2.56-7.86A11,11,0,0,0,30.9,8.1a10.28,10.28,0,0,0-2.62,7.61A9.1,9.1,0,0,0,35.58,12.23Z" transform="translate(-8.32 -4.37)"/></svg>