<svg id="Layer_1" data-name="Layer 1" xmlns="http://www.w3.org/2000/svg" viewBox="0 0 392 392"><title>facebook_icon</title><path d="M392,412c0-108.25-87.75-196-196-196S0,303.75,0,412c0,97.83,71.67,178.92,165.38,193.62v-137H115.61V412h49.77V368.82c0-49.12,29.26-76.26,74-76.26,21.44,0,43.87,3.83,43.87,3.83v48.24H258.57c-24.35,0-31.94,15.1-31.94,30.6V412H281l-8.69,56.66H226.63v137C320.33,590.92,392,509.83,392,412Z" transform="translate(0 -216)" fill="#1877f2"/><path d="M272.29,468.66,281,412H226.63V375.23c0-15.5,7.59-30.6,31.94-30.6h24.71V296.39s-22.43-3.83-43.87-3.83c-44.77,0-74,27.14-74,76.26V412H115.61v56.66h49.77v137a198.23,198.23,0,0,0,61.25,0v-137Z" transform="translate(0 -216)" fill="#fff"/></svg>