<svg width="21" height="20" viewBox="0 0 21 20" fill="none" xmlns="http://www.w3.org/2000/svg">
<path d="M10.6254 10.8333C10.6254 12.2142 8.38699 13.3333 5.62521 13.3333C2.86343 13.3333 0.625 12.2142 0.625 10.8333C0.625 9.4525 2.86343 8.33333 5.62521 8.33333C8.38699 8.33333 10.6254 9.4525 10.6254 10.8333ZM10.6254 15.4167V17.0833C10.6254 18.7458 8.47616 20 5.62521 20C2.77426 20 0.625 18.7458 0.625 17.0833V15.4167C0.625 17.0592 2.70842 18.3333 5.62521 18.3333C8.542 18.3333 10.6254 17.0592 10.6254 15.4167ZM10.6254 12.0833V13.75C10.6254 15.4125 8.47616 16.6667 5.62521 16.6667C2.77426 16.6667 0.625 15.4125 0.625 13.75V12.0833C0.625 13.7258 2.70842 15 5.62521 15C8.542 15 10.6254 13.7258 10.6254 12.0833ZM15.6256 5H8.95868V6.66667H15.6256V5ZM16.459 0H8.12531C5.82772 0 3.95847 1.86917 3.95847 4.16667V6.7825C4.48599 6.70667 5.04352 6.66667 5.62521 6.66667C6.2069 6.66667 6.76442 6.70667 7.29194 6.7825V5C7.29194 4.08083 8.03948 3.33333 8.95868 3.33333H15.6256C16.5448 3.33333 17.2924 4.08083 17.2924 5V6.66667C17.2924 7.58583 16.5448 8.33333 15.6256 8.33333H11.0679C11.6138 8.81167 11.9946 9.375 12.1746 10H13.1247C13.5855 10 13.9581 10.3733 13.9581 10.8333V11.6667C13.9581 12.1267 13.5855 12.5 13.1247 12.5H12.2913V14.1667H16.4582C16.919 14.1667 17.2915 14.54 17.2915 15C17.2915 15.46 16.919 15.8333 16.4582 15.8333H12.2913V17.0833C12.2913 18.2208 11.7771 19.2242 10.8854 20H16.4582C18.7558 20 20.625 18.1308 20.625 15.8333V4.16667C20.625 1.86917 18.7566 0 16.459 0ZM17.2924 11.6667C17.2924 12.1267 16.9198 12.5 16.459 12.5C15.9981 12.5 15.6256 12.1267 15.6256 11.6667V10.8333C15.6256 10.3733 15.9981 10 16.459 10C16.9198 10 17.2924 10.3733 17.2924 10.8333V11.6667Z" fill="#99A1B7"/>
</svg>
