<svg id="Capa_1" data-name="Capa 1" xmlns="http://www.w3.org/2000/svg" viewBox="0 0 89.97 91.8"><title>google_icon</title><path d="M120,76.1a57.41,57.41,0,0,0-.8-9.3H75.9V84.5h24.8a20.86,20.86,0,0,1-9.2,13.9l14.8,11.5C115,101.8,120,90,120,76.1Z" transform="translate(-30.03 -29.1)" fill="#4280ef"/><path d="M75.9,120.9c12.4,0,22.8-4.1,30.4-11.1L91.5,98.4a27.35,27.35,0,0,1-15.6,4.4c-12,0-22.1-8.1-25.8-18.9L34.9,95.6A45.85,45.85,0,0,0,75.9,120.9Z" transform="translate(-30.03 -29.1)" fill="#34a353"/><path d="M50.1,83.8a27.88,27.88,0,0,1,0-17.6L34.9,54.4a46,46,0,0,0,0,41.2Z" transform="translate(-30.03 -29.1)" fill="#f6b704"/><path d="M75.9,47.3a25,25,0,0,1,17.6,6.9L106.6,41A44.17,44.17,0,0,0,75.9,29.1a45.85,45.85,0,0,0-41,25.3L50.1,66.2A27.46,27.46,0,0,1,75.9,47.3Z" transform="translate(-30.03 -29.1)" fill="#e54335"/></svg>