<svg width="23" height="22" viewBox="0 0 23 22" fill="none" xmlns="http://www.w3.org/2000/svg">
<g clip-path="url(#clip0_21_412)">
<path d="M21.8756 20.51C21.9244 20.5105 21.9728 20.4997 22.0177 20.4783C22.0627 20.4568 22.1033 20.4251 22.1369 20.3852C22.1706 20.3452 22.1967 20.2979 22.2135 20.2461C22.2303 20.1943 22.2375 20.1392 22.2347 20.0841C22.2347 19.782 22.0736 19.6377 21.7429 19.6377H21.2087V21.2191H21.4096V20.5298H21.6565L21.6622 20.5382L22.0454 21.2191H22.2603L21.848 20.5143L21.8756 20.51ZM21.6432 20.3516H21.4102V19.8169H21.7055C21.8581 19.8169 22.032 19.8451 22.032 20.071C22.032 20.3308 21.856 20.3516 21.642 20.3516" fill="#6D7C85"/>
<path d="M16.6342 18.5276H13.7849V13.4819C13.7849 12.2787 13.7659 10.7299 12.3029 10.7299C10.8189 10.7299 10.5918 12.0408 10.5918 13.3943V18.5273H7.74243V8.1513H10.4778V9.56929H10.5161C10.7899 9.04003 11.1854 8.60464 11.6607 8.30949C12.136 8.01433 12.6731 7.87047 13.215 7.89321C16.1029 7.89321 16.6354 10.0412 16.6354 12.8355L16.6342 18.5276ZM4.52741 6.73298C4.20038 6.73304 3.88066 6.62345 3.60871 6.41806C3.33676 6.21267 3.12479 5.9207 2.99959 5.57907C2.87438 5.23745 2.84157 4.86152 2.90531 4.49881C2.96906 4.13611 3.12649 3.80292 3.3577 3.54139C3.58891 3.27985 3.88351 3.10172 4.20425 3.02951C4.52499 2.9573 4.85745 2.99426 5.15962 3.13572C5.46178 3.27717 5.72006 3.51676 5.9018 3.8242C6.08354 4.13164 6.18058 4.49312 6.18064 4.86291C6.18067 5.10845 6.13794 5.35159 6.05488 5.57845C5.97182 5.80532 5.85006 6.01146 5.69655 6.18511C5.54303 6.35876 5.36076 6.49652 5.16016 6.59052C4.95956 6.68453 4.74456 6.73293 4.52741 6.73298ZM5.95209 18.5276H3.09977V8.1513H5.95209V18.5276ZM18.0547 0.00148147H1.66797C1.29604 -0.00326462 0.937638 0.159153 0.671554 0.453045C0.40547 0.746936 0.253471 1.14826 0.248932 1.56882V20.1752C0.253316 20.5959 0.405225 20.9975 0.6713 21.2917C0.937375 21.5859 1.29586 21.7487 1.66797 21.7442H18.0547C18.4276 21.7495 18.7871 21.5872 19.0542 21.293C19.3213 20.9988 19.4742 20.5968 19.4794 20.1752V1.56748C19.4741 1.14608 19.3211 0.744303 19.0539 0.450419C18.7868 0.156535 18.4274 -0.00541925 18.0547 0.000138458" fill="#6D7C85"/>
<path d="M21.6675 18.9331C21.3209 18.9369 20.9896 19.0957 20.7462 19.3749C20.5029 19.6541 20.3672 20.0309 20.3689 20.4229C20.3705 20.8149 20.5094 21.1902 20.7552 21.4668C21.0009 21.7433 21.3335 21.8985 21.6801 21.8985C22.0268 21.8985 22.3594 21.7433 22.6051 21.4668C22.8509 21.1902 22.9898 20.8149 22.9914 20.4229C22.9931 20.0309 22.8574 19.6541 22.614 19.3749C22.3707 19.0957 22.0394 18.9369 21.6927 18.9331H21.6675ZM21.6675 21.7288C21.4401 21.7331 21.2167 21.661 21.0256 21.5217C20.8344 21.3824 20.6841 21.1822 20.5936 20.9463C20.503 20.7104 20.4764 20.4494 20.5171 20.1964C20.5577 19.9434 20.6638 19.7097 20.8219 19.5249C20.98 19.34 21.183 19.2124 21.4053 19.158C21.6276 19.1036 21.8592 19.125 22.0707 19.2195C22.2822 19.3139 22.4642 19.4771 22.5937 19.6886C22.7232 19.9 22.7943 20.15 22.7981 20.4071C22.7981 20.4145 22.7981 20.4216 22.7981 20.429C22.8044 20.7662 22.6921 21.0926 22.4857 21.3362C22.2793 21.5798 21.9958 21.7208 21.6975 21.7281H21.6678" fill="#6D7C85"/>
</g>
<defs>
<clipPath id="clip0_21_412">
<rect width="22.7426" height="21.9246" fill="white" transform="translate(0.248962)"/>
</clipPath>
</defs>
</svg>
