<svg id="Layer_1" data-name="Layer 1" xmlns="http://www.w3.org/2000/svg" viewBox="0 0 306 297"><title>password_reset_success</title><circle cx="157" cy="151.5" r="117" fill="#235dff"/><circle cx="33.5" cy="15.5" r="15.5" fill="#235dff"/><circle cx="176.5" cy="6.5" r="5.5" fill="#235dff"/><circle cx="281.5" cy="182.5" r="6.5" fill="#235dff"/><circle cx="292.5" cy="44.5" r="13.5" fill="#235dff"/><circle cx="150.5" cy="39.5" r="2.5" fill="#235dff"/><circle cx="260.5" cy="152.5" r="2.5" fill="#235dff"/><circle cx="201.5" cy="280.5" r="2.5" fill="#235dff"/><circle cx="273.5" cy="264.5" r="6.13" fill="#235dff"/><circle cx="103.5" cy="290.5" r="6.5" fill="#235dff"/><circle cx="17.5" cy="217.5" r="9.5" fill="#235dff"/><ellipse cx="3.5" cy="124" rx="3.5" ry="2" fill="#235dff"/><circle cx="202.5" cy="247.5" r="1.5" fill="#235dff"/><path d="M232.41,190.86V174a30.91,30.91,0,1,0-61.82,0v16.9A19.2,19.2,0,0,0,153,209.93v36.9A19.19,19.19,0,0,0,172.13,266h58.74A19.19,19.19,0,0,0,250,246.83v-36.9A19.2,19.2,0,0,0,232.41,190.86ZM208,243.19a4.46,4.46,0,0,1-4.44,4.44h-2.23a4.46,4.46,0,0,1-4.44-4.44V228.38a4.46,4.46,0,0,1,4.44-4.44h2.23a4.46,4.46,0,0,1,4.44,4.44ZM180.21,190.8V174a21.29,21.29,0,1,1,42.58,0V190.8Z" transform="translate(-46 -57)" fill="#fff"/></svg>