<svg width="23" height="21" viewBox="0 0 23 21" fill="none" xmlns="http://www.w3.org/2000/svg">
<g clip-path="url(#clip0_21_416)">
<path d="M7.18041 20.6921C15.7059 20.6921 20.3681 12.7646 20.3681 5.89011C20.3681 5.66494 20.364 5.44079 20.355 5.21765C21.26 4.48332 22.0466 3.56694 22.667 2.52375C21.8365 2.93808 20.9428 3.217 20.0053 3.34277C20.9622 2.69871 21.6969 1.67988 22.0435 0.46533C21.148 1.06121 20.1562 1.49431 19.1003 1.72813C18.2545 0.716937 17.0504 0.0844727 15.717 0.0844727C13.1574 0.0844727 11.0818 2.41428 11.0818 5.28611C11.0818 5.69435 11.1225 6.09144 11.202 6.47233C7.34975 6.25476 3.93389 4.18463 1.6478 1.03687C1.24974 1.80568 1.02022 2.69874 1.02022 3.65164C1.02022 5.45654 1.8385 7.04991 3.08282 7.98206C2.32239 7.95569 1.60804 7.72138 0.983679 7.3314C0.982997 7.35322 0.982994 7.37451 0.982994 7.39784C0.982994 9.91731 2.58067 12.0209 4.70149 12.4975C4.31202 12.6167 3.90224 12.6806 3.4793 12.6806C3.1811 12.6806 2.89057 12.6477 2.60818 12.5868C3.19826 14.6538 4.90935 16.158 6.938 16.2001C5.35162 17.5957 3.35323 18.4269 1.18131 18.4269C0.807651 18.4269 0.438512 18.4031 0.0757141 18.3549C2.12702 19.8307 4.56276 20.6918 7.18066 20.6918" fill="#6D7C85"/>
</g>
<defs>
<clipPath id="clip0_21_416">
<rect width="22.7426" height="20.7778" fill="white"/>
</clipPath>
</defs>
</svg>
