<svg width="25" height="25" viewBox="0 0 25 25" fill="none" xmlns="http://www.w3.org/2000/svg">
<path d="M14.5872 12.2826L11.6628 10.918C11.4076 10.7995 11.1979 10.9323 11.1979 11.2148V13.7852C11.1979 14.0677 11.4076 14.2005 11.6628 14.082L14.5859 12.7174C14.8424 12.5977 14.8424 12.4023 14.5872 12.2826ZM12.5 0C5.59635 0 0 5.59635 0 12.5C0 19.4036 5.59635 25 12.5 25C19.4036 25 25 19.4036 25 12.5C25 5.59635 19.4036 0 12.5 0ZM12.5 17.5781C6.10156 17.5781 5.98958 17.0013 5.98958 12.5C5.98958 7.9987 6.10156 7.42187 12.5 7.42187C18.8984 7.42187 19.0104 7.9987 19.0104 12.5C19.0104 17.0013 18.8984 17.5781 12.5 17.5781Z" fill="white"/>
</svg>
