<svg width="20" height="20" viewBox="0 0 20 20" fill="none" xmlns="http://www.w3.org/2000/svg">
<g opacity="0.6">
<path d="M9.99967 18C9.62968 18 9.26036 17.9487 8.90105 17.8461L4.41723 16.5663C2.99396 16.1599 2 14.8427 2 13.363V4.67533C2 4.30756 2.29865 4.00909 2.66664 4.00909C3.03462 4.00909 3.33328 4.30756 3.33328 4.67533V13.363C3.33328 14.2511 3.92992 15.0413 4.78388 15.2851L9.2677 16.5649C9.74701 16.7015 10.253 16.7015 10.733 16.5649L15.2161 15.2851C16.0701 15.0413 16.6667 14.2511 16.6667 13.363V4.00909C16.6667 3.64133 16.9654 3.34286 17.3334 3.34286C17.7013 3.34286 18 3.64133 18 4.00909V13.363C18 14.8421 17.006 16.1592 15.5828 16.5663L11.099 17.8461C10.739 17.9487 10.3697 18 10.0003 18H9.99967ZM14.0148 2.11366C13.5295 1.93444 12.9889 1.97908 12.5082 2.17095L11.9236 2.40413C11.1643 2.70727 10.6656 3.44279 10.6656 4.26026V13.918C10.447 13.9739 10.2237 14.0026 9.999 14.0026C9.77434 14.0026 9.55102 13.9739 9.33236 13.918V4.26026C9.33236 3.44279 8.83438 2.70727 8.07441 2.40413L7.4891 2.17029C7.00846 1.97841 6.46781 1.93377 5.9825 2.11366C5.17253 2.41346 4.66522 3.1683 4.66522 3.99377V12.4643C4.66522 13.3564 5.2572 14.1405 6.11516 14.3857L8.89905 15.1812C9.2577 15.2831 9.62768 15.3344 9.99767 15.3344C10.3677 15.3344 10.7376 15.2831 11.0963 15.1812L13.8802 14.3857C14.7388 14.1405 15.3301 13.3564 15.3301 12.4643V3.99377C15.3301 3.1683 14.8221 2.4128 14.0122 2.11366H14.0148Z" fill="#E8F3FF"/>
</g>
</svg>
