<svg width="20" height="20" viewBox="0 0 20 20" fill="none" xmlns="http://www.w3.org/2000/svg">
<g opacity="0.6">
<path d="M2.19506 7.70199C2.05142 7.43555 1.98487 7.13436 2.00289 6.83221C2.0209 6.53006 2.12277 6.2389 2.29705 5.99143C2.58186 5.57353 2.96328 5.23052 3.40894 4.99149L8.40915 2.38899C8.90061 2.13343 9.4464 2 10.0003 2C10.5543 2 11.1001 2.13343 11.5915 2.38899L16.5911 4.99349C17.0367 5.23252 17.4181 5.57553 17.703 5.99343C17.8772 6.2409 17.9791 6.53206 17.9971 6.83421C18.0151 7.13636 17.9486 7.43755 17.8049 7.70399C17.6503 7.99652 17.4184 8.24102 17.1344 8.41087C16.8504 8.58071 16.5253 8.66939 16.1944 8.66726H3.80624C3.47504 8.66933 3.14964 8.5804 2.86552 8.41018C2.5814 8.23997 2.34948 7.99499 2.19506 7.70199ZM17.333 16.6668C17.333 16.3132 17.1925 15.974 16.9425 15.724C16.6925 15.474 16.3534 15.3335 15.9998 15.3335V10.0005H14.6666V15.3335H12.6668V10.0005H11.3335V15.3335H8.66712V10.0005H7.33391V15.3335H5.3341V10.0005H4.00089V15.3335C3.6473 15.3335 3.30819 15.474 3.05817 15.724C2.80814 15.974 2.66768 16.3132 2.66768 16.6668C2.49088 16.6668 2.32133 16.737 2.19632 16.862C2.07131 16.987 2.00107 17.1566 2.00107 17.3334C2.00107 17.5102 2.07131 17.6797 2.19632 17.8048C2.32133 17.9298 2.49088 18 2.66768 18H17.333C17.5098 18 17.6793 17.9298 17.8043 17.8048C17.9294 17.6797 17.9996 17.5102 17.9996 17.3334C17.9996 17.1566 17.9294 16.987 17.8043 16.862C17.6793 16.737 17.5098 16.6668 17.333 16.6668Z" fill="#E8F3FF"/>
</g>
</svg>
