<svg width="20" height="20" viewBox="0 0 20 20" fill="none" xmlns="http://www.w3.org/2000/svg">
<g opacity="0.6">
<path d="M10 6.66667V2.30667C10.6087 2.53733 11.1687 2.89267 11.6433 3.36667L13.966 5.69067C14.4407 6.16467 14.796 6.72467 15.0267 7.33333H10.6667C10.2987 7.33333 10 7.034 10 6.66667ZM15 14C17.0293 14 17.8527 13.4593 18 13.2807V11.6667C18 11.078 16.7667 10.6667 15 10.6667C13.2333 10.6667 12 11.078 12 11.6667V13.2807C12.1473 13.4593 12.9707 14 15 14ZM15 18C16.906 18 18 17.4733 18 16.5553V14.8153C17.2807 15.126 16.2867 15.3333 15 15.3333C13.7133 15.3333 12.7193 15.126 12 14.8153V16.5553C12 17.4733 13.094 18 15 18ZM10.6667 16.5553V11.6667C10.6667 10.9653 11.0893 9.33333 15 9.33333C15.1167 9.33333 15.22 9.33933 15.3307 9.342C15.3273 9.07467 15.3227 8.73467 15.318 8.66667H10.6673C9.56467 8.66667 8.66733 7.76933 8.66733 6.66667V2.016C8.56 2.00867 8.45267 2 8.344 2H5.33333C3.49533 2 2 3.49533 2 5.33333V14.6667C2 16.5047 3.49533 18 5.33333 18H11.1673C10.7333 17.4387 10.6667 16.8487 10.6667 16.5553ZM6 14.6667C6 15.0347 5.702 15.3333 5.33333 15.3333C4.96467 15.3333 4.66667 15.0347 4.66667 14.6667V12.6667C4.66667 12.2987 4.96467 12 5.33333 12C5.702 12 6 12.2987 6 12.6667V14.6667ZM8.66667 14.6667C8.66667 15.0347 8.36867 15.3333 8 15.3333C7.63133 15.3333 7.33333 15.0347 7.33333 14.6667V10C7.33333 9.632 7.63133 9.33333 8 9.33333C8.36867 9.33333 8.66667 9.632 8.66667 10V14.6667Z" fill="#E8F3FF"/>
</g>
</svg>
