<svg width="20" height="20" viewBox="0 0 20 20" fill="none" xmlns="http://www.w3.org/2000/svg">
<g opacity="0.6">
<path d="M8.81996 10C6.68016 10 4.93999 8.206 4.93999 6C4.93999 3.794 6.68016 2 8.81996 2C10.9598 2 12.6999 3.794 12.6999 6C12.6999 8.206 10.9598 10 8.81996 10ZM17.6767 14.756L17.0468 14.3813C17.1542 14.05 17.2266 13.702 17.2266 13.3333C17.2266 12.9647 17.1548 12.6167 17.0468 12.2853L17.6767 11.9107C17.9858 11.7267 18.0918 11.3187 17.9133 11C17.7342 10.6807 17.3397 10.5707 17.03 10.756L16.4008 11.1307C15.9449 10.6013 15.3377 10.214 14.6399 10.068V9.334C14.6399 8.966 14.3502 8.66733 13.9933 8.66733C13.6363 8.66733 13.3466 8.966 13.3466 9.334V10.068C12.6489 10.2147 12.0416 10.602 11.5857 11.1307L10.9565 10.756C10.6461 10.5713 10.2517 10.6807 10.0732 11C9.89472 11.3193 10.0008 11.7267 10.3099 11.9107L10.9397 12.2853C10.8324 12.6167 10.76 12.9647 10.76 13.3333C10.76 13.702 10.8317 14.05 10.9397 14.3813L10.3099 14.756C10.0008 14.94 9.89472 15.348 10.0732 15.6667C10.1935 15.8807 10.4101 16 10.6339 16C10.7431 16 10.8544 15.9713 10.9565 15.9107L11.5857 15.536C12.0416 16.0653 12.6489 16.4527 13.3466 16.5987V17.3327C13.3466 17.7007 13.6363 17.9993 13.9933 17.9993C14.3502 17.9993 14.6399 17.7007 14.6399 17.3327V16.5987C15.3377 16.452 15.9449 16.0647 16.4008 15.536L17.03 15.9107C17.1322 15.9713 17.2434 16 17.3527 16C17.5764 16 17.7937 15.8807 17.9133 15.6667C18.0918 15.3473 17.9858 14.94 17.6767 14.756ZM13.9933 14.3333C13.4585 14.3333 13.0233 13.8847 13.0233 13.3333C13.0233 12.782 13.4585 12.3333 13.9933 12.3333C14.5281 12.3333 14.9633 12.782 14.9633 13.3333C14.9633 13.8847 14.5281 14.3333 13.9933 14.3333ZM8.1733 13.3333C8.1733 12.6373 8.29423 11.9713 8.50569 11.35C5.44309 11.5193 3 14.1347 3 17.3333C3 17.7013 3.2897 18 3.64666 18H10.339C9.01914 16.9 8.1733 15.2193 8.1733 13.3333Z" fill="#E8F3FF"/>
</g>
</svg>
