<svg width="79" height="78" viewBox="0 0 79 78" fill="none" xmlns="http://www.w3.org/2000/svg">
<path fill-rule="evenodd" clip-rule="evenodd" d="M29.781 29.9065H25.6914L26.4419 31.7781L24.1275 32.7059L23.0052 29.9065H13.3572C12.9942 29.9065 12.6675 29.7517 12.4391 29.5047L4.23346 21.7603L5.94237 19.9439L13.8494 27.4064H22.0024L16.4536 13.5676L7.6608 8.63811L8.88143 6.46045L18.0566 11.6045L18.0558 11.6059C18.2958 11.7403 18.4931 11.9544 18.6035 12.2295L24.6889 27.4067H28.2344V13.0217L20.7719 5.11467L22.5883 3.40576L30.3327 11.6112C30.5797 11.8397 30.7346 12.1664 30.7346 12.5294V28.9529H29.781V29.9065ZM38.25 28.9531V4.26029H40.75V28.9531H38.25ZM48.2656 28.9531V12.5294C48.2656 12.1664 48.4205 11.8397 48.6675 11.6112L56.4117 3.40576L58.2281 5.11467L50.7656 13.0217V27.4065H54.3111L60.3964 12.2294C60.5067 11.9542 60.7041 11.7401 60.9441 11.6058L60.9433 11.6044L70.1185 6.46029L71.3391 8.63795L62.5461 13.5678L56.9974 27.4065H65.1503L73.0574 19.944L74.7663 21.7604L66.5608 29.5048C66.3324 29.7519 66.0056 29.9067 65.6427 29.9067H55.995L54.8727 32.7061L52.5583 31.7783L53.3088 29.9067H49.2192V28.9531H48.2656ZM49.2191 37.4222H73.9119V39.9222H49.2191V37.4222ZM49.2191 47.4378H53.3086L52.5581 45.5662L54.8725 44.6386L55.9949 47.4378H65.6425C66.0055 47.4378 66.3322 47.5926 66.5606 47.8397L74.7661 55.584L73.0572 57.4004L65.1502 49.938H56.9972L62.546 63.7765L71.3389 68.7064L70.1183 70.884L60.9431 65.7398L60.9439 65.7384C60.7039 65.604 60.5066 65.39 60.3963 65.1148L54.3111 49.9378H50.7656V64.3226L58.2281 72.2297L56.4117 73.9386L48.6675 65.7331C48.4205 65.5047 48.2656 65.1779 48.2656 64.815V48.3912H49.2192V47.4378H49.2191ZM40.75 48.3912V73.084H38.25V48.3912H40.75ZM30.7344 48.3912V64.8148C30.7344 65.1778 30.5796 65.5045 30.3325 65.7329L22.5881 73.9384L20.7717 72.2295L28.2342 64.3225V49.9378H24.6888L18.6033 65.1148C18.493 65.39 18.2956 65.604 18.0556 65.7384L18.0564 65.7398L8.88127 70.884L7.66065 68.7064L16.4536 63.7765L22.0024 49.938H13.8496L5.94252 57.4004L4.23362 55.584L12.4392 47.8397C12.6677 47.5926 12.9944 47.4378 13.3574 47.4378H23.005L24.1275 44.6386L26.4419 45.5662L25.6914 47.4378H29.781V48.3914H30.7344V48.3912ZM29.781 39.9222H5.08815V37.4222H29.781V39.9222Z" fill="#8D9CA8"/>
<path fill-rule="evenodd" clip-rule="evenodd" d="M70.7289 73.9768C68.4194 73.9768 66.547 72.1045 66.547 69.7949C66.547 67.4854 68.4194 65.6131 70.7289 65.6131C73.0384 65.6131 74.9108 67.4854 74.9108 69.7949C74.9106 72.1046 73.0384 73.9768 70.7289 73.9768ZM70.7289 3.36743C68.4194 3.36743 66.547 5.23978 66.547 7.54931C66.547 9.85884 68.4194 11.7312 70.7289 11.7312C73.0384 11.7312 74.9108 9.85884 74.9108 7.54931C74.9108 5.23978 73.0384 3.36743 70.7289 3.36743ZM0.90625 20.8523C0.90625 23.1618 2.77859 25.0341 5.08813 25.0341C7.39766 25.0341 9.27 23.1618 9.27 20.8523C9.27 18.5427 7.39766 16.6704 5.08813 16.6704C2.77859 16.6704 0.90625 18.5427 0.90625 20.8523ZM78.0938 20.8523C78.0938 23.1618 76.2214 25.0341 73.9119 25.0341C71.6023 25.0341 69.73 23.1618 69.73 20.8523C69.73 18.5427 71.6023 16.6704 73.9119 16.6704C76.2214 16.6704 78.0938 18.5427 78.0938 20.8523ZM57.3198 0.0783691C55.0103 0.0783691 53.138 1.95071 53.138 4.26024C53.138 6.56978 55.0103 8.44212 57.3198 8.44212C59.6294 8.44212 61.5017 6.56978 61.5017 4.26024C61.5017 1.95071 59.6294 0.0783691 57.3198 0.0783691ZM39.5 0.0783691C41.8095 0.0783691 43.6819 1.95071 43.6819 4.26024C43.6819 6.56978 41.8095 8.44212 39.5 8.44212C37.1905 8.44212 35.3181 6.56978 35.3181 4.26024C35.3181 1.95071 37.1905 0.0783691 39.5 0.0783691ZM21.6802 0.0783691C23.9897 0.0783691 25.8619 1.95071 25.8619 4.26024C25.8619 6.56978 23.9895 8.44212 21.6802 8.44212C19.3706 8.44212 17.4983 6.56978 17.4983 4.26024C17.4983 1.95071 19.3706 0.0783691 21.6802 0.0783691ZM8.27109 3.36743C10.5806 3.36743 12.453 5.23978 12.453 7.54931C12.453 9.85884 10.5808 11.731 8.27109 11.731C5.96156 11.731 4.08922 9.85868 4.08922 7.54915C4.08922 5.23962 5.96156 3.36743 8.27109 3.36743ZM8.27109 73.9768C10.5806 73.9768 12.453 72.1045 12.453 69.7949C12.453 67.4854 10.5806 65.6131 8.27109 65.6131C5.96156 65.6131 4.08922 67.4854 4.08922 69.7949C4.08938 72.1046 5.96156 73.9768 8.27109 73.9768ZM0.90625 38.6721C0.90625 36.3626 2.77859 34.4902 5.08813 34.4902C7.39766 34.4902 9.27 36.3626 9.27 38.6721C9.27 40.9817 7.39766 42.854 5.08813 42.854C2.77859 42.854 0.90625 40.9817 0.90625 38.6721ZM0.90625 56.492C0.90625 54.1824 2.77859 52.3101 5.08813 52.3101C7.39766 52.3101 9.27 54.1824 9.27 56.492C9.27 58.8015 7.39766 60.6738 5.08813 60.6738C2.77859 60.6738 0.90625 58.8015 0.90625 56.492ZM78.0938 56.492C78.0938 54.1824 76.2214 52.3101 73.9119 52.3101C71.6023 52.3101 69.73 54.1824 69.73 56.492C69.73 58.8015 71.6023 60.6738 73.9119 60.6738C76.2214 60.6738 78.0938 58.8015 78.0938 56.492ZM78.0938 38.6721C78.0938 40.9817 76.2214 42.854 73.9119 42.854C71.6023 42.854 69.73 40.9817 69.73 38.6721C69.73 36.3626 71.6023 34.4902 73.9119 34.4902C76.2214 34.4902 78.0938 36.3626 78.0938 38.6721ZM21.6802 77.2659C23.9897 77.2659 25.8619 75.3935 25.8619 73.084C25.8619 70.7745 23.9895 68.9021 21.6802 68.9021C19.3706 68.9021 17.4983 70.7745 17.4983 73.084C17.4983 75.3935 19.3706 77.2659 21.6802 77.2659ZM39.5 77.2659C37.1905 77.2659 35.3181 75.3935 35.3181 73.084C35.3181 70.7745 37.1905 68.9021 39.5 68.9021C41.8095 68.9021 43.6819 70.7745 43.6819 73.084C43.6819 75.3935 41.8095 77.2659 39.5 77.2659ZM57.3198 77.2659C55.0103 77.2659 53.138 75.3935 53.138 73.084C53.138 70.7745 55.0103 68.9021 57.3198 68.9021C59.6294 68.9021 61.5017 70.7745 61.5017 73.084C61.5017 75.3935 59.6294 77.2659 57.3198 77.2659Z" fill="#64B5F6"/>
<path fill-rule="evenodd" clip-rule="evenodd" d="M19.6688 16.6533H59.3313C60.5344 16.6533 61.5188 17.6377 61.5188 18.8408V58.5033C61.5188 59.7064 60.5344 60.6908 59.3313 60.6908H19.6688C18.4656 60.6908 17.4813 59.7064 17.4813 58.5033V18.8408C17.4813 17.6377 18.4656 16.6533 19.6688 16.6533Z" fill="#004960"/>
<path fill-rule="evenodd" clip-rule="evenodd" d="M21.5438 20.7158H57.4563V52.0311L52.8591 56.6283H21.5438V20.7158Z" fill="#003748"/>
<path fill-rule="evenodd" clip-rule="evenodd" d="M36.5261 24.5789C34.3542 24.5789 32.545 26.1312 32.147 28.1868C29.0881 28.445 26.6859 31.0092 26.6859 34.1348C26.6859 35.8001 27.3679 37.3057 28.4678 38.3885C27.7411 39.1884 27.2983 40.2507 27.2983 41.4165C27.2983 43.2421 28.3844 44.814 29.9456 45.5215C29.7615 45.957 29.6598 46.4354 29.6598 46.9378C29.6598 48.9485 31.29 50.5787 33.3006 50.5787C33.4639 50.5787 33.6247 50.5678 33.7822 50.547C34.3231 51.8495 35.6072 52.7656 37.1056 52.7656C38.0251 52.7656 38.864 52.4203 39.5 51.8525C40.1359 52.4203 40.9748 52.7656 41.8944 52.7656C43.3926 52.7656 44.6768 51.8495 45.2176 50.547C45.3753 50.5678 45.5359 50.5787 45.6992 50.5787C47.71 50.5787 49.34 48.9485 49.34 46.9378C49.34 46.4354 49.2383 45.9568 49.0542 45.5215C50.6154 44.814 51.7015 43.2421 51.7015 41.4165C51.7015 40.2507 51.2587 39.1884 50.532 38.3885C51.6317 37.3057 52.3139 35.8001 52.3139 34.1348C52.3139 31.0093 49.9117 28.4451 46.8528 28.1868C46.4547 26.1312 44.6456 24.5789 42.4737 24.5789C41.3311 24.5789 40.289 25.0087 39.4998 25.7153C38.7108 25.0085 37.6687 24.5789 36.5261 24.5789Z" fill="#FC685B"/>
<path fill-rule="evenodd" clip-rule="evenodd" d="M37.5573 41.4164C37.5573 42.1067 36.9976 42.6664 36.3073 42.6664C35.617 42.6664 35.0573 42.1067 35.0573 41.4164C35.0573 40.5175 34.6931 39.7037 34.1042 39.115C33.5153 38.5261 32.7015 38.1617 31.8028 38.1617C31.2405 38.1617 30.717 38.2992 30.2644 38.5417C29.7928 38.7944 29.3897 39.1626 29.0915 39.61C28.7114 40.1844 27.9373 40.3417 27.3631 39.9616C26.7889 39.5814 26.6314 38.8073 27.0115 38.2331C27.5356 37.4466 28.2511 36.7955 29.0925 36.3445C29.9056 35.9089 30.8289 35.6619 31.8026 35.6619C33.3917 35.6619 34.8303 36.3061 35.8717 37.3475C36.9131 38.3887 37.5573 39.8275 37.5573 41.4164Z" fill="#F35244"/>
<path fill-rule="evenodd" clip-rule="evenodd" d="M33.3006 51.8285C32.6103 51.8285 32.0506 51.2688 32.0506 50.5785C32.0506 49.8882 32.6103 49.3285 33.3006 49.3285C33.6768 49.3285 34.0279 49.2452 34.3364 49.0968C34.6625 48.9398 34.9475 48.711 35.1709 48.4312C35.5997 47.8918 36.3845 47.8023 36.9239 48.231C37.4633 48.6598 37.5528 49.4446 37.124 49.984C36.6678 50.5556 36.0859 51.0224 35.4204 51.3429C34.774 51.6542 34.0547 51.8285 33.3006 51.8285Z" fill="#F35244"/>
<path fill-rule="evenodd" clip-rule="evenodd" d="M30.8257 42.7239C31.419 42.3761 32.182 42.575 32.5298 43.1683C32.8776 43.7616 32.6787 44.5246 32.0854 44.8724C31.7972 45.0422 31.5464 45.2732 31.3501 45.5483C31.1568 45.8194 31.0187 46.1286 30.9522 46.4594C30.8173 47.1336 30.1615 47.5708 29.4873 47.436C28.8131 47.3011 28.3759 46.6454 28.5107 45.9711C28.6493 45.2824 28.9295 44.6489 29.319 44.103C29.7164 43.5458 30.2301 43.0747 30.8257 42.7239Z" fill="#F35244"/>
<path fill-rule="evenodd" clip-rule="evenodd" d="M31.7203 29.5021C31.0408 29.6126 30.4001 29.1514 30.2897 28.4718C30.1792 27.7923 30.6403 27.1517 31.32 27.0412C32.3789 26.8682 33.4597 27.0442 34.399 27.5168C35.314 27.9771 36.0973 28.7218 36.5987 29.7028C36.9115 30.3148 36.6689 31.0648 36.0567 31.3776C35.4447 31.6904 34.6947 31.4478 34.3819 30.8356C34.1329 30.3485 33.7387 29.9764 33.2759 29.7434C32.8004 29.504 32.2544 29.4148 31.7203 29.5021Z" fill="#F35244"/>
<path fill-rule="evenodd" clip-rule="evenodd" d="M41.4426 41.4164C41.4426 42.1067 42.0023 42.6664 42.6926 42.6664C43.3829 42.6664 43.9426 42.1067 43.9426 41.4164C43.9426 40.5175 44.307 39.7037 44.8959 39.115C45.4848 38.5261 46.2984 38.1617 47.1973 38.1617C47.7597 38.1617 48.2831 38.2992 48.7356 38.5417C49.2072 38.7944 49.6104 39.1626 49.9084 39.61C50.2886 40.1844 51.0626 40.3417 51.6368 39.9616C52.2112 39.5814 52.3686 38.8073 51.9884 38.2331C51.4643 37.4466 50.7489 36.7955 49.9073 36.3445C49.0942 35.9089 48.1709 35.6619 47.1972 35.6619C45.6081 35.6619 44.1695 36.3061 43.1281 37.3475C42.0868 38.3887 41.4426 39.8275 41.4426 41.4164Z" fill="#F35244"/>
<path fill-rule="evenodd" clip-rule="evenodd" d="M45.6994 51.8285C46.3897 51.8285 46.9494 51.2688 46.9494 50.5785C46.9494 49.8882 46.3897 49.3285 45.6994 49.3285C45.3231 49.3285 44.972 49.2452 44.6636 49.0968C44.3375 48.9398 44.0525 48.711 43.829 48.4312C43.4003 47.8918 42.6155 47.8023 42.0761 48.231C41.5367 48.6598 41.4472 49.4446 41.8759 49.984C42.3322 50.5556 42.9141 51.0224 43.5795 51.3429C44.2259 51.6542 44.9453 51.8285 45.6994 51.8285Z" fill="#F35244"/>
<path fill-rule="evenodd" clip-rule="evenodd" d="M48.1742 42.7239C47.5809 42.3761 46.818 42.575 46.4702 43.1683C46.1224 43.7616 46.3213 44.5246 46.9145 44.8724C47.2028 45.0422 47.4536 45.2732 47.6499 45.5483C47.8431 45.8194 47.9813 46.1286 48.0478 46.4594C48.1827 47.1336 48.8384 47.5708 49.5127 47.436C50.1869 47.3011 50.6241 46.6454 50.4892 45.9711C50.3506 45.2824 50.0705 44.6489 49.6809 44.103C49.2836 43.5458 48.7699 43.0747 48.1742 42.7239Z" fill="#F35244"/>
<path fill-rule="evenodd" clip-rule="evenodd" d="M47.2797 29.5021C47.9592 29.6126 48.5998 29.1514 48.7103 28.4718C48.8208 27.7923 48.3595 27.1517 47.68 27.0412C46.6211 26.8682 45.5403 27.0442 44.6009 27.5168C43.6859 27.9771 42.9027 28.7218 42.4012 29.7028C42.0884 30.3148 42.3311 31.0648 42.9433 31.3776C43.5555 31.6904 44.3053 31.4478 44.6181 30.8356C44.867 30.3485 45.2612 29.9764 45.7241 29.7434C46.1995 29.504 46.7456 29.4148 47.2797 29.5021Z" fill="#F35244"/>
</svg>
