<svg width="42" height="48" viewBox="0 0 42 48" fill="none" xmlns="http://www.w3.org/2000/svg">
<g clip-path="url(#clip0_164_250)">
<path d="M14.3762 28.5659C15.9979 28.5659 17.3126 29.8794 17.3126 31.4997V44.0846C17.3126 45.7048 15.9979 47.0181 14.3762 47.0181C12.7546 47.0181 11.4399 45.7048 11.4399 44.0846V31.4997C11.4399 29.8796 12.7546 28.5661 14.3762 28.5661V28.5659Z" fill="#8EB31A"/>
<path d="M7.67256 13.4351C7.66287 13.5463 7.65442 13.6588 7.65442 13.7725V32.8398C7.65442 34.8904 9.27903 36.5424 11.2958 36.5424H30.7037C32.7207 36.5424 34.3453 34.8902 34.3453 32.8398V13.7725C34.3453 13.6588 34.3412 13.5459 34.3317 13.4351H7.67256Z" fill="#8EB31A"/>
<path d="M27.6237 28.5658C29.2454 28.5658 30.5601 29.8793 30.5601 31.4995V44.0844C30.5601 45.7047 29.2454 47.0179 27.6237 47.0179C26.0022 47.0179 24.6875 45.7047 24.6875 44.0844V31.4995C24.6875 29.8795 26.0022 28.566 27.6237 28.566V28.5658ZM2.93645 15.1321C4.55796 15.1321 5.87266 16.4456 5.87266 18.0658V30.6508C5.87266 32.271 4.55796 33.5845 2.93645 33.5845C1.31473 33.5845 3.05418e-05 32.271 3.05418e-05 30.651V18.066C-0.000175653 16.4458 1.31452 15.1321 2.93645 15.1321ZM39.0636 15.1321C40.6851 15.1321 41.9998 16.4456 41.9998 18.0658V30.6508C41.9998 32.271 40.6851 33.5845 39.0636 33.5845C37.4419 33.5845 36.1272 32.271 36.1272 30.651V18.066C36.1272 16.4458 37.4419 15.1321 39.0636 15.1321ZM7.75831 12.1827C7.83996 6.32597 12.9565 1.52396 19.5242 0.891113H22.4753C29.0434 1.52417 34.1595 6.32638 34.2411 12.1827H7.75831Z" fill="#8EB31A"/>
<path d="M8.7796 0.325684L11.8771 5.68596M33.2205 0.325684L30.1228 5.68596" stroke="#8EB31A" stroke-width="1.31493" stroke-linecap="round" stroke-linejoin="round"/>
<path d="M17.0552 6.9343C17.0577 7.75297 16.3795 8.41857 15.5403 8.42084C14.7015 8.4229 14.0194 7.76121 14.0169 6.94254V6.9343C14.0147 6.11542 14.6928 5.45003 15.5319 5.44776C16.3707 5.44549 17.0527 6.10698 17.0552 6.92606V6.9343ZM28.3951 6.9343C28.3976 7.75297 27.7194 8.41857 26.8802 8.42084C26.0414 8.4229 25.3593 7.76121 25.3568 6.94254V6.9343C25.3546 6.11542 26.0327 5.45003 26.8717 5.44776C27.7105 5.44549 28.3926 6.10698 28.3951 6.92606V6.9343Z" fill="white"/>
</g>
<defs>
<clipPath id="clip0_164_250">
<rect width="42" height="47" fill="white" transform="translate(0 0.171875)"/>
</clipPath>
</defs>
</svg>
