<svg width="29" height="35" viewBox="0 0 29 35" fill="none" xmlns="http://www.w3.org/2000/svg">
<g clip-path="url(#clip0_164_292)">
<path d="M14.3007 8.39819C16.1561 8.39819 17.7838 7.66493 19.1837 6.19839C20.5837 4.73184 21.2837 3.02651 21.2837 1.08239C21.2837 0.868869 21.267 0.565445 21.2336 0.172119C20.9892 0.205833 20.8059 0.233928 20.6837 0.256403C18.9726 0.503637 17.4672 1.3521 16.1672 2.80175C14.8673 4.25144 14.2173 5.80227 14.2173 7.45424C14.2173 7.64525 14.2451 7.95994 14.3007 8.39819ZM20.9503 34.1721C22.2725 34.1721 23.7335 33.2563 25.3334 31.4245C26.9334 29.5927 28.1555 27.4407 28.9999 24.9684C25.8556 23.3276 24.2835 20.9733 24.2835 17.9054C24.2835 15.3432 25.5556 13.1518 28.1 11.3313C26.3334 9.09494 24.0002 7.97677 21.1003 7.97677C19.8781 7.97677 18.7616 8.16219 17.7505 8.53304L17.1172 8.76904L16.2672 9.10617C15.7117 9.31969 15.2062 9.42649 14.7506 9.42649C14.3951 9.42649 13.9284 9.30284 13.3507 9.0556L12.7007 8.78589L12.0841 8.53304C11.1841 8.15095 10.2175 7.95991 9.18424 7.95991C6.4177 7.95991 4.1956 8.90389 2.51789 10.7919C0.84018 12.6798 0.00134277 15.169 0.00134277 18.2594C0.00134277 22.6084 1.34571 26.6259 4.03448 30.3119C5.90107 32.8854 7.60654 34.1721 9.15089 34.1721C9.80644 34.1721 10.4564 34.0429 11.1008 33.7844L11.9174 33.4473L12.5674 33.2113C13.4785 32.8854 14.3173 32.7224 15.0839 32.7224C15.895 32.7224 16.8283 32.9304 17.8838 33.3461L18.4004 33.5484C19.4781 33.9642 20.3281 34.1721 20.9503 34.1721Z" fill="black"/>
</g>
<defs>
<clipPath id="clip0_164_292">
<rect width="29" height="34" fill="white" transform="translate(0 0.172119)"/>
</clipPath>
</defs>
</svg>
