<svg width="24" height="25" viewBox="0 0 24 25" fill="none" xmlns="http://www.w3.org/2000/svg">
<g clip-path="url(#clip0_177_535)">
<path d="M15.6364 12.1266L14.2909 11.6539C14.1818 11.2902 14.0364 10.9266 13.8182 10.563L14.4364 9.29023C14.5091 9.14477 14.4727 8.96295 14.3636 8.89023L12.8 7.32659C12.6909 7.2175 12.5091 7.18113 12.4 7.25386L11.1273 7.87204C10.7636 7.69023 10.4 7.54477 10.0364 7.39932L9.56363 6.05386C9.52727 5.90841 9.38181 5.79932 9.23636 5.79932H7.01818C6.87272 5.79932 6.72727 5.90841 6.65454 6.05386L6.18181 7.39932C5.81818 7.50841 5.45454 7.65386 5.09091 7.87204L3.85454 7.2175C3.70909 7.14477 3.56363 7.18113 3.41818 7.29023L1.85454 8.85386C1.74545 8.96295 1.70909 9.14477 1.78181 9.25386L2.4 10.5266C2.21818 10.8902 2.07272 11.2539 1.96363 11.6175L0.618178 12.0902C0.472723 12.163 0.363632 12.3084 0.363632 12.4539V14.672C0.363632 14.8175 0.472723 14.963 0.618178 15.0357L1.96363 15.5084C2.07272 15.872 2.21818 16.2357 2.43636 16.5993L1.81818 17.872C1.74545 18.0175 1.78181 18.1993 1.8909 18.3084L3.45454 19.872C3.56363 19.9811 3.74545 20.0175 3.8909 19.9448L5.16363 19.3266C5.52727 19.5084 5.89091 19.6539 6.25454 19.7993L6.72727 21.1448C6.76363 21.2902 6.90909 21.3993 7.05454 21.3993H9.27272C9.41818 21.3993 9.56363 21.2902 9.6 21.1448L10.0727 19.7993C10.4364 19.6902 10.8 19.5448 11.1636 19.3266L12.4364 19.9448C12.5818 20.0175 12.7273 19.9811 12.8364 19.872L14.4 18.3084C14.5091 18.1993 14.5455 18.0175 14.4727 17.872L13.8182 16.563C14 16.1993 14.1455 15.8357 14.2909 15.472L15.6364 14.9993C15.7818 14.963 15.8909 14.8175 15.8909 14.6357V12.4175C15.8909 12.3084 15.7818 12.163 15.6364 12.1266ZM8.10909 16.672C6.4 16.672 5.01818 15.2902 5.01818 13.5811C5.01818 11.872 6.4 10.4902 8.10909 10.4902C9.81818 10.4902 11.2 11.872 11.2 13.5811C11.2 15.2539 9.81818 16.672 8.10909 16.672Z" fill="white"/>
<path d="M23.3818 4.89023L22.6545 4.63568C22.5818 4.45387 22.5091 4.27205 22.4364 4.12659L22.7636 3.43568C22.8364 3.29023 22.8 3.14478 22.6909 2.99932L21.8182 2.09023C21.7091 1.98114 21.5273 1.94478 21.4182 2.0175L20.7273 2.34478C20.5454 2.27205 20.4 2.19932 20.2182 2.12659L19.9636 1.39932C19.9273 1.25387 19.7818 1.14478 19.6364 1.14478H18.3273C18.1818 1.14478 18.0364 1.25387 17.9636 1.39932L17.7091 2.12659C17.5273 2.19932 17.3454 2.27205 17.2 2.34478L16.5091 2.0175C16.3636 1.94478 16.1818 1.98114 16.0727 2.09023L15.1636 2.99932C15.0545 3.10841 15.0182 3.29023 15.0909 3.43568L15.4182 4.12659C15.3454 4.30841 15.2727 4.45387 15.2 4.63568L14.4727 4.89023C14.3273 4.92659 14.2182 5.07205 14.2182 5.2175V6.52659C14.2182 6.67205 14.3273 6.8175 14.4727 6.85387L15.2 7.10841C15.2727 7.29023 15.3454 7.47205 15.4182 7.65387L15.0909 8.30841C15.0182 8.45387 15.0545 8.63568 15.1636 8.74478L16.0727 9.65387C16.1818 9.76296 16.3636 9.79932 16.5091 9.72659L17.2 9.39932C17.3818 9.47205 17.5636 9.54478 17.7091 9.6175L17.9636 10.3448C18 10.4902 18.1454 10.5993 18.3273 10.5993H19.6364C19.7818 10.5993 19.9273 10.4902 19.9636 10.3448L20.2182 9.6175C20.4 9.54478 20.5818 9.47205 20.7273 9.39932L21.4182 9.72659C21.5636 9.79932 21.7091 9.76296 21.8545 9.65387L22.7636 8.74478C22.8727 8.63568 22.9091 8.45387 22.8364 8.30841L22.5091 7.6175C22.5818 7.43568 22.6545 7.25387 22.7273 7.07205L23.4545 6.8175C23.6 6.78114 23.7091 6.63568 23.7091 6.49023V5.18114C23.6364 5.07205 23.5273 4.92659 23.3818 4.89023ZM18.9454 7.69023C17.9273 7.69023 17.1273 6.89023 17.1273 5.87205C17.1273 4.89023 17.9273 4.05387 18.9454 4.05387C19.9273 4.05387 20.7636 4.85387 20.7636 5.87205C20.7636 6.89023 19.9273 7.69023 18.9454 7.69023Z" fill="white"/>
<path d="M23.3818 16.7448L22.3636 16.3811C22.2909 16.0902 22.1818 15.8357 22.0364 15.5811L22.5091 14.5993C22.5818 14.4539 22.5454 14.3084 22.4364 14.1993L21.2 12.963C21.0909 12.8539 20.9091 12.8175 20.7636 12.8902L19.8182 13.3993C19.5636 13.2539 19.2727 13.1448 19.0182 13.072L18.6909 12.0539C18.6545 11.9084 18.5091 11.7993 18.3273 11.7993H16.5818C16.5091 11.7993 16.4727 11.7993 16.4 11.8357C16.5091 12.0175 16.5818 12.2357 16.5818 12.4539V14.672C16.5818 15.1448 16.2909 15.5448 15.8545 15.6902L14.8364 16.0539C14.7636 16.2357 14.6909 16.4175 14.6182 16.563L15.0909 17.5084C15.3091 17.9448 15.2364 18.4175 14.8727 18.7811L13.3091 20.3448C13.1273 20.5266 12.9091 20.6357 12.6909 20.672L12.3636 21.3266C12.2909 21.472 12.3273 21.6175 12.4364 21.7266L13.6727 22.963C13.7818 23.072 13.9636 23.1084 14.1091 23.0357L15.0909 22.563C15.3454 22.7084 15.6364 22.8175 15.8909 22.8902L16.2545 23.9084C16.2909 24.0539 16.4364 24.163 16.6182 24.163H18.3636C18.5091 24.163 18.6545 24.0539 18.7273 23.9084L19.0545 22.8902C19.3454 22.7811 19.6 22.672 19.8545 22.563L20.8364 23.0357C20.9818 23.1084 21.1273 23.072 21.2727 22.963L22.5091 21.7266C22.6182 21.6175 22.6545 21.4357 22.5818 21.3266L22.1091 20.3448C22.2545 20.0902 22.3636 19.7993 22.4364 19.5448L23.4545 19.1811C23.6 19.1448 23.7091 18.9993 23.7091 18.8175V17.072C23.6364 16.9266 23.5273 16.8175 23.3818 16.7448ZM17.8182 20.4175C16.4727 20.4175 15.3818 19.3266 15.3818 17.9811C15.3818 16.6357 16.4727 15.5448 17.8182 15.5448C19.1636 15.5448 20.2545 16.6357 20.2545 17.9811C20.2545 19.3266 19.1636 20.4175 17.8182 20.4175Z" fill="white"/>
</g>
<defs>
<clipPath id="clip0_177_535">
<rect width="24" height="24" fill="white" transform="translate(0 0.672119)"/>
</clipPath>
</defs>
</svg>
