<svg width="24" height="24" viewBox="0 0 24 24" fill="none" xmlns="http://www.w3.org/2000/svg">
<path d="M12 0.0664062C5.57165 0.0664062 0.333313 5.30474 0.333313 11.7331C0.333313 18.1614 5.57165 23.3997 12 23.3997C18.4283 23.3997 23.6666 18.1614 23.6666 11.7331C23.6666 5.30474 18.4283 0.0664062 12 0.0664062ZM17.5766 9.04974L10.9616 15.6647C10.7983 15.8281 10.5766 15.9214 10.3433 15.9214C10.11 15.9214 9.88831 15.8281 9.72498 15.6647L6.42331 12.3631C6.08498 12.0247 6.08498 11.4647 6.42331 11.1264C6.76165 10.7881 7.32165 10.7881 7.65998 11.1264L10.3433 13.8097L16.34 7.81307C16.6783 7.47474 17.2383 7.47474 17.5766 7.81307C17.915 8.15141 17.915 8.69974 17.5766 9.04974Z" fill="white"/>
</svg>
