<svg width="20" height="20" viewBox="0 0 20 20" fill="none" xmlns="http://www.w3.org/2000/svg">
<g opacity="0.6">
<path d="M14.0007 10.6673C13.4143 10.6652 12.8436 10.8572 12.3777 11.2132C11.9117 11.5692 11.5765 12.0694 11.4244 12.6357C11.2722 13.202 11.3116 13.8028 11.5364 14.3444C11.7612 14.886 12.1588 15.3381 12.6672 15.6303V17.5191C12.6672 17.6142 12.6954 17.7071 12.7482 17.7862C12.801 17.8653 12.8761 17.927 12.964 17.9634C13.0518 17.9998 13.1485 18.0093 13.2418 17.9907C13.3351 17.9722 13.4207 17.9264 13.488 17.8591L14.0007 17.347L14.5134 17.8591C14.5806 17.9264 14.6663 17.9722 14.7596 17.9907C14.8528 18.0093 14.9495 17.9998 15.0374 17.9634C15.1253 17.927 15.2003 17.8653 15.2532 17.7862C15.306 17.7071 15.3341 17.6142 15.3341 17.5191V15.6303C15.8426 15.3381 16.2402 14.886 16.465 14.3444C16.6898 13.8028 16.7291 13.202 16.577 12.6357C16.4248 12.0694 16.0897 11.5692 15.6237 11.2132C15.1577 10.8572 14.5871 10.6652 14.0007 10.6673Z" fill="#E8F3FF"/>
<path d="M10.0004 13.3341C9.99959 12.6317 10.184 11.9414 10.535 11.3329C10.886 10.7244 11.3912 10.2193 11.9997 9.8683C12.6082 9.51733 13.2985 9.33299 14.0009 9.33385C14.7034 9.33471 15.3932 9.52075 16.0008 9.87321V5.33356C15.9998 4.44977 15.6482 3.60248 15.0233 2.97755C14.3983 2.35261 13.5511 2.00106 12.6673 2L7.33356 2C6.44977 2.00106 5.60248 2.35261 4.97755 2.97755C4.35261 3.60248 4.00106 4.44977 4 5.33356V13.3341C4.00106 14.2179 4.35261 15.0652 4.97755 15.6901C5.60248 16.3151 6.44977 16.6666 7.33356 16.6677H11.3338V16.3076C10.9145 15.934 10.579 15.4759 10.3492 14.9635C10.1193 14.451 10.0005 13.8957 10.0004 13.3341ZM7.33356 4.66685H12.6673C12.8441 4.66685 13.0137 4.73709 13.1387 4.86213C13.2637 4.98716 13.334 5.15674 13.334 5.33356C13.334 5.51039 13.2637 5.67997 13.1387 5.805C13.0137 5.93003 12.8441 6.00027 12.6673 6.00027H7.33356C7.15674 6.00027 6.98716 5.93003 6.86213 5.805C6.73709 5.67997 6.66685 5.51039 6.66685 5.33356C6.66685 5.15674 6.73709 4.98716 6.86213 4.86213C6.98716 4.73709 7.15674 4.66685 7.33356 4.66685ZM7.33356 7.3337H12.6673C12.8441 7.3337 13.0137 7.40394 13.1387 7.52898C13.2637 7.65401 13.334 7.82359 13.334 8.00041C13.334 8.17724 13.2637 8.34682 13.1387 8.47185C13.0137 8.59688 12.8441 8.66712 12.6673 8.66712H7.33356C7.15674 8.66712 6.98716 8.59688 6.86213 8.47185C6.73709 8.34682 6.66685 8.17724 6.66685 8.00041C6.66685 7.82359 6.73709 7.65401 6.86213 7.52898C6.98716 7.40394 7.15674 7.3337 7.33356 7.3337ZM9.3337 11.334H7.33356C7.15674 11.334 6.98716 11.2637 6.86213 11.1387C6.73709 11.0137 6.66685 10.8441 6.66685 10.6673C6.66685 10.4904 6.73709 10.3209 6.86213 10.1958C6.98716 10.0708 7.15674 10.0005 7.33356 10.0005H9.3337C9.51052 10.0005 9.6801 10.0708 9.80514 10.1958C9.93017 10.3209 10.0004 10.4904 10.0004 10.6673C10.0004 10.8441 9.93017 11.0137 9.80514 11.1387C9.6801 11.2637 9.51052 11.334 9.3337 11.334Z" fill="#E8F3FF"/>
</g>
</svg>
