<svg width="24" height="25" viewBox="0 0 24 25" fill="none" xmlns="http://www.w3.org/2000/svg">
<path d="M19.7344 15.4846H19.4933C18.9063 13.825 17.316 12.6721 15.5156 12.6721C13.7036 12.6721 12.105 13.8401 11.5269 15.5162C10.0437 15.7167 8.85103 16.8462 8.55511 18.2971H8.48438C6.93323 18.2971 5.67188 19.5585 5.67188 21.1096C5.67188 22.6608 6.93323 23.9221 8.48438 23.9221H19.7344C22.0607 23.9221 24 22.0297 24 19.7034C24 17.377 22.0607 15.4846 19.7344 15.4846Z" fill="white"/>
<path d="M18.3281 1.42212H0V7.04712H18.3281V1.42212ZM4.26562 5.64087H2.85938V4.23462H4.26562V5.64087ZM7.07812 5.64087H5.67188V4.23462H7.07812V5.64087ZM9.89062 5.64087H8.48438V4.23462H9.89062V5.64087Z" fill="white"/>
<path d="M15.5156 11.2659C16.5259 11.2659 17.4906 11.5396 18.3281 12.0243V8.45337H0V12.6721H11.8113C12.8153 11.7912 14.1178 11.2659 15.5156 11.2659ZM4.26562 11.2659H2.85938V9.85962H4.26562V11.2659ZM7.07812 11.2659H5.67188V9.85962H7.07812V11.2659ZM9.89062 11.2659H8.48438V9.85962H9.89062V11.2659Z" fill="white"/>
<path d="M7.49902 17.0069C8.06962 15.7195 9.171 14.7307 10.5195 14.3057C10.5607 14.2263 10.6132 14.1553 10.6578 14.0784H0V19.7034H4.50759C4.9807 18.3694 6.10608 17.3415 7.49902 17.0069ZM5.67188 15.4846H7.07812V16.8909H5.67188V15.4846ZM4.26562 16.8909H2.85938V15.4846H4.26562V16.8909Z" fill="white"/>
</svg>
