<svg width="81" height="81" viewBox="0 0 81 81" fill="none" xmlns="http://www.w3.org/2000/svg">
<path fill-rule="evenodd" clip-rule="evenodd" d="M18.8756 55.4544C9.5425 55.4544 1.90625 47.8183 1.90625 38.4853C1.90625 30.1945 7.98953 23.0598 16.1692 21.7344C16.1684 21.6615 16.1664 21.5889 16.1664 21.5161C16.1664 10.9919 24.698 2.46045 35.222 2.46045C41.5453 2.46045 47.1483 5.54123 50.6145 10.2828C52.2595 9.15857 54.2486 8.50076 56.3914 8.50076C62.0536 8.50076 66.6438 13.0909 66.6438 18.7529C66.6438 19.8862 66.4594 20.9764 66.1198 21.9956C73.5414 23.8044 79.0936 30.5273 79.0936 38.4851C79.0936 47.8183 71.4573 55.4544 62.1242 55.4544H18.8756Z" fill="#64B5F6"/>
<path fill-rule="evenodd" clip-rule="evenodd" d="M8.55516 51.9304C4.51922 48.8211 1.90625 43.9439 1.90625 38.4853C1.90625 30.1945 7.98953 23.0598 16.1692 21.7344C16.1684 21.6615 16.1664 21.5889 16.1664 21.5161C16.1664 10.9919 24.698 2.46045 35.222 2.46045C41.2797 2.46045 46.6759 5.28811 50.1663 9.69436C46.9181 7.12186 42.8123 5.58545 38.3472 5.58545C27.8231 5.58545 19.2916 14.117 19.2916 24.6411C19.2916 24.714 19.2936 24.7867 19.2944 24.8594C11.1147 26.1848 5.03141 33.3195 5.03141 41.6103C5.03141 45.4847 6.34828 49.0659 8.55516 51.9304ZM50.7609 10.1847C52.377 9.12045 54.3119 8.50076 56.3916 8.50076C60.0225 8.50076 63.2123 10.3883 65.0341 13.2356C63.4411 12.2165 61.5478 11.6258 59.5166 11.6258C57.3737 11.6258 55.3847 12.2836 53.7397 13.4078C52.873 12.2222 51.8727 11.1404 50.7609 10.1847ZM69.6708 23.2997C71.9855 24.4584 74.0028 26.1309 75.5706 28.1656C73.7225 26.7419 71.5761 25.6886 69.2448 25.1204C69.4398 24.5351 69.5836 23.9264 69.6706 23.2997H69.6708Z" fill="#64B5F6"/>
<path fill-rule="evenodd" clip-rule="evenodd" d="M66.1636 48.0666C67.7794 48.0666 69.1014 49.3886 69.1014 51.0045V60.5373C69.1014 62.1533 67.7794 63.4751 66.1636 63.4751C67.7794 63.4751 69.1014 64.7972 69.1014 66.413V75.9458C69.1014 77.5617 67.7794 78.8837 66.1636 78.8837H14.8364C13.2205 78.8837 11.8984 77.5617 11.8984 75.9458V66.413C11.8984 64.797 13.2205 63.4751 14.8364 63.4751C13.2205 63.4751 11.8984 62.1531 11.8984 60.5373V51.0045C11.8984 49.3886 13.2205 48.0666 14.8364 48.0666C13.2205 48.0666 11.8984 46.7445 11.8984 45.1286V35.5958C11.8984 33.98 13.2205 32.658 14.8364 32.658H66.1637C67.7795 32.658 69.1016 33.98 69.1016 35.5958V45.1286C69.1016 46.7445 67.7794 48.0664 66.1636 48.0666Z" fill="#004960"/>
<path fill-rule="evenodd" clip-rule="evenodd" d="M66.1636 48.0666C67.7794 48.0666 69.1014 49.3886 69.1014 51.0045V60.5373C69.1014 62.1533 67.7794 63.4751 66.1636 63.4751C67.7794 63.4751 69.1014 64.7972 69.1014 66.413V75.9458C69.1014 77.5617 67.7794 78.8837 66.1636 78.8837H63.0386C64.6544 78.8837 65.9764 77.5617 65.9764 75.9458V66.413C65.9764 64.797 64.6544 63.4751 63.0386 63.4751C64.6544 63.4751 65.9764 62.1531 65.9764 60.5373V51.0045C65.9764 49.3886 64.6544 48.0666 63.0386 48.0666C64.6544 48.0666 65.9764 46.7445 65.9764 45.1286V35.5958C65.9764 33.98 64.6544 32.658 63.0386 32.658H66.1636C67.7794 32.658 69.1014 33.98 69.1014 35.5958V45.1286C69.1014 46.7445 67.7794 48.0664 66.1636 48.0666Z" fill="#003D50"/>
<path d="M14.8364 48.0667H66.1637C67.7852 48.0667 69.1016 49.3831 69.1016 51.0045V60.5373C69.1016 62.1588 67.7852 63.4752 66.1636 63.4752H14.8364C13.215 63.4752 11.8984 62.1588 11.8984 60.5373V51.0045C11.8984 49.3831 13.215 48.0667 14.8364 48.0667Z" fill="#003343"/>
<path fill-rule="evenodd" clip-rule="evenodd" d="M63.0386 63.475H66.1636C67.7794 63.475 69.1014 62.153 69.1014 60.5372V51.0044C69.1014 49.3884 67.7794 48.0664 66.1636 48.0664H63.0386C64.6544 48.0664 65.9764 49.3884 65.9764 51.0044V60.5372C65.9764 62.1531 64.6544 63.475 63.0386 63.475Z" fill="#002A38"/>
<path fill-rule="evenodd" clip-rule="evenodd" d="M61.3681 39.1121C62.0584 39.1121 62.6181 39.6717 62.6181 40.3621C62.6181 41.0524 62.0584 41.6121 61.3681 41.6121H44.8348C44.1445 41.6121 43.5848 41.0524 43.5848 40.3621C43.5848 39.6717 44.1445 39.1121 44.8348 39.1121H61.3681ZM61.3681 54.5207C62.0584 54.5207 62.6181 55.0803 62.6181 55.7707C62.6181 56.461 62.0584 57.0207 61.3681 57.0207H44.8348C44.1445 57.0207 43.5848 56.461 43.5848 55.7707C43.5848 55.0803 44.1445 54.5207 44.8348 54.5207H61.3681ZM61.3681 69.9294C62.0584 69.9294 62.6181 70.4891 62.6181 71.1794C62.6181 71.8697 62.0584 72.4294 61.3681 72.4294H44.8348C44.1445 72.4294 43.5848 71.8697 43.5848 71.1794C43.5848 70.4891 44.1445 69.9294 44.8348 69.9294H61.3681Z" fill="#EFF4F7"/>
<path fill-rule="evenodd" clip-rule="evenodd" d="M19.0865 38.1675C20.2987 38.1675 21.2814 39.1501 21.2814 40.3622C21.2814 41.5742 20.2987 42.5569 19.0865 42.5569C17.8743 42.5569 16.8918 41.5742 16.8918 40.3622C16.8918 39.1501 17.8745 38.1675 19.0865 38.1675ZM19.0865 57.9656C20.2987 57.9656 21.2814 56.983 21.2814 55.7709C21.2814 54.5589 20.2987 53.5761 19.0865 53.5761C17.8743 53.5761 16.8918 54.5587 16.8918 55.7709C16.8918 56.9831 17.8745 57.9656 19.0865 57.9656ZM19.0865 68.9847C20.2987 68.9847 21.2814 69.9673 21.2814 71.1794C21.2814 72.3914 20.2987 73.374 19.0865 73.374C17.8743 73.374 16.8918 72.3914 16.8918 71.1794C16.8918 69.9673 17.8745 68.9847 19.0865 68.9847Z" fill="#FC685B"/>
<path fill-rule="evenodd" clip-rule="evenodd" d="M19.0866 38.1674C19.9745 38.1674 20.7394 38.6947 21.0848 39.4533C20.7494 39.2452 20.3536 39.1249 19.9297 39.1249C18.7175 39.1249 17.735 40.1075 17.735 41.3196C17.735 41.6438 17.8053 41.9515 17.9314 42.2283C17.3075 41.8413 16.8917 41.1502 16.8917 40.3619C16.8917 39.1497 17.8744 38.1672 19.0864 38.1672L19.0866 38.1674ZM21.0848 54.8619C20.7394 54.1033 19.9745 53.576 19.0866 53.576C17.8744 53.576 16.8919 54.5586 16.8919 55.7708C16.8919 56.5591 17.3075 57.2502 17.9316 57.6372C17.8055 57.3604 17.7352 57.0525 17.7352 56.7285C17.7352 55.5163 18.7178 54.5336 19.9298 54.5336C20.3538 54.5336 20.7494 54.654 21.085 54.8621L21.0848 54.8619ZM19.0866 68.9846C19.9745 68.9846 20.7394 69.5119 21.0848 70.2705C20.7492 70.0624 20.3536 69.9421 19.9297 69.9421C18.7175 69.9421 17.735 70.9247 17.735 72.1368C17.735 72.461 17.8053 72.7686 17.9314 73.0455C17.3075 72.6585 16.8917 71.9674 16.8917 71.1791C16.8917 69.9669 17.8744 68.9844 19.0864 68.9844L19.0866 68.9846Z" fill="#FB4737"/>
<path fill-rule="evenodd" clip-rule="evenodd" d="M27.2021 68.9847C28.4143 68.9847 29.397 69.9673 29.397 71.1794C29.397 72.3914 28.4143 73.374 27.2021 73.374C25.9899 73.374 25.0074 72.3914 25.0074 71.1794C25.0074 69.9673 25.9901 68.9847 27.2021 68.9847ZM27.2021 57.9656C28.4143 57.9656 29.397 56.983 29.397 55.7709C29.397 54.5589 28.4143 53.5761 27.2021 53.5761C25.9899 53.5761 25.0074 54.5587 25.0074 55.7709C25.0074 56.9831 25.9901 57.9656 27.2021 57.9656ZM27.2021 38.1675C28.4143 38.1675 29.397 39.1501 29.397 40.3622C29.397 41.5742 28.4143 42.5569 27.2021 42.5569C25.9899 42.5569 25.0074 41.5742 25.0074 40.3622C25.0074 39.1501 25.9901 38.1675 27.2021 38.1675Z" fill="#FFDA2D"/>
<path fill-rule="evenodd" clip-rule="evenodd" d="M27.2022 68.9846C28.0902 68.9846 28.855 69.5119 29.2005 70.2705C28.865 70.0624 28.4692 69.9421 28.0453 69.9421C26.8333 69.9421 25.8505 70.9247 25.8505 72.1368C25.8505 72.461 25.9208 72.7686 26.0469 73.0455C25.4228 72.6585 25.0072 71.9674 25.0072 71.1791C25.0072 69.9669 25.9899 68.9844 27.2019 68.9844L27.2022 68.9846ZM29.2006 54.8619C28.855 54.1033 28.0903 53.576 27.2024 53.576C25.9902 53.576 25.0077 54.5586 25.0077 55.7708C25.0077 56.5591 25.4233 57.2502 26.0474 57.6372C25.9213 57.3604 25.851 57.0525 25.851 56.7285C25.851 55.5163 26.8336 54.5336 28.0458 54.5336C28.4697 54.5336 28.8653 54.654 29.201 54.8621L29.2006 54.8619ZM27.2022 38.1674C28.0902 38.1674 28.855 38.6947 29.2005 39.4533C28.865 39.2452 28.4692 39.1249 28.0453 39.1249C26.8333 39.1249 25.8505 40.1075 25.8505 41.3196C25.8505 41.6438 25.9208 41.9515 26.0469 42.2283C25.4228 41.8413 25.0072 41.1502 25.0072 40.3619C25.0072 39.1497 25.9899 38.1672 27.2019 38.1672L27.2022 38.1674Z" fill="#FFC700"/>
<path fill-rule="evenodd" clip-rule="evenodd" d="M35.318 68.9847C36.53 68.9847 37.5127 69.9673 37.5127 71.1794C37.5127 72.3914 36.53 73.374 35.318 73.374C34.106 73.374 33.1232 72.3914 33.1232 71.1794C33.1232 69.9673 34.1058 68.9847 35.318 68.9847ZM35.318 57.9656C36.53 57.9656 37.5127 56.983 37.5127 55.7709C37.5127 54.5589 36.53 53.5761 35.318 53.5761C34.106 53.5761 33.1232 54.5587 33.1232 55.7709C33.1232 56.9831 34.1058 57.9656 35.318 57.9656ZM35.318 38.1675C36.53 38.1675 37.5127 39.1501 37.5127 40.3622C37.5127 41.5742 36.53 42.5569 35.318 42.5569C34.106 42.5569 33.1232 41.5742 33.1232 40.3622C33.1232 39.1501 34.1058 38.1675 35.318 38.1675Z" fill="#72D561"/>
<path fill-rule="evenodd" clip-rule="evenodd" d="M35.318 68.9846C36.206 68.9846 36.9707 69.5119 37.3163 70.2705C36.9808 70.0624 36.585 69.9421 36.1613 69.9421C34.9491 69.9421 33.9666 70.9247 33.9666 72.1368C33.9666 72.461 34.0369 72.7686 34.163 73.0455C33.539 72.6585 33.1233 71.9674 33.1233 71.1791C33.1233 69.9669 34.106 68.9844 35.3182 68.9844L35.318 68.9846ZM37.3163 54.8619C36.9707 54.1033 36.206 53.576 35.318 53.576C34.1058 53.576 33.1232 54.5586 33.1232 55.7708C33.1232 56.5591 33.5388 57.2502 34.1629 57.6372C34.0368 57.3604 33.9665 57.0527 33.9665 56.7285C33.9665 55.5163 34.9491 54.5336 36.1611 54.5336C36.585 54.5336 36.9807 54.654 37.3161 54.8621L37.3163 54.8619ZM35.318 38.1674C36.206 38.1674 36.9707 38.6947 37.3163 39.4533C36.9807 39.2452 36.585 39.1249 36.1613 39.1249C34.9491 39.1249 33.9666 40.1075 33.9666 41.3196C33.9666 41.6438 34.0369 41.9515 34.163 42.2283C33.539 41.8413 33.1233 41.1502 33.1233 40.3619C33.1233 39.1497 34.106 38.1672 35.3182 38.1672L35.318 38.1674Z" fill="#42C345"/>
</svg>
