<svg width="24" height="25" viewBox="0 0 24 25" fill="none" xmlns="http://www.w3.org/2000/svg">
<g clip-path="url(#clip0_179_91)">
<path d="M23.6662 13.6321C23.295 13.0584 22.665 12.7171 21.9787 12.7171C21.5925 12.7171 21.2137 12.8296 20.8875 13.0396C20.04 13.5909 19.7475 14.6746 20.16 15.5671L17.8462 17.1384C17.3625 16.4559 16.7062 15.9009 15.9375 15.5484L17.8687 10.0584C18.2737 10.1746 18.7012 10.2346 19.14 10.2346C20.205 10.2346 21.195 9.88587 21.99 9.28962C22.0087 9.27462 22.0237 9.26337 22.0387 9.24837C23.1787 8.37462 23.9175 7.00212 23.9175 5.44962C23.9175 2.81712 21.7725 0.672119 19.14 0.672119C17.1562 0.672119 15.45 1.88337 14.7262 3.60837L13.4325 3.06837C13.5112 2.64087 13.4475 2.20212 13.2412 1.80837C13.0012 1.33212 12.585 0.983369 12.0787 0.818369C11.88 0.750869 11.67 0.720869 11.4637 0.720869C11.1525 0.720869 10.8375 0.795869 10.5525 0.938369C10.0762 1.18212 9.7275 1.59462 9.5625 2.10462C9.3975 2.61462 9.4425 3.15087 9.68625 3.62712C9.93 4.10337 10.3425 4.45587 10.8525 4.62087C11.0512 4.68462 11.2575 4.71837 11.4637 4.71837C11.7787 4.71837 12.09 4.63962 12.375 4.49712C12.7537 4.30212 13.0537 3.99837 13.245 3.62712L14.535 4.16337C14.415 4.57212 14.355 5.00337 14.355 5.44962C14.355 6.01212 14.4525 6.54837 14.6287 7.04712L10.1812 8.98587C9.39375 7.42962 7.7775 6.36087 5.9175 6.36087C5.30625 6.36087 4.71375 6.47712 4.17375 6.69087L3.07875 4.44462C3.4425 4.22712 3.72375 3.89337 3.88875 3.48837C4.095 2.98962 4.09125 2.44212 3.885 1.94337C3.5775 1.18962 2.8425 0.702119 2.025 0.702119C1.75875 0.702119 1.49625 0.754619 1.24875 0.859619C0.217497 1.28337 -0.270003 2.47212 0.161247 3.49962C0.367497 3.99837 0.757497 4.38837 1.25625 4.59087C1.5 4.69212 1.7625 4.74462 2.025 4.74462C2.1975 4.74462 2.37 4.72212 2.53875 4.67712L3.64125 6.93462C2.1525 7.74837 1.13625 9.32712 1.13625 11.1346C1.13625 12.6796 1.875 14.0596 3.01875 14.9334C3.03375 14.9484 3.0525 14.9634 3.07125 14.9746C3.86625 15.5671 4.8525 15.9159 5.9175 15.9159C6.97875 15.9159 7.965 15.5671 8.76 14.9746C8.7825 14.9634 8.80125 14.9484 8.82 14.9296C8.88375 14.8809 8.94375 14.8321 9 14.7796L10.4812 16.5984C9.6675 17.4571 9.165 18.6159 9.165 19.8909C9.165 20.1946 9.195 20.4909 9.25125 20.7834L7.44 21.1809C7.155 20.3971 6.405 19.8534 5.55 19.8534C5.41875 19.8534 5.2875 19.8646 5.15625 19.8909C4.63125 19.9959 4.1775 20.2996 3.8775 20.7496C3.58125 21.1959 3.4725 21.7321 3.5775 22.2534C3.76875 23.1946 4.59375 23.8734 5.55 23.8734C5.685 23.8734 5.8125 23.8584 5.94375 23.8321C6.46875 23.7271 6.92625 23.4234 7.2225 22.9771C7.46625 22.6134 7.5825 22.1859 7.55625 21.7546L9.3975 21.3534C9.6975 22.2909 10.2825 23.1009 11.0437 23.6821C11.0437 23.6821 11.0437 23.6821 11.0475 23.6859C11.07 23.7009 11.0925 23.7196 11.115 23.7346C11.91 24.3234 12.8887 24.6684 13.9462 24.6684C15.0075 24.6684 15.9937 24.3196 16.7887 23.7271C16.8112 23.7159 16.83 23.7009 16.8487 23.6821C17.9887 22.8084 18.7237 21.4359 18.7237 19.8871C18.7237 19.0734 18.5212 18.3046 18.1575 17.6334L20.4825 16.0546C20.8612 16.4821 21.4012 16.7296 21.9862 16.7296C22.3725 16.7296 22.7512 16.6134 23.0775 16.4034C23.5275 16.1146 23.835 15.6609 23.9475 15.1359C24.0637 14.6146 23.9625 14.0784 23.6662 13.6321ZM15.2625 20.9709C15.6337 20.6221 15.8625 20.1271 15.8625 19.5796C15.8625 18.5259 15 17.6634 13.9462 17.6634C12.8887 17.6634 12.03 18.5259 12.03 19.5796C12.03 20.1271 12.2587 20.6184 12.63 20.9709C11.7037 21.2821 11.1637 21.9234 11.01 22.8721C10.485 22.3584 10.095 21.7059 9.9 20.9784C9.9 20.9671 9.89625 20.9559 9.89625 20.9484C9.8925 20.9296 9.88875 20.9146 9.88125 20.8996C9.8775 20.8959 9.8775 20.8921 9.8775 20.8884C9.79875 20.5696 9.7575 20.2359 9.7575 19.8909C9.7575 17.5809 11.6362 15.6984 13.95 15.6984C14.4862 15.6984 15 15.7996 15.4725 15.9834L15.4762 15.9871H15.48C16.335 16.3246 17.0512 16.9359 17.5275 17.7084C17.5312 17.7121 17.535 17.7159 17.535 17.7196C17.9175 18.3496 18.1387 19.0959 18.1387 19.8909C18.1387 21.0571 17.6587 22.1109 16.8862 22.8759C16.7362 21.9234 16.1887 21.2821 15.2625 20.9709ZM4.1625 7.33212C4.69875 7.08462 5.29125 6.94587 5.92125 6.94587C7.64625 6.94587 9.1275 7.99212 9.7725 9.48087V9.48837C9.7725 9.49212 9.77625 9.49212 9.77625 9.49587C9.99375 10.0021 10.1137 10.5571 10.1137 11.1384C10.1137 12.3046 9.63375 13.3584 8.86125 14.1234C8.71125 13.1709 8.1675 12.5334 7.2375 12.2184C7.60875 11.8734 7.8375 11.3784 7.8375 10.8309C7.8375 9.77337 6.975 8.91462 5.92125 8.91462C4.86375 8.91462 4.005 9.77337 4.005 10.8309C4.005 11.3784 4.23375 11.8696 4.605 12.2221C3.67875 12.5334 3.13875 13.1709 2.985 14.1196C2.2125 13.3621 1.7325 12.3084 1.7325 11.1384C1.72875 9.45462 2.73 7.99962 4.1625 7.33212ZM19.14 1.26087C21.4462 1.26087 23.3287 3.13962 23.3287 5.45337C23.3287 6.61587 22.8487 7.67337 22.08 8.43462C21.9262 7.48212 21.3825 6.84837 20.4562 6.53712C20.8275 6.18837 21.0562 5.69337 21.0562 5.14587C21.0562 4.08837 20.1937 3.22962 19.14 3.22962C18.0825 3.22962 17.2237 4.08837 17.2237 5.14587C17.2237 5.69337 17.4525 6.18462 17.8237 6.53712C16.8975 6.84837 16.3575 7.48587 16.2037 8.43462C15.8137 8.05587 15.4987 7.59837 15.2812 7.08837V7.08462C15.0712 6.58212 14.9512 6.03462 14.9512 5.45337C14.9512 4.98462 15.03 4.53462 15.1687 4.11462C15.1762 4.09587 15.18 4.07712 15.1875 4.05837C15.7612 2.43087 17.3175 1.26087 19.14 1.26087ZM9.43125 14.3746C10.2187 13.5234 10.6987 12.3871 10.6987 11.1384C10.6987 10.5721 10.6012 10.0321 10.4212 9.52962C10.4212 9.52962 10.4212 9.52962 10.4212 9.52587L14.865 7.58712C15.1912 8.23962 15.6675 8.80962 16.245 9.24462C16.2562 9.25962 16.275 9.27087 16.29 9.28587C16.605 9.51837 16.9462 9.71712 17.3137 9.86712L15.3862 15.3346C14.9287 15.1884 14.445 15.1134 13.9462 15.1134C12.7987 15.1134 11.745 15.5221 10.9162 16.1971L9.43125 14.3746Z" fill="white"/>
</g>
<defs>
<clipPath id="clip0_179_91">
<rect width="24" height="24" fill="white" transform="translate(0 0.672119)"/>
</clipPath>
</defs>
</svg>
