<svg width="79" height="67" viewBox="0 0 79 67" fill="none" xmlns="http://www.w3.org/2000/svg">
<path fill-rule="evenodd" clip-rule="evenodd" d="M52.807 55.1401L25.9928 55.484L20.0356 65.7067C19.7739 66.1558 20.1278 66.6483 20.5767 66.6483H58.4236C58.8725 66.6483 59.2264 66.1559 58.9647 65.7067L52.807 55.1401Z" fill="#003748"/>
<path fill-rule="evenodd" clip-rule="evenodd" d="M74.0642 0.696289C76.2805 0.696289 78.0939 2.50941 78.0939 4.72598V53.2338C78.0939 55.4502 76.2805 57.2633 74.0642 57.2633H4.93594C2.71969 57.2635 0.90625 55.4504 0.90625 53.2338V4.72598C0.90625 2.50957 2.71969 0.696289 4.93594 0.696289H74.0642Z" fill="#E6F8FF"/>
<path fill-rule="evenodd" clip-rule="evenodd" d="M78.0938 50.5164H0.90625V53.2339C0.90625 55.4503 2.71969 57.2635 4.93578 57.2635H74.0642C76.2803 57.2635 78.0938 55.4504 78.0938 53.2339V50.5164Z" fill="#004960"/>
<path fill-rule="evenodd" clip-rule="evenodd" d="M43.6324 45.3476C42.942 45.3476 42.3824 44.7879 42.3824 44.0976C42.3824 43.4073 42.942 42.8476 43.6324 42.8476H67.875C68.5653 42.8476 69.125 43.4073 69.125 44.0976C69.125 44.7879 68.5653 45.3476 67.875 45.3476H43.6324ZM43.6324 33.5811C42.942 33.5811 42.3824 33.0214 42.3824 32.3311C42.3824 31.6407 42.942 31.0811 43.6324 31.0811H67.875C68.5653 31.0811 69.125 31.6407 69.125 32.3311C69.125 33.0214 68.5653 33.5811 67.875 33.5811H43.6324ZM43.6324 39.4643C42.942 39.4643 42.3824 38.9046 42.3824 38.2143C42.3824 37.524 42.942 36.9643 43.6324 36.9643H67.875C68.5653 36.9643 69.125 37.524 69.125 38.2143C69.125 38.9046 68.5653 39.4643 67.875 39.4643H43.6324Z" fill="#8D9CA8"/>
<path fill-rule="evenodd" clip-rule="evenodd" d="M55.7536 10.4604C62.1938 10.4604 67.4145 15.6601 67.4145 22.0742H73.2145C73.2145 12.4698 65.397 4.68384 55.7536 4.68384C46.1102 4.68384 38.2927 12.4698 38.2927 22.0742H44.0927C44.0927 15.6601 49.3134 10.4604 55.7536 10.4604Z" fill="#F35244"/>
<path fill-rule="evenodd" clip-rule="evenodd" d="M55.7536 4.68384V10.4604C57.878 10.4604 59.8695 11.0262 61.585 12.0146C63.3545 13.0343 64.83 14.5038 65.8539 16.2662L70.8777 13.3774C69.3445 10.7385 67.1352 8.53806 64.4855 7.01118C61.9169 5.53103 58.9345 4.68384 55.7536 4.68384Z" fill="#FC685B"/>
<path fill-rule="evenodd" clip-rule="evenodd" d="M47.9372 8.59064L49.9222 12.0149C51.6375 11.0264 53.6292 10.4606 55.7536 10.4606C57.878 10.4606 59.8695 11.0264 61.585 12.0149L64.4855 7.01143C61.9169 5.53127 58.9345 4.68408 55.7536 4.68408C55.143 4.68408 54.5397 4.71533 53.9453 4.77627C51.443 5.03268 49.0974 5.81549 47.0217 7.01143L47.9372 8.59064Z" fill="#3CBE52"/>
<path fill-rule="evenodd" clip-rule="evenodd" d="M40.6295 13.3774L45.6533 16.2662C46.6772 14.5038 48.1527 13.0343 49.9222 12.0146C51.6375 11.0262 53.6292 10.4604 55.7536 10.4604V4.68384C55.143 4.68384 54.5397 4.71509 53.9453 4.77603C51.443 5.03243 49.0974 5.81524 47.0217 7.01118C46.3795 7.38118 45.7633 7.79087 45.1761 8.23665C43.3408 9.6304 41.791 11.3781 40.6295 13.3774Z" fill="#72D561"/>
<path fill-rule="evenodd" clip-rule="evenodd" d="M44.0927 22.0741C44.0927 19.9583 44.6608 17.9746 45.6533 16.2661C46.6772 14.5038 48.1527 13.0343 49.9222 12.0146L47.9372 8.59036L47.0217 7.01099C46.3795 7.38099 45.7633 7.79067 45.1761 8.23645C43.3408 9.6302 41.7911 11.3779 40.6295 13.3772C39.1433 15.9355 38.2927 18.9058 38.2927 22.074L44.0927 22.0741Z" fill="#FFC700"/>
<path fill-rule="evenodd" clip-rule="evenodd" d="M44.0927 22.0742C44.0927 19.9584 44.6608 17.9746 45.6533 16.2662L40.6295 13.3774C39.1433 15.9357 38.2927 18.906 38.2927 22.0742H44.0927Z" fill="#FFDA2D"/>
<path fill-rule="evenodd" clip-rule="evenodd" d="M62.3181 16.9147C62.9141 16.5696 63.677 16.7728 64.0222 17.3688C64.3673 17.9647 64.1641 18.7277 63.5681 19.0728L57.0858 22.8155C56.4898 23.1606 55.7269 22.9574 55.3817 22.3614C55.0366 21.7655 55.2398 21.0025 55.8358 20.6574L62.3181 16.9147Z" fill="#8D9CA8"/>
<path fill-rule="evenodd" clip-rule="evenodd" d="M55.7536 25.1852C57.4285 25.1852 58.7944 23.8192 58.7944 22.1444C58.7944 20.4697 57.4285 19.1038 55.7536 19.1038C54.0789 19.1038 52.713 20.4697 52.713 22.1444C52.7128 23.8192 54.0788 25.1852 55.7536 25.1852Z" fill="#64B5F6"/>
<path d="M24.5551 18.3746C26.6514 13.3174 24.251 7.5183 19.1938 5.42205C14.1365 3.3258 8.33742 5.72618 6.24118 10.7834C4.14493 15.8407 6.54531 21.6398 11.6026 23.736C16.6598 25.8323 22.4589 23.4319 24.5551 18.3746Z" fill="#64B5F6"/>
<path fill-rule="evenodd" clip-rule="evenodd" d="M15.3906 4.66431L15.3905 14.5745L24.4925 18.501C25.0126 17.2971 25.3008 15.9695 25.3008 14.5745C25.3008 9.10118 20.8637 4.66431 15.3906 4.66431Z" fill="#FFDA2D"/>
<path fill-rule="evenodd" clip-rule="evenodd" d="M24.4925 18.501L15.3906 14.5745L9.43968 22.4996C11.0969 23.7459 13.1575 24.4846 15.3908 24.4846C19.4689 24.4846 22.9719 22.0212 24.4925 18.501Z" fill="#72D561"/>
<path d="M15.3906 18.7338C17.6878 18.7338 19.55 16.8716 19.55 14.5744C19.55 12.2773 17.6878 10.415 15.3906 10.415C13.0935 10.415 11.2312 12.2773 11.2312 14.5744C11.2312 16.8716 13.0935 18.7338 15.3906 18.7338Z" fill="#EFF4F7"/>
<path fill-rule="evenodd" clip-rule="evenodd" d="M28.9881 25.7107L8.63156 37.4635C8.03562 37.806 7.27484 37.6004 6.93234 37.0045C6.58984 36.4085 6.79547 35.6478 7.39141 35.3053L27.742 23.5559L26.728 23.3551C26.0511 23.2229 25.6095 22.5671 25.7417 21.8903C25.8739 21.2134 26.5297 20.7718 27.2066 20.904L31.4767 21.7495C32.1536 21.8815 32.5952 22.5374 32.463 23.2143C32.4483 23.2893 32.4272 23.3615 32.4003 23.4304L31.0162 27.4963C30.7952 28.149 30.0867 28.4987 29.4342 28.2776C28.7816 28.0565 28.4319 27.3481 28.653 26.6956L28.9881 25.7107Z" fill="#8D9CA8"/>
<path fill-rule="evenodd" clip-rule="evenodd" d="M6.41812 42.1438H9.44437C9.96078 42.1438 10.3819 42.5649 10.3819 43.0813V48.016C10.3819 48.5324 9.96078 48.9535 9.44437 48.9535H6.41812C5.90172 48.9535 5.48062 48.5324 5.48062 48.016V43.0813C5.48062 42.5649 5.90172 42.1438 6.41812 42.1438Z" fill="#FC685B"/>
<path fill-rule="evenodd" clip-rule="evenodd" d="M14.977 37.6572H18.0033C18.5197 37.6572 18.9408 38.0783 18.9408 38.5947V48.016C18.9408 48.5324 18.5197 48.9535 18.0033 48.9535H14.977C14.4606 48.9535 14.0395 48.5324 14.0395 48.016V38.5947C14.0395 38.0785 14.4606 37.6572 14.977 37.6572Z" fill="#FFDA2D"/>
<path fill-rule="evenodd" clip-rule="evenodd" d="M23.5359 33.1704H26.5622C27.0786 33.1704 27.4997 33.5915 27.4997 34.1079V48.016C27.4997 48.5324 27.0786 48.9535 26.5622 48.9535H23.5359C23.0195 48.9535 22.5984 48.5324 22.5984 48.016V34.1079C22.5986 33.5917 23.0197 33.1704 23.5359 33.1704Z" fill="#72D561"/>
<path fill-rule="evenodd" clip-rule="evenodd" d="M32.095 28.6841H35.1213C35.6377 28.6841 36.0588 29.1052 36.0588 29.6216V48.0163C36.0588 48.5327 35.6377 48.9538 35.1213 48.9538H32.095C31.5786 48.9538 31.1575 48.5327 31.1575 48.0163V29.6214C31.1575 29.1052 31.5786 28.6841 32.095 28.6841Z" fill="#64B5F6"/>
</svg>
