<svg width="20" height="20" viewBox="0 0 20 20" fill="none" xmlns="http://www.w3.org/2000/svg">
<path opacity="0.4" d="M3.33334 2H10.6667C11.403 2 12 2.59697 12 3.33334V8C12 8.73638 11.403 9.33334 10.6667 9.33334H3.33334C2.59697 9.33334 2 8.73638 2 8V3.33334C2 2.59697 2.59697 2 3.33334 2Z" fill="white"/>
<path d="M14.6665 2H16.6665C17.4029 2 17.9999 2.59697 17.9999 3.33334V8C17.9999 8.73638 17.4029 9.33334 16.6665 9.33334H14.6665C13.9302 9.33334 13.3332 8.73638 13.3332 8V3.33334C13.3332 2.59697 13.9302 2 14.6665 2Z" fill="white"/>
<path d="M3.33334 10.6666H5.33334C6.06972 10.6666 6.66669 11.2636 6.66669 12V16.6666C6.66669 17.403 6.06972 18 5.33334 18H3.33334C2.59697 18 2 17.403 2 16.6666V12C2 11.2636 2.59697 10.6666 3.33334 10.6666Z" fill="white"/>
<path opacity="0.4" d="M9.33334 10.6666H16.6667C17.4031 10.6666 18 11.2636 18 12V16.6666C18 17.403 17.4031 18 16.6667 18H9.33334C8.59697 18 8 17.403 8 16.6666V12C8 11.2636 8.59697 10.6666 9.33334 10.6666Z" fill="white"/>
</svg>
