<svg width="20" height="20" viewBox="0 0 20 20" fill="none" xmlns="http://www.w3.org/2000/svg">
<g opacity="0.6">
<path d="M14 14.6667V17.8C14.4705 17.6387 14.8987 17.3735 15.2527 17.024L17.0233 15.252C17.3732 14.8985 17.6387 14.4705 17.8 14H14.6667C14.4899 14 14.3203 14.0702 14.1953 14.1953C14.0702 14.3203 14 14.4899 14 14.6667Z" fill="#E8F3FF"/>
<path d="M6.78133 11.2187C6.53361 11.4663 6.33711 11.7603 6.20305 12.0839C6.06898 12.4075 5.99999 12.7544 6 13.1047V14H6.89533C7.24561 14 7.59246 13.931 7.91606 13.7969C8.23967 13.6629 8.53369 13.4664 8.78133 13.2187L16.3333 5.66666C16.5985 5.40144 16.7475 5.04173 16.7475 4.66665C16.7475 4.29158 16.5985 3.93187 16.3333 3.66666C16.0681 3.40144 15.7084 3.25244 15.3333 3.25244C14.9583 3.25244 14.5985 3.40144 14.3333 3.66666L6.78133 11.2187Z" fill="#E8F3FF"/>
<path d="M18 5.30133C17.8865 5.79587 17.6371 6.24888 17.28 6.60933L9.724 14.162C9.35338 14.5346 8.91254 14.8299 8.42699 15.031C7.94145 15.2321 7.42086 15.3348 6.89533 15.3333H6C5.64638 15.3333 5.30724 15.1929 5.05719 14.9428C4.80714 14.6928 4.66667 14.3536 4.66667 14V13.1047C4.66521 12.5792 4.76805 12.0586 4.96923 11.5732C5.17041 11.0878 5.46593 10.6471 5.83867 10.2767L13.3907 2.724C13.7484 2.36636 14.1989 2.11563 14.6913 2C14.6827 2 14.6753 2 14.6667 2H5.33333C4.4496 2.00106 3.60237 2.35259 2.97748 2.97748C2.35259 3.60237 2.00106 4.4496 2 5.33333L2 14.6667C2.00106 15.5504 2.35259 16.3976 2.97748 17.0225C3.60237 17.6474 4.4496 17.9989 5.33333 18H12.6667V14.6667C12.6667 14.1362 12.8774 13.6275 13.2525 13.2525C13.6275 12.8774 14.1362 12.6667 14.6667 12.6667H18V5.33333C18 5.32267 18 5.31267 18 5.30133Z" fill="#E8F3FF"/>
</g>
</svg>
