<svg width="20" height="20" viewBox="0 0 20 20" fill="none" xmlns="http://www.w3.org/2000/svg">
<g opacity="0.6">
<path d="M13.0008 2H6.99983C5.34593 2 4 3.346 4 5V17.3333C4 17.5807 4.13666 17.8073 4.35531 17.9233C4.57397 18.038 4.83862 18.0233 5.04261 17.8833L6.44586 16.924L7.84979 17.8833C7.96311 17.9607 8.09444 18 8.22576 18C8.35709 18 8.48908 17.9607 8.60241 17.8833L10.003 16.924L11.4029 17.8833C11.6302 18.038 11.9296 18.038 12.1562 17.8833L13.5568 16.9247L14.9567 17.8833C15.1614 18.0233 15.4254 18.038 15.644 17.9233C15.8627 17.8087 16 17.5807 16 17.3333V5C16 3.346 14.6547 2 13.0008 2ZM7.46781 7.6C7.76246 7.6 8.00111 7.83867 8.00111 8.13333C8.00111 8.428 7.76246 8.66667 7.46781 8.66667H6.73385V10.1333C6.73385 10.428 6.49519 10.6667 6.20054 10.6667C5.90589 10.6667 5.66724 10.428 5.66724 10.1333V5.86667C5.66724 5.572 5.90589 5.33333 6.20054 5.33333H7.46714C7.76179 5.33333 8.00044 5.572 8.00044 5.86667C8.00044 6.16133 7.76179 6.4 7.46714 6.4H6.73318V7.60067H7.46714L7.46781 7.6ZM10.4676 7.6C10.7623 7.6 11.0009 7.83867 11.0009 8.13333C11.0009 8.428 10.7623 8.66667 10.4676 8.66667H9.73368V9.6H10.4676C10.7623 9.6 11.0009 9.83867 11.0009 10.1333C11.0009 10.428 10.7623 10.6667 10.4676 10.6667H9.20104C8.90639 10.6667 8.66774 10.428 8.66774 10.1333V5.86667C8.66774 5.572 8.90639 5.33333 9.20104 5.33333H10.4676C10.7623 5.33333 11.0009 5.572 11.0009 5.86667C11.0009 6.16133 10.7623 6.4 10.4676 6.4H9.73368V7.60067H10.4676V7.6ZM13.4675 7.6C13.7621 7.6 14.0008 7.83867 14.0008 8.13333C14.0008 8.428 13.7621 8.66667 13.4675 8.66667H12.7335V9.6H13.4675C13.7621 9.6 14.0008 9.83867 14.0008 10.1333C14.0008 10.428 13.7621 10.6667 13.4675 10.6667H12.2009C11.9062 10.6667 11.6676 10.428 11.6676 10.1333V5.86667C11.6676 5.572 11.9062 5.33333 12.2009 5.33333H13.4675C13.7621 5.33333 14.0008 5.572 14.0008 5.86667C14.0008 6.16133 13.7621 6.4 13.4675 6.4H12.7335V7.60067H13.4675V7.6Z" fill="#E8F3FF"/>
</g>
</svg>
