<svg width="24" height="25" viewBox="0 0 24 25" fill="none" xmlns="http://www.w3.org/2000/svg">
<g clip-path="url(#clip0_179_100)">
<path fill-rule="evenodd" clip-rule="evenodd" d="M13.9649 23.0251C13.944 23.8059 13.3001 24.4371 12.5145 24.4371H11.4855C10.6998 24.4371 10.0559 23.8063 10.0351 23.0251H13.9649ZM12.4918 8.70545C12.292 8.65205 12.1733 8.44674 12.2267 8.24696C12.2801 8.04713 12.4853 7.92845 12.6852 7.98184L13.6929 8.25184C13.8927 8.30523 14.0114 8.51049 13.958 8.71032L13.688 9.71804C13.6346 9.91787 13.4294 10.0366 13.2295 9.98316C13.0297 9.92977 12.911 9.72451 12.9644 9.52468L13.0006 9.38954L10.155 11.0325C9.97626 11.136 9.74737 11.075 9.64383 10.8962C9.54028 10.7175 9.60126 10.4886 9.78005 10.385L12.6265 8.74159L12.4918 8.70545ZM11.394 11.4101H12.606V14.9996H11.394V11.4101ZM6.91711 12.1191C6.91711 14.9263 9.19279 17.202 12 17.202C14.8226 17.202 17.0829 14.9081 17.0829 12.1191C17.0829 9.31187 14.8072 7.03618 12 7.03618C9.19279 7.03618 6.91711 9.31187 6.91711 12.1191ZM13.6912 14.9996H14.9032V10.8167H13.6912V14.9996ZM9.0967 12.4827H10.3087V14.9996H9.0967V12.4827ZM15.731 16.6028C16.0426 16.3432 16.3268 16.0516 16.5782 15.7336L17.0604 16.2158L17.3259 15.9503C17.3614 15.9148 17.4193 15.9148 17.4547 15.9503L17.924 16.4195L16.406 17.9375L15.9367 17.4682C15.9013 17.4328 15.9013 17.3748 15.9367 17.3394L16.2022 17.0739L15.731 16.6028ZM16.9363 18.4678L18.4542 16.9499L20.9597 19.4553C21.3772 19.8728 21.3772 20.5558 20.9597 20.9732C20.5423 21.3907 19.8592 21.3907 19.4417 20.9732L16.9363 18.4678ZM3.6224 16.6116C3.80119 16.508 4.03008 16.569 4.13362 16.7478C4.23717 16.9266 4.17619 17.1555 3.9974 17.259L2.79909 17.9509C2.62031 18.0544 2.39142 17.9934 2.28787 17.8147C2.18433 17.6359 2.24531 17.407 2.42409 17.3034L3.6224 16.6116ZM20.0532 17.1739L21.2516 17.8657C21.4304 17.9685 21.6586 17.9068 21.7613 17.728C21.8641 17.5492 21.8024 17.321 21.6236 17.2182L20.4253 16.5264C20.2465 16.4236 20.0182 16.4853 19.9155 16.6641C19.8128 16.8429 19.8744 17.0712 20.0532 17.1739ZM21.4855 12.4744C21.2792 12.4744 21.1119 12.3071 21.1119 12.1008C21.1119 11.8945 21.2792 11.7273 21.4855 11.7273H22.8692C23.0755 11.7273 23.2427 11.8945 23.2427 12.1008C23.2427 12.3071 23.0755 12.4744 22.8692 12.4744H21.4855ZM20.3776 7.6884C20.1988 7.79194 19.9699 7.73096 19.8664 7.55218C19.7628 7.3734 19.8238 7.14451 20.0026 7.04096L21.2009 6.34909C21.3797 6.24554 21.6086 6.30652 21.7121 6.4853C21.8157 6.66409 21.7547 6.89298 21.5759 6.99652L20.3776 7.6884ZM17.0239 4.09679C16.9212 4.27557 16.6929 4.33721 16.5142 4.23451C16.3354 4.13176 16.2737 3.90352 16.3764 3.72474L17.0683 2.52643C17.171 2.34765 17.3992 2.28601 17.578 2.38871C17.7568 2.49146 17.8185 2.7197 17.7157 2.89848L17.0239 4.09679ZM12.3244 2.66448C12.3244 2.87077 12.1571 3.03802 11.9508 3.03802C11.7445 3.03802 11.5773 2.87077 11.5773 2.66448V1.28077C11.5773 1.07448 11.7445 0.907227 11.9508 0.907227C12.1571 0.907227 12.3244 1.07448 12.3244 1.28077V2.66448ZM7.53844 3.77237C7.64198 3.95115 7.581 4.18004 7.40222 4.28359C7.22344 4.38713 6.99454 4.32615 6.891 4.14737L6.19912 2.94905C6.09558 2.77027 6.15656 2.54138 6.33534 2.43784C6.51412 2.33429 6.74301 2.39527 6.84656 2.57405L7.53844 3.77237ZM3.94678 7.12609C4.12556 7.22884 4.1872 7.45707 4.0845 7.63585C3.98175 7.81463 3.75351 7.87627 3.57473 7.77357L2.37637 7.08174C2.19759 6.97899 2.13595 6.75076 2.23865 6.57198C2.3414 6.3932 2.56964 6.33155 2.74842 6.43426L3.94678 7.12609ZM2.51451 11.8256C2.72081 11.8256 2.88806 11.9928 2.88806 12.1991C2.88806 12.4054 2.72081 12.5727 2.51451 12.5727H1.13081C0.924513 12.5727 0.757263 12.4054 0.757263 12.1991C0.757263 11.9928 0.924513 11.8256 1.13081 11.8256H2.51451ZM9.051 19.8175H14.9489C14.9489 19.8175 14.9489 19.7274 14.9489 19.547C14.9489 19.0214 15.2057 18.5697 15.6572 18.3007C15.6679 18.2943 15.6785 18.2877 15.6892 18.2813L15.4064 17.9986C15.1734 17.7655 15.1058 17.4291 15.2038 17.1361L15.1173 17.0498C14.2567 17.5951 13.2436 17.9212 12.1565 17.9499C5.35411 18.1174 3.49486 7.61855 11.2571 6.33305C14.7151 5.89341 17.8328 8.5719 17.8328 12.1191C17.8328 13.1971 17.5398 14.2207 17.0111 15.1058L17.1226 15.2173C17.4155 15.1194 17.7519 15.1869 17.985 15.42L18.2319 15.6669C18.8192 14.6282 19.1547 13.4283 19.1547 12.1499C19.1547 8.19859 15.9514 4.99524 12 4.99524C8.04848 4.99524 4.84523 8.19854 4.84523 12.1499C4.84523 14.7652 6.24825 17.0528 8.34267 18.3006C8.79422 18.5697 9.051 19.0212 9.051 19.547V19.8175ZM9.051 20.5675H14.9489V21.2916C14.9489 21.8333 14.5071 22.2751 13.9654 22.2751H10.0345C9.4928 22.2751 9.051 21.8333 9.051 21.2916V20.5675Z" fill="white"/>
</g>
<defs>
<clipPath id="clip0_179_100">
<rect width="24" height="24" fill="white" transform="translate(0 0.672119)"/>
</clipPath>
</defs>
</svg>
