<svg width="36" height="38" viewBox="0 0 36 38" fill="none" xmlns="http://www.w3.org/2000/svg">
<g clip-path="url(#clip0_164_280)">
<path d="M35.9157 8.61387C35.929 8.6629 35.9359 8.71345 35.936 8.76423V16.6579C35.936 16.7592 35.9091 16.8587 35.858 16.9464C35.8069 17.034 35.7335 17.1067 35.645 17.1571L28.9802 20.9716V28.5321C28.9802 28.7379 28.8702 28.9278 28.6907 29.0314L14.7785 36.9927C14.7467 37.0106 14.7119 37.0222 14.6772 37.0344C14.6642 37.0387 14.6519 37.0466 14.6381 37.0502C14.5409 37.0757 14.4386 37.0757 14.3414 37.0502C14.3255 37.0459 14.311 37.0373 14.2958 37.0315C14.264 37.02 14.2307 37.0099 14.2003 36.9927L0.290939 29.0314C0.202577 28.9809 0.129157 28.9082 0.078079 28.8206C0.0270011 28.7329 7.0013e-05 28.6334 0 28.5321L0 4.85123C0 4.79944 0.00723728 4.74907 0.0202644 4.70015C0.0246067 4.68361 0.0347389 4.6685 0.0405288 4.65195C0.0513847 4.62174 0.0615169 4.5908 0.0774389 4.56274C0.0882948 4.54404 0.104217 4.52893 0.117244 4.51166C0.13389 4.48864 0.149088 4.4649 0.168629 4.44475C0.185274 4.42821 0.206986 4.41598 0.225803 4.40159C0.246791 4.38432 0.265608 4.36562 0.289491 4.35195L7.24524 0.37132C7.3333 0.320946 7.43313 0.294434 7.53473 0.294434C7.63633 0.294434 7.73616 0.320946 7.82422 0.37132L14.7792 4.35195H14.7807C14.8039 4.36634 14.8234 4.38432 14.8444 4.40087C14.8632 4.41526 14.8842 4.42821 14.9008 4.44403C14.9211 4.4649 14.9356 4.48864 14.9529 4.51166C14.9652 4.52893 14.9819 4.54404 14.992 4.56274C15.0087 4.59152 15.0181 4.62174 15.0297 4.65195C15.0354 4.6685 15.0456 4.68361 15.0499 4.70087C15.0632 4.7499 15.0701 4.80045 15.0702 4.85123V19.6421L20.8658 16.3248V8.76352C20.8658 8.71315 20.873 8.66208 20.8861 8.61387C20.8911 8.59661 20.9005 8.5815 20.9063 8.56495C20.9179 8.53473 20.928 8.5038 20.944 8.47574C20.9548 8.45704 20.9707 8.44193 20.983 8.42466C21.0004 8.40164 21.0149 8.3779 21.0351 8.35775C21.0518 8.34121 21.0728 8.32898 21.0916 8.31459C21.1133 8.29732 21.1321 8.27862 21.1553 8.26495L28.1118 4.28432C28.1998 4.23388 28.2996 4.20732 28.4012 4.20732C28.5029 4.20732 28.6027 4.23388 28.6907 4.28432L35.6458 8.26495C35.6704 8.27934 35.6892 8.29732 35.7109 8.31387C35.729 8.32826 35.75 8.34121 35.7666 8.35703C35.7869 8.3779 35.8014 8.40164 35.8187 8.42466C35.8318 8.44193 35.8477 8.45704 35.8578 8.47574C35.8745 8.5038 35.8839 8.53473 35.8955 8.56495C35.902 8.5815 35.9114 8.59661 35.9157 8.61387ZM34.7766 16.3248V9.76065L32.3427 11.1535L28.9802 13.078V19.6421L34.7773 16.3248H34.7766ZM27.8215 28.199V21.6306L24.5141 23.5083L15.0695 28.8667V35.497L27.8215 28.199ZM1.15941 5.84765V28.199L13.91 35.4962V28.8674L7.24886 25.1198L7.24669 25.1184L7.24379 25.117C7.22136 25.104 7.20254 25.0853 7.18155 25.0695C7.16346 25.0551 7.14247 25.0436 7.12655 25.0278L7.1251 25.0256C7.10628 25.0076 7.09326 24.9853 7.07733 24.9652C7.06286 24.9457 7.04549 24.9292 7.03391 24.909L7.03319 24.9069C7.02016 24.8853 7.0122 24.8594 7.00279 24.8349C6.99338 24.8134 6.98108 24.7932 6.97529 24.7702C6.96805 24.7429 6.9666 24.7134 6.96371 24.6853C6.96081 24.6637 6.95502 24.6421 6.95502 24.6206V9.16496L3.59331 7.23975L1.15941 5.84765ZM7.53545 1.53536L1.74057 4.85123L7.53401 8.1671L13.3282 4.85051L7.53401 1.53536H7.53545ZM10.5491 22.2292L13.9108 20.3054V5.84765L11.4769 7.24047L8.11444 9.16496V23.6227L10.5491 22.2292ZM28.4012 5.44836L22.6071 8.76423L28.4012 12.0801L34.1947 8.76352L28.4012 5.44836ZM27.8215 13.078L24.4591 11.1535L22.0252 9.76065V16.3248L25.3869 18.2485L27.8215 19.6421V13.078ZM14.489 27.8702L22.9878 23.0472L27.236 20.637L21.4462 17.3233L14.78 21.1385L8.70427 24.6155L14.489 27.8702Z" fill="#FF2D20"/>
</g>
<defs>
<clipPath id="clip0_164_280">
<rect width="36" height="37" fill="white" transform="translate(0 0.172119)"/>
</clipPath>
</defs>
</svg>
