<svg width="20" height="20" viewBox="0 0 20 20" fill="none" xmlns="http://www.w3.org/2000/svg">
<g opacity="0.6">
<path d="M7.33294 9.99984C7.33294 10.3678 7.03496 10.6665 6.66632 10.6665H5.33308V11.9998C5.33308 12.3678 5.03511 12.6665 4.66647 12.6665C4.29783 12.6665 3.99985 12.3678 3.99985 11.9998V10.6665H2.66662C2.29798 10.6665 2 10.3678 2 9.99984C2 9.63185 2.29798 9.33319 2.66662 9.33319H3.99985V7.99988C3.99985 7.63189 4.29783 7.33323 4.66647 7.33323C5.03511 7.33323 5.33308 7.63189 5.33308 7.99988V9.33319H6.66632C7.03496 9.33319 7.33294 9.63185 7.33294 9.99984ZM3.99985 15.9997C3.99985 17.1044 4.89512 17.9997 5.9997 17.9997H7.33294V14.6664H3.99985V15.9997ZM3.99985 3.99996V5.33327H7.33294V2H5.9997C4.89512 2 3.99985 2.89532 3.99985 3.99996ZM8.66617 13.3331H11.9993V6.66657H8.66617V13.3331ZM8.66617 17.9997H9.9994C11.104 17.9997 11.9993 17.1044 11.9993 15.9997V14.6664H8.66617V17.9997ZM15.9596 6.06059L12.2259 6.7699L13.6718 14.0091L17.4055 13.2998L15.9596 6.06059ZM17.9755 16.205L17.6562 14.6097L13.9224 15.3191L14.2424 16.9164C14.3804 17.639 15.0784 18.1137 15.801 17.9763L16.9156 17.765C17.6395 17.6277 18.1135 16.929 17.9755 16.205ZM15.7096 4.75128L15.3917 3.08464C15.2543 2.36133 14.5564 1.88667 13.8331 2.024L12.7185 2.23533C12.2626 2.32199 11.9059 2.63199 11.7386 3.03065C11.3966 2.41866 10.7507 2 9.9994 2H8.66617V5.33327H12.6439L15.7096 4.75128Z" fill="#E8F3FF"/>
</g>
</svg>
