<svg width="38" height="35" viewBox="0 0 38 35" fill="none" xmlns="http://www.w3.org/2000/svg">
<path d="M22.6596 6.69217H22.693V7.85106H24.0172V3.08039C24.0172 2.73542 23.9505 2.42226 23.8185 2.14248C23.6866 1.86269 23.499 1.62425 23.2558 1.42552C23.0125 1.22681 22.7185 1.07579 22.3751 0.967692C22.0317 0.859596 21.6486 0.807129 21.2257 0.807129C20.8331 0.807129 20.4706 0.861186 20.1368 0.967692C19.803 1.07422 19.5152 1.22364 19.2688 1.41599C19.0224 1.60834 18.8285 1.83408 18.6854 2.0948C18.5424 2.35551 18.466 2.64004 18.4581 2.94687H19.7585C19.7886 2.79745 19.8443 2.66072 19.9254 2.53991C20.0049 2.41751 20.1082 2.31258 20.2322 2.22516C20.3562 2.13774 20.4993 2.07096 20.6614 2.02327C20.8235 1.97716 21 1.95332 21.1876 1.95332C21.6534 1.95332 22.0126 2.05824 22.267 2.26649C22.5213 2.47475 22.6485 2.78155 22.6485 3.18215V3.71945L20.7727 3.82756C19.9095 3.88321 19.2514 4.08351 18.7967 4.42689C18.342 4.77026 18.1147 5.24715 18.1147 5.8576C18.1147 6.16919 18.1719 6.45214 18.288 6.70649C18.4025 6.96084 18.5646 7.17705 18.7713 7.35667C18.9779 7.53631 19.2243 7.6746 19.5137 7.77316C19.8014 7.87172 20.1177 7.92101 20.4643 7.92101C20.6996 7.92101 20.9285 7.8924 21.1526 7.83517C21.3768 7.77795 21.5834 7.69528 21.7742 7.58878C21.9634 7.48227 22.1334 7.3519 22.2861 7.20089C22.4371 7.04985 22.5611 6.87975 22.6596 6.69217ZM22.1303 6.36945C21.9681 6.50934 21.7742 6.61904 21.5532 6.69692C21.3323 6.7748 21.0922 6.81455 20.8363 6.81455C20.4357 6.81455 20.1146 6.72712 19.8761 6.54907C19.6361 6.37261 19.5168 6.13417 19.5168 5.83531C19.5168 5.52849 19.6377 5.28846 19.8793 5.11518C20.1209 4.94349 20.4802 4.84175 20.9587 4.81155L22.6485 4.69551V5.23919C22.6485 5.46968 22.6024 5.68112 22.5102 5.87348C22.4196 6.06583 22.2924 6.23116 22.1303 6.36945Z" fill="#515151"/>
<path d="M31.8304 21.9041L29.5333 21.3302C26.7355 20.6244 25.5877 19.7103 25.5877 18.1651C25.5877 16.2066 27.4127 14.8522 30.0484 14.8522C32.7 14.8522 34.4804 16.1923 34.6871 18.3718H37.6757C37.558 14.7505 34.4963 12.2324 30.1088 12.2324C25.618 12.2324 22.4672 14.7362 22.4672 18.3432C22.4672 21.273 24.2476 23.055 28.1646 24.0263L30.8893 24.7035C33.6856 25.4094 34.8937 26.4411 34.8937 28.1484C34.8937 30.1212 32.905 31.5647 30.1374 31.5647C27.2521 31.5647 25.1458 30.1212 24.9105 27.9418H21.8917C22.1111 31.7554 25.2634 34.1845 29.9005 34.1845C34.8778 34.1845 37.9984 31.7252 38 27.7796C38 24.6876 36.2036 22.9644 31.8304 21.9041Z" fill="#515151"/>
<path d="M16.6378 7.85247V3.11361C16.6378 2.76705 16.5838 2.4523 16.4772 2.16934C16.3707 1.88637 16.2181 1.64473 16.0194 1.44604C15.8207 1.24733 15.5823 1.09472 15.3025 0.985014C15.0227 0.875329 14.7127 0.821289 14.3709 0.821289C14.1229 0.821289 13.8876 0.851488 13.6635 0.913491C13.4393 0.975495 13.2327 1.0645 13.0451 1.18215C12.8575 1.2998 12.6906 1.44286 12.5459 1.60819C12.4013 1.77353 12.2836 1.96111 12.1946 2.17094H12.1612C12.0214 1.73536 11.7829 1.40154 11.4475 1.16944C11.1136 0.937333 10.7019 0.821289 10.2155 0.821289C9.98974 0.821289 9.77355 0.849898 9.56847 0.907133C9.36499 0.964352 9.17582 1.04702 9.00572 1.15672C8.83403 1.26641 8.6846 1.39677 8.55425 1.55096C8.42389 1.70357 8.31738 1.88003 8.23632 2.07556H8.21089V0.897597H6.8851V7.85091H8.19659V3.58576C8.19659 3.36003 8.31104 3.15018 8.38099 2.95942C8.45253 2.76707 8.55427 2.60174 8.68461 2.46026C8.81498 2.32036 8.97075 2.21068 9.15198 2.13119C9.33479 2.0517 9.53191 2.01197 9.74492 2.01197C9.95001 2.01197 10.1344 2.04377 10.2997 2.10576C10.4635 2.16775 10.6049 2.2552 10.7194 2.37124C10.8355 2.48729 10.9229 2.6256 10.9849 2.78773C11.0469 2.94987 11.0787 3.13111 11.0787 3.33141V7.85249H12.4426V3.53647C12.4426 3.31391 12.4792 3.10884 12.5523 2.92126C12.6239 2.73367 12.724 2.57152 12.8528 2.43799C12.9799 2.30288 13.1341 2.19795 13.3106 2.12324C13.4886 2.04853 13.6842 2.01038 13.8972 2.01038C14.3328 2.01038 14.6682 2.13596 14.9019 2.38555C15.1371 2.63513 15.2548 2.98964 15.2548 3.44586V7.85249L16.6378 7.85247Z" fill="#515151"/>
<path d="M9.89418 12.2324C3.81364 12.2324 0 16.4721 0 23.2156C0 29.9591 3.81364 34.1845 9.89418 34.1845C15.9747 34.1845 19.7741 29.9575 19.7741 23.2156C19.7741 16.4721 15.9747 12.2324 9.89418 12.2324ZM9.89418 31.474C5.72761 31.474 3.12212 28.2788 3.12212 23.214C3.12212 18.1349 5.72761 14.9397 9.89418 14.9397C14.0464 14.9397 16.6678 18.1349 16.6662 23.214C16.6662 28.2788 14.0464 31.474 9.89418 31.474Z" fill="#515151"/>
<path d="M27.4159 2.6289C27.5781 2.42225 27.7736 2.26168 28.0025 2.14882C28.2299 2.03596 28.4858 1.97872 28.7672 1.97872C29.0072 1.97872 29.2202 2.01053 29.411 2.07728C29.6002 2.14246 29.7655 2.23308 29.907 2.34912C30.0469 2.46516 30.1597 2.60187 30.2456 2.75925C30.3314 2.91664 30.3918 3.08832 30.4252 3.27114H31.7494C31.7192 2.9389 31.6302 2.62254 31.4808 2.32369C31.3313 2.02483 31.1279 1.76412 30.8719 1.53998C30.616 1.31582 30.3108 1.13777 29.9531 1.00584C29.597 0.8739 29.1964 0.807129 28.7529 0.807129C28.2617 0.807129 27.815 0.891368 27.4144 1.05988C27.0138 1.22839 26.672 1.46844 26.3874 1.78001C26.1029 2.09158 25.8835 2.46675 25.7277 2.90392C25.5719 3.34268 25.494 3.8323 25.4972 4.37121C25.4972 4.92283 25.5751 5.41722 25.7309 5.85756C25.8867 6.29791 26.1076 6.67149 26.3938 6.97829C26.6799 7.2851 27.0249 7.52197 27.4255 7.68571C27.8277 7.84944 28.2744 7.9321 28.7704 7.9321C29.1885 7.9321 29.5731 7.8733 29.9229 7.75884C30.2726 7.64439 30.5762 7.48065 30.8354 7.26921C31.0929 7.05778 31.3027 6.80343 31.4649 6.50457C31.627 6.20571 31.7272 5.87505 31.7653 5.5126H30.4395C30.3537 5.92273 30.1693 6.23432 29.8831 6.44733C29.597 6.66035 29.2282 6.76685 28.7751 6.76685C28.4985 6.76685 28.2442 6.71122 28.0137 6.60313C27.7832 6.49503 27.5845 6.33765 27.4207 6.13258C27.2554 5.9275 27.1282 5.67793 27.0392 5.38066C26.9486 5.08498 26.9041 4.74796 26.9041 4.3728C26.9041 4.01035 26.9486 3.68129 27.0392 3.384C27.1282 3.08831 27.2538 2.83556 27.4159 2.6289Z" fill="#515151"/>
</svg>
