<svg width="20" height="20" viewBox="0 0 20 20" fill="none" xmlns="http://www.w3.org/2000/svg">
<g opacity="0.6">
<path d="M3.26946 14C3.82089 14.9571 5.0438 15.2859 6.00086 14.7344C6.00152 14.7341 6.00214 14.7337 6.0028 14.7333L6.29946 14.562C6.85946 15.0411 7.50314 15.4127 8.19811 15.658V16C8.19811 17.1046 9.09355 18 10.1981 18C11.3027 18 12.1981 17.1046 12.1981 16V15.658C12.8932 15.4123 13.5369 15.0403 14.0968 14.5607L14.3948 14.7327C15.352 15.2849 16.5758 14.9566 17.1281 13.9993C17.6804 13.042 17.3521 11.8182 16.3948 11.266L16.0988 11.0953C16.232 10.3703 16.232 9.62703 16.0988 8.90197L16.3948 8.73131C17.352 8.17903 17.6804 6.95528 17.1281 5.99797C16.5758 5.04069 15.3521 4.71234 14.3948 5.26463L14.0981 5.43597C13.5375 4.95744 12.8934 4.58656 12.1981 4.342V4C12.1981 2.89544 11.3027 2 10.1981 2C9.09355 2 8.19811 2.89544 8.19811 4V4.342C7.50305 4.58772 6.85933 4.95972 6.29946 5.43934L6.00146 5.26669C5.04414 4.71438 3.82039 5.04272 3.26811 6C2.71583 6.95728 3.04414 8.18106 4.00146 8.73334L4.29746 8.904C4.16421 9.62903 4.16421 10.3723 4.29746 11.0973L4.00146 11.268C3.0468 11.8217 2.71955 13.0431 3.26946 14ZM10.1981 7.33334C11.6709 7.33334 12.8648 8.52725 12.8648 10C12.8648 11.4727 11.6709 12.6667 10.1981 12.6667C8.72536 12.6667 7.53146 11.4727 7.53146 10C7.53146 8.52725 8.72536 7.33334 10.1981 7.33334Z" fill="#E8F3FF"/>
</g>
</svg>
