<svg width="48" height="48" viewBox="0 0 48 48" fill="none" xmlns="http://www.w3.org/2000/svg">
<path d="M0.763192 25.636C1.55759 25.7248 2.35439 25.804 3.14879 25.9024C3.82319 25.9888 4.49759 26.0824 5.16959 26.2C6.14879 26.3728 7.12799 26.5528 8.09759 26.7688C9.11999 26.9944 10.1424 27.2272 11.1432 27.5272C12.7416 28.0048 14.3496 28.4656 15.9024 29.0656C17.856 29.8216 19.764 30.6952 21.6744 31.552C22.4328 31.8928 23.16 32.3104 23.8848 32.7232C24.1752 32.8888 24.4056 32.8912 24.7008 32.7376C26.7552 31.6768 28.8672 30.7504 31.0248 29.9224C33.744 28.8784 36.5208 28.0096 39.3576 27.3424C40.8696 26.9872 42.4008 26.7112 43.9272 26.4304C44.9064 26.2504 45.8928 26.1232 46.8768 25.9768C46.9992 25.9576 47.1264 25.9744 47.2704 26.0464C46.9848 26.2144 46.7016 26.3848 46.416 26.5504C43.6896 28.1296 41.1216 29.9368 38.6904 31.936C35.9328 34.204 33.4128 36.712 31.1112 39.4408C29.2248 41.6776 27.5664 44.0752 25.9776 46.528C24.984 48.0616 22.86 47.8456 22.0176 46.4008C20.8584 44.4136 19.5768 42.508 18.1776 40.6792C16.6536 38.6896 15.0048 36.808 13.2216 35.0488C9.80639 31.6816 6.02159 28.7968 1.86479 26.404C1.56479 26.2312 1.26479 26.0632 0.964793 25.888C0.880792 25.84 0.803992 25.78 0.724792 25.7272C0.739192 25.696 0.751192 25.6648 0.763192 25.636Z" fill="#1B84FF"/>
<path d="M13.6344 17.7664C13.6272 17.6392 13.6128 17.5144 13.6128 17.3872C13.6104 15.6256 13.6032 13.864 13.6176 12.1024C13.62 11.8 13.5216 11.6464 13.248 11.5288C10.8144 10.4752 8.38318 9.40961 5.95198 8.34641C5.63998 8.20961 5.33278 8.06801 4.93918 7.89281C5.17438 7.78241 5.31358 7.70561 5.45998 7.65041C7.23358 6.96161 9.00718 6.27281 10.7808 5.58641C12.7056 4.84241 14.6328 4.10321 16.56 3.35681C18.3216 2.67521 20.0784 1.97921 21.8472 1.31201C23.0496 0.858409 24.3072 0.664009 25.5888 0.798409C26.664 0.911209 27.6768 1.27841 28.6848 1.67201C31.8384 2.90321 34.9992 4.11281 38.1552 5.33441C40.1664 6.11201 42.1776 6.89441 44.1864 7.67681C44.3064 7.72241 44.4192 7.78481 44.6136 7.87841C44.4528 7.96001 44.364 8.01521 44.268 8.05121C41.388 9.16961 38.5128 10.3 35.6232 11.392C35.088 11.596 34.8504 11.8288 34.8216 12.4576C34.7496 14.1016 34.5552 15.7384 34.4064 17.3776C34.3968 17.476 34.368 17.572 34.3224 17.6752C33.7464 14.9152 32.3904 12.6472 30.108 10.9864C27.816 9.31841 25.2456 8.65121 22.4376 9.08561C18.0816 9.76001 14.4912 13.1824 13.6344 17.7664Z" fill="#1B84FF"/>
<path d="M23.928 28.6527C19.3704 28.6503 15.7224 25.0023 15.732 20.4399C15.7416 15.9399 19.3992 12.2583 23.9448 12.2703C28.4904 12.2823 32.1192 15.9567 32.1288 20.4735C32.1384 25.0767 28.3128 28.7151 23.928 28.6527Z" fill="#1B84FF"/>
</svg>
