<svg width="81" height="81" viewBox="0 0 81 81" fill="none" xmlns="http://www.w3.org/2000/svg">
<g clip-path="url(#clip0_78_348)">
<path d="M67.7772 67.9579C82.8467 52.8884 82.8467 28.4559 67.7772 13.3863C52.7077 -1.68318 28.2752 -1.68318 13.2056 13.3863C-1.86388 28.4559 -1.86388 52.8884 13.2056 67.9579C28.2752 83.0274 52.7077 83.0274 67.7772 67.9579Z" fill="#64B5F6"/>
<path fill-rule="evenodd" clip-rule="evenodd" d="M40.4999 2.07837L40.4996 40.6723L75.9458 55.9635C77.9714 51.2748 79.0938 46.1045 79.0938 40.6721C79.0938 19.3574 61.8147 2.07837 40.4999 2.07837Z" fill="#FFDA2D"/>
<path fill-rule="evenodd" clip-rule="evenodd" d="M75.9458 55.9634L40.4998 40.6719L17.3245 71.5355C23.7781 76.3891 31.8031 79.2658 40.5 79.2658C56.3823 79.2658 70.0241 69.672 75.9458 55.9634Z" fill="#72D561"/>
<path d="M40.5 68.0156C55.6015 68.0156 67.8438 55.7734 67.8438 40.6719C67.8438 25.5703 55.6015 13.3281 40.5 13.3281C25.3985 13.3281 13.1562 25.5703 13.1562 40.6719C13.1562 55.7734 25.3985 68.0156 40.5 68.0156Z" fill="#EFF4F7"/>
<path fill-rule="evenodd" clip-rule="evenodd" d="M33.4581 47.3516C32.9344 43.5325 29.6367 40.5657 25.6799 40.5657C21.7228 40.5657 18.4252 43.5325 17.9014 47.3516C17.8633 47.6296 17.9394 47.8836 18.1238 48.0952C18.3081 48.3066 18.5497 48.4165 18.8303 48.4165H32.5292C32.8099 48.4165 33.0514 48.3066 33.2358 48.0952C33.4202 47.8838 33.4963 47.6296 33.4581 47.3516Z" fill="#64B5F6"/>
<path d="M25.6798 39.0033C28.0232 39.0033 29.923 37.1036 29.923 34.7602C29.923 32.4168 28.0232 30.5171 25.6798 30.5171C23.3364 30.5171 21.4367 32.4168 21.4367 34.7602C21.4367 37.1036 23.3364 39.0033 25.6798 39.0033Z" fill="#FFD6BD"/>
<path fill-rule="evenodd" clip-rule="evenodd" d="M63.0985 47.3516C62.5747 43.5325 59.2771 40.5657 55.3202 40.5657C51.3632 40.5657 48.0655 43.5325 47.5419 47.3516C47.5038 47.6296 47.5799 47.8836 47.7643 48.0952C47.9486 48.3066 48.1902 48.4165 48.4708 48.4165H62.1697C62.4504 48.4165 62.6918 48.3066 62.8763 48.0952C63.0607 47.8838 63.1368 47.6296 63.0985 47.3516Z" fill="#FFDA2D"/>
<path d="M55.3202 39.0033C57.6636 39.0033 59.5633 37.1036 59.5633 34.7602C59.5633 32.4168 57.6636 30.5171 55.3202 30.5171C52.9768 30.5171 51.0771 32.4168 51.0771 34.7602C51.0771 37.1036 52.9768 39.0033 55.3202 39.0033Z" fill="#FFD6BD"/>
<path fill-rule="evenodd" clip-rule="evenodd" d="M48.3442 59.4588C47.8205 55.6397 44.5228 52.6729 40.566 52.6729C36.6091 52.6729 33.3113 55.6397 32.7875 59.4588C32.7494 59.7368 32.8255 59.9908 33.0099 60.2024C33.1942 60.4138 33.4358 60.5236 33.7164 60.5236H47.4153C47.696 60.5236 47.9374 60.4138 48.1219 60.2024C48.3063 59.991 48.3824 59.7368 48.3442 59.4588Z" fill="#72D561"/>
<path d="M40.5659 51.1103C42.9094 51.1103 44.8091 49.2106 44.8091 46.8671C44.8091 44.5237 42.9094 42.624 40.5659 42.624C38.2225 42.624 36.3228 44.5237 36.3228 46.8671C36.3228 49.2106 38.2225 51.1103 40.5659 51.1103Z" fill="#FFD6BD"/>
<path fill-rule="evenodd" clip-rule="evenodd" d="M48.3442 35.2444C47.8205 31.4254 44.5228 28.4585 40.566 28.4585C36.6091 28.4585 33.3113 31.4254 32.7875 35.2444C32.7494 35.5224 32.8255 35.7765 33.0099 35.988C33.1942 36.1994 33.4358 36.3093 33.7164 36.3093H47.4153C47.696 36.3093 47.9374 36.1994 48.1219 35.988C48.3063 35.7766 48.3824 35.5224 48.3442 35.2444Z" fill="#FC685B"/>
<path d="M40.5659 26.8959C42.9094 26.8959 44.8091 24.9962 44.8091 22.6528C44.8091 20.3094 42.9094 18.4097 40.5659 18.4097C38.2225 18.4097 36.3228 20.3094 36.3228 22.6528C36.3228 24.9962 38.2225 26.8959 40.5659 26.8959Z" fill="#FFD6BD"/>
</g>
<defs>
<clipPath id="clip0_78_348">
<rect width="80" height="80" fill="white" transform="translate(0.5 0.672119)"/>
</clipPath>
</defs>
</svg>
