<svg width="643" height="563" viewBox="0 0 643 563" fill="none" xmlns="http://www.w3.org/2000/svg">
<circle cx="329.808" cy="258.953" r="244.875" stroke="#A7CEFC" stroke-width="1.81132" stroke-dasharray="13.58 13.58"/>
<circle cx="329.809" cy="258.953" r="142.993" stroke="#A7CEFC" stroke-width="1.81132" stroke-dasharray="13.58 13.58"/>
<circle cx="474" cy="259.172" r="10" fill="#FF5758"/>
<g filter="url(#filter0_d_164_243)">
<ellipse cx="330" cy="402.672" rx="38" ry="37.5" fill="white"/>
</g>
<g clip-path="url(#clip0_164_243)">
<path d="M323.376 407.566C324.998 407.566 326.313 408.879 326.313 410.5V423.085C326.313 424.705 324.998 426.018 323.376 426.018C321.755 426.018 320.44 424.705 320.44 423.085V410.5C320.44 408.88 321.755 407.566 323.376 407.566V407.566Z" fill="#8EB31A"/>
<path d="M316.673 392.435C316.663 392.546 316.654 392.659 316.654 392.772V411.84C316.654 413.89 318.279 415.542 320.296 415.542H339.704C341.721 415.542 343.345 413.89 343.345 411.84V392.772C343.345 392.659 343.341 392.546 343.332 392.435H316.673Z" fill="#8EB31A"/>
<path d="M336.624 407.566C338.245 407.566 339.56 408.879 339.56 410.5V423.084C339.56 424.705 338.245 426.018 336.624 426.018C335.002 426.018 333.688 424.705 333.688 423.084V410.5C333.688 408.879 335.002 407.566 336.624 407.566V407.566ZM311.936 394.132C313.558 394.132 314.873 395.446 314.873 397.066V409.651C314.873 411.271 313.558 412.584 311.936 412.584C310.315 412.584 309 411.271 309 409.651V397.066C309 395.446 310.315 394.132 311.936 394.132ZM348.064 394.132C349.685 394.132 351 395.446 351 397.066V409.651C351 411.271 349.685 412.584 348.064 412.584C346.442 412.584 345.127 411.271 345.127 409.651V397.066C345.127 395.446 346.442 394.132 348.064 394.132ZM316.758 391.183C316.84 385.326 321.956 380.524 328.524 379.891H331.475C338.043 380.524 343.159 385.326 343.241 391.183H316.758Z" fill="#8EB31A"/>
<path d="M317.78 379.326L320.877 384.686M342.22 379.326L339.123 384.686" stroke="#8EB31A" stroke-width="1.31493" stroke-linecap="round" stroke-linejoin="round"/>
<path d="M326.055 385.934C326.058 386.753 325.38 387.419 324.54 387.421C323.702 387.423 323.019 386.761 323.017 385.943V385.934C323.015 385.115 323.693 384.45 324.532 384.448C325.371 384.445 326.053 385.107 326.055 385.926V385.934ZM337.395 385.934C337.398 386.753 336.719 387.419 335.88 387.421C335.041 387.423 334.359 386.761 334.357 385.943V385.934C334.355 385.115 335.033 384.45 335.872 384.448C336.711 384.445 337.393 385.107 337.395 385.926V385.934Z" fill="white"/>
</g>
<circle cx="186" cy="259.172" r="15" fill="#37A3FF"/>
<circle cx="480" cy="454.172" r="9" fill="#00CA75"/>
<circle cx="397" cy="23.1721" r="8" fill="#FFDC4D"/>
<circle cx="119" cy="381.172" r="8" fill="#FFBF60"/>
<g filter="url(#filter1_d_164_243)">
<circle cx="185.5" cy="461.672" r="30.5" fill="white"/>
</g>
<path d="M189.66 450.692H189.693V451.851H191.017V447.08C191.017 446.735 190.95 446.422 190.819 446.142C190.687 445.863 190.499 445.624 190.256 445.426C190.013 445.227 189.718 445.076 189.375 444.968C189.032 444.86 188.649 444.807 188.226 444.807C187.833 444.807 187.471 444.861 187.137 444.968C186.803 445.074 186.515 445.224 186.269 445.416C186.022 445.608 185.828 445.834 185.685 446.095C185.542 446.356 185.466 446.64 185.458 446.947H186.758C186.789 446.797 186.844 446.661 186.925 446.54C187.005 446.418 187.108 446.313 187.232 446.225C187.356 446.138 187.499 446.071 187.661 446.023C187.824 445.977 188 445.953 188.188 445.953C188.653 445.953 189.013 446.058 189.267 446.266C189.521 446.475 189.649 446.782 189.649 447.182V447.719L187.773 447.828C186.909 447.883 186.251 448.084 185.797 448.427C185.342 448.77 185.115 449.247 185.115 449.858C185.115 450.169 185.172 450.452 185.288 450.706C185.402 450.961 185.565 451.177 185.771 451.357C185.978 451.536 186.224 451.675 186.514 451.773C186.801 451.872 187.118 451.921 187.464 451.921C187.7 451.921 187.928 451.892 188.153 451.835C188.377 451.778 188.583 451.695 188.774 451.589C188.963 451.482 189.133 451.352 189.286 451.201C189.437 451.05 189.561 450.88 189.66 450.692ZM189.13 450.369C188.968 450.509 188.774 450.619 188.553 450.697C188.332 450.775 188.092 450.815 187.836 450.815C187.436 450.815 187.115 450.727 186.876 450.549C186.636 450.373 186.517 450.134 186.517 449.835C186.517 449.528 186.638 449.288 186.879 449.115C187.121 448.943 187.48 448.842 187.959 448.812L189.649 448.696V449.239C189.649 449.47 189.602 449.681 189.51 449.873C189.42 450.066 189.292 450.231 189.13 450.369Z" fill="#515151"/>
<path d="M198.83 465.904L196.533 465.33C193.735 464.624 192.588 463.71 192.588 462.165C192.588 460.207 194.413 458.852 197.048 458.852C199.7 458.852 201.48 460.192 201.687 462.372H204.676C204.558 458.75 201.496 456.232 197.109 456.232C192.618 456.232 189.467 458.736 189.467 462.343C189.467 465.273 191.248 467.055 195.165 468.026L197.889 468.704C200.686 469.409 201.894 470.441 201.894 472.148C201.894 474.121 199.905 475.565 197.137 475.565C194.252 475.565 192.146 474.121 191.911 471.942H188.892C189.111 475.755 192.263 478.184 196.901 478.184C201.878 478.184 204.998 475.725 205 471.78C205 468.688 203.204 466.964 198.83 465.904Z" fill="#515151"/>
<path d="M183.638 451.852V447.114C183.638 446.767 183.584 446.452 183.477 446.169C183.371 445.886 183.218 445.645 183.019 445.446C182.821 445.247 182.582 445.095 182.302 444.985C182.023 444.875 181.713 444.821 181.371 444.821C181.123 444.821 180.888 444.851 180.663 444.913C180.439 444.975 180.233 445.065 180.045 445.182C179.858 445.3 179.691 445.443 179.546 445.608C179.401 445.774 179.284 445.961 179.195 446.171H179.161C179.021 445.735 178.783 445.402 178.447 445.169C178.114 444.937 177.702 444.821 177.215 444.821C176.99 444.821 176.774 444.85 176.568 444.907C176.365 444.964 176.176 445.047 176.006 445.157C175.834 445.266 175.685 445.397 175.554 445.551C175.424 445.704 175.317 445.88 175.236 446.076H175.211V444.898H173.885V451.851H175.197V447.586C175.197 447.36 175.311 447.15 175.381 446.959C175.453 446.767 175.554 446.602 175.685 446.46C175.815 446.32 175.971 446.211 176.152 446.131C176.335 446.052 176.532 446.012 176.745 446.012C176.95 446.012 177.134 446.044 177.3 446.106C177.463 446.168 177.605 446.255 177.719 446.371C177.835 446.487 177.923 446.626 177.985 446.788C178.047 446.95 178.079 447.131 178.079 447.331V451.852H179.443V447.536C179.443 447.314 179.479 447.109 179.552 446.921C179.624 446.734 179.724 446.572 179.853 446.438C179.98 446.303 180.134 446.198 180.311 446.123C180.489 446.049 180.684 446.01 180.897 446.01C181.333 446.01 181.668 446.136 181.902 446.386C182.137 446.635 182.255 446.99 182.255 447.446V451.852L183.638 451.852Z" fill="#515151"/>
<path d="M176.894 456.232C170.814 456.232 167 460.472 167 467.216C167 473.959 170.814 478.184 176.894 478.184C182.975 478.184 186.774 473.957 186.774 467.216C186.774 460.472 182.975 456.232 176.894 456.232ZM176.894 475.474C172.728 475.474 170.122 472.279 170.122 467.214C170.122 462.135 172.728 458.94 176.894 458.94C181.046 458.94 183.668 462.135 183.666 467.214C183.666 472.279 181.046 475.474 176.894 475.474Z" fill="#515151"/>
<path d="M194.416 446.629C194.578 446.422 194.774 446.262 195.003 446.149C195.23 446.036 195.486 445.979 195.767 445.979C196.007 445.979 196.22 446.011 196.411 446.077C196.6 446.142 196.766 446.233 196.907 446.349C197.047 446.465 197.16 446.602 197.246 446.759C197.331 446.917 197.392 447.088 197.425 447.271H198.749C198.719 446.939 198.63 446.623 198.481 446.324C198.331 446.025 198.128 445.764 197.872 445.54C197.616 445.316 197.311 445.138 196.953 445.006C196.597 444.874 196.196 444.807 195.753 444.807C195.262 444.807 194.815 444.891 194.414 445.06C194.014 445.228 193.672 445.468 193.387 445.78C193.103 446.092 192.884 446.467 192.728 446.904C192.572 447.343 192.494 447.832 192.497 448.371C192.497 448.923 192.575 449.417 192.731 449.858C192.887 450.298 193.108 450.671 193.394 450.978C193.68 451.285 194.025 451.522 194.425 451.686C194.828 451.849 195.274 451.932 195.77 451.932C196.188 451.932 196.573 451.873 196.923 451.759C197.273 451.644 197.576 451.481 197.835 451.269C198.093 451.058 198.303 450.803 198.465 450.505C198.627 450.206 198.727 449.875 198.765 449.513H197.44C197.354 449.923 197.169 450.234 196.883 450.447C196.597 450.66 196.228 450.767 195.775 450.767C195.499 450.767 195.244 450.711 195.014 450.603C194.783 450.495 194.584 450.338 194.421 450.133C194.255 449.927 194.128 449.678 194.039 449.381C193.949 449.085 193.904 448.748 193.904 448.373C193.904 448.01 193.949 447.681 194.039 447.384C194.128 447.088 194.254 446.836 194.416 446.629Z" fill="#515151"/>
<g filter="url(#filter2_d_164_243)">
<circle cx="188.142" cy="56.3046" r="26.0282" fill="white"/>
</g>
<g clip-path="url(#clip1_164_243)">
<path d="M173 45.4171L185.26 43.7542L185.265 55.5328L173.011 55.6022L173 45.4172V45.4171ZM185.254 56.8898L185.264 68.6786L173.009 67.0005L173.009 56.8107L185.254 56.8898ZM186.74 43.5366L202.996 41.1736V55.3829L186.74 55.5113V43.5366ZM203 57.0006L202.996 71.1459L186.74 68.8608L186.718 56.9742L203 57.0006Z" fill="#00ADEF"/>
</g>
<g filter="url(#filter3_d_164_243)">
<rect x="292.566" y="222.027" width="74.3662" height="74.3662" rx="9.05661" fill="white"/>
</g>
<path d="M306.763 260.636C307.558 260.725 308.354 260.804 309.149 260.902C309.823 260.989 310.498 261.082 311.17 261.2C312.149 261.373 313.128 261.553 314.098 261.769C315.12 261.994 316.142 262.227 317.143 262.527C318.742 263.005 320.35 263.466 321.902 264.066C323.856 264.822 325.764 265.695 327.674 266.552C328.433 266.893 329.16 267.31 329.885 267.723C330.175 267.889 330.406 267.891 330.701 267.738C332.755 266.677 334.867 265.75 337.025 264.922C339.744 263.878 342.521 263.01 345.358 262.342C346.87 261.987 348.401 261.711 349.927 261.43C350.906 261.25 351.893 261.123 352.877 260.977C352.999 260.958 353.126 260.974 353.27 261.046C352.985 261.214 352.702 261.385 352.416 261.55C349.69 263.13 347.122 264.937 344.69 266.936C341.933 269.204 339.413 271.712 337.111 274.441C335.225 276.678 333.566 279.075 331.978 281.528C330.984 283.062 328.86 282.846 328.018 281.401C326.858 279.414 325.577 277.508 324.178 275.679C322.654 273.69 321.005 271.808 319.222 270.049C315.806 266.682 312.022 263.797 307.865 261.404C307.565 261.231 307.265 261.063 306.965 260.888C306.881 260.84 306.804 260.78 306.725 260.727C306.739 260.696 306.751 260.665 306.763 260.636Z" fill="#1B84FF"/>
<path d="M319.634 252.766C319.627 252.639 319.613 252.514 319.613 252.387C319.61 250.626 319.603 248.864 319.618 247.102C319.62 246.8 319.522 246.646 319.248 246.529C316.814 245.475 314.383 244.41 311.952 243.346C311.64 243.21 311.333 243.068 310.939 242.893C311.174 242.782 311.314 242.706 311.46 242.65C313.234 241.962 315.007 241.273 316.781 240.586C318.706 239.842 320.633 239.103 322.56 238.357C324.322 237.675 326.078 236.979 327.847 236.312C329.05 235.858 330.307 235.664 331.589 235.798C332.664 235.911 333.677 236.278 334.685 236.672C337.838 237.903 340.999 239.113 344.155 240.334C346.166 241.112 348.178 241.894 350.186 242.677C350.306 242.722 350.419 242.785 350.614 242.878C350.453 242.96 350.364 243.015 350.268 243.051C347.388 244.17 344.513 245.3 341.623 246.392C341.088 246.596 340.85 246.829 340.822 247.458C340.75 249.102 340.555 250.738 340.406 252.378C340.397 252.476 340.368 252.572 340.322 252.675C339.746 249.915 338.39 247.647 336.108 245.986C333.816 244.318 331.246 243.651 328.438 244.086C324.082 244.76 320.491 248.182 319.634 252.766Z" fill="#1B84FF"/>
<path d="M329.928 263.653C325.37 263.65 321.722 260.002 321.732 255.44C321.742 250.94 325.399 247.258 329.945 247.27C334.49 247.282 338.119 250.957 338.129 255.473C338.138 260.077 334.313 263.715 329.928 263.653Z" fill="#1B84FF"/>
<g filter="url(#filter4_d_164_243)">
<circle cx="84" cy="259.172" r="34" fill="white"/>
</g>
<g clip-path="url(#clip2_164_243)">
<path d="M103.916 248.614C103.929 248.663 103.936 248.713 103.936 248.764V256.658C103.936 256.759 103.909 256.859 103.858 256.946C103.807 257.034 103.733 257.107 103.645 257.157L96.9802 260.972V268.532C96.9802 268.738 96.8702 268.928 96.6907 269.031L82.7785 276.993C82.7467 277.011 82.7119 277.022 82.6772 277.034C82.6642 277.039 82.6519 277.047 82.6381 277.05C82.5409 277.076 82.4386 277.076 82.3414 277.05C82.3255 277.046 82.311 277.037 82.2958 277.032C82.264 277.02 82.2307 277.01 82.2003 276.993L68.2909 269.031C68.2026 268.981 68.1292 268.908 68.0781 268.821C68.027 268.733 68.0001 268.633 68 268.532V244.851C68 244.799 68.0072 244.749 68.0203 244.7C68.0246 244.684 68.0347 244.668 68.0405 244.652C68.0514 244.622 68.0615 244.591 68.0774 244.563C68.0883 244.544 68.1042 244.529 68.1172 244.512C68.1339 244.489 68.1491 244.465 68.1686 244.445C68.1853 244.428 68.207 244.416 68.2258 244.402C68.2468 244.384 68.2656 244.366 68.2895 244.352L75.2452 240.371C75.3333 240.321 75.4331 240.294 75.5347 240.294C75.6363 240.294 75.7362 240.321 75.8242 240.371L82.7792 244.352H82.7807C82.8039 244.366 82.8234 244.384 82.8444 244.401C82.8632 244.415 82.8842 244.428 82.9008 244.444C82.9211 244.465 82.9356 244.489 82.9529 244.512C82.9652 244.529 82.9819 244.544 82.992 244.563C83.0087 244.592 83.0181 244.622 83.0297 244.652C83.0354 244.668 83.0456 244.684 83.0499 244.701C83.0632 244.75 83.0701 244.8 83.0702 244.851V259.642L88.8658 256.325V248.764C88.8658 248.713 88.873 248.662 88.8861 248.614C88.8911 248.597 88.9005 248.581 88.9063 248.565C88.9179 248.535 88.928 248.504 88.944 248.476C88.9548 248.457 88.9707 248.442 88.983 248.425C89.0004 248.402 89.0149 248.378 89.0351 248.358C89.0518 248.341 89.0728 248.329 89.0916 248.315C89.1133 248.297 89.1321 248.279 89.1553 248.265L96.1118 244.284C96.1998 244.234 96.2996 244.207 96.4012 244.207C96.5029 244.207 96.6027 244.234 96.6907 244.284L103.646 248.265C103.67 248.279 103.689 248.297 103.711 248.314C103.729 248.328 103.75 248.341 103.767 248.357C103.787 248.378 103.801 248.402 103.819 248.425C103.832 248.442 103.848 248.457 103.858 248.476C103.874 248.504 103.884 248.535 103.895 248.565C103.902 248.581 103.911 248.597 103.916 248.614ZM102.777 256.325V249.761L100.343 251.153L96.9802 253.078V259.642L102.777 256.325H102.777ZM95.8215 268.199V261.631L92.5141 263.508L83.0695 268.867V275.497L95.8215 268.199ZM69.1594 245.848V268.199L81.91 275.496V268.867L75.2489 265.12L75.2467 265.118L75.2438 265.117C75.2214 265.104 75.2025 265.085 75.1816 265.069C75.1635 265.055 75.1425 265.044 75.1265 265.028L75.1251 265.026C75.1063 265.008 75.0933 264.985 75.0773 264.965C75.0629 264.946 75.0455 264.929 75.0339 264.909L75.0332 264.907C75.0202 264.885 75.0122 264.859 75.0028 264.835C74.9934 264.813 74.9811 264.793 74.9753 264.77C74.9681 264.743 74.9666 264.713 74.9637 264.685C74.9608 264.664 74.955 264.642 74.955 264.621V249.165L71.5933 247.24L69.1594 245.848ZM75.5355 241.535L69.7406 244.851L75.534 248.167L81.3282 244.851L75.534 241.535H75.5355ZM78.5491 262.229L81.9108 260.305V245.848L79.4769 247.24L76.1144 249.165V263.623L78.5491 262.229ZM96.4012 245.448L90.6071 248.764L96.4012 252.08L102.195 248.764L96.4012 245.448ZM95.8215 253.078L92.4591 251.153L90.0252 249.761V256.325L93.3869 258.249L95.8215 259.642V253.078ZM82.489 267.87L90.9878 263.047L95.236 260.637L89.4462 257.323L82.78 261.138L76.7043 264.616L82.489 267.87Z" fill="#FF2D20"/>
</g>
<g filter="url(#filter5_d_164_243)">
<circle cx="331" cy="115.172" r="33" fill="white"/>
</g>
<g clip-path="url(#clip3_164_243)">
<path fill-rule="evenodd" clip-rule="evenodd" d="M333.953 137.137L322.216 125.327L328.703 118.643L347 137.137H333.953Z" fill="#02539A"/>
<path fill-rule="evenodd" clip-rule="evenodd" d="M322.071 125.337L333.704 113.555H346.783L328.685 131.883L322.071 125.337Z" fill="#45D1FD" fill-opacity="0.85"/>
<path fill-rule="evenodd" clip-rule="evenodd" d="M312 115.06L318.605 121.744L346.783 93.2073H333.636L312 115.06Z" fill="#45D1FD"/>
</g>
<g filter="url(#filter6_d_164_243)">
<circle cx="560" cy="337.172" r="33" fill="white"/>
</g>
<g clip-path="url(#clip4_164_243)">
<path d="M560.301 328.398C562.156 328.398 563.784 327.665 565.184 326.198C566.584 324.732 567.284 323.027 567.284 321.082C567.284 320.869 567.267 320.565 567.234 320.172C566.989 320.206 566.806 320.234 566.684 320.256C564.973 320.504 563.467 321.352 562.167 322.802C560.867 324.251 560.217 325.802 560.217 327.454C560.217 327.645 560.245 327.96 560.301 328.398ZM566.95 354.172C568.272 354.172 569.734 353.256 571.333 351.424C572.933 349.593 574.156 347.441 575 344.968C571.856 343.328 570.283 340.973 570.283 337.905C570.283 335.343 571.556 333.152 574.1 331.331C572.333 329.095 570 327.977 567.1 327.977C565.878 327.977 564.762 328.162 563.75 328.533L563.117 328.769L562.267 329.106C561.712 329.32 561.206 329.426 560.751 329.426C560.395 329.426 559.928 329.303 559.351 329.056L558.701 328.786L558.084 328.533C557.184 328.151 556.218 327.96 555.184 327.96C552.418 327.96 550.196 328.904 548.518 330.792C546.84 332.68 546.001 335.169 546.001 338.259C546.001 342.608 547.346 346.626 550.034 350.312C551.901 352.885 553.607 354.172 555.151 354.172C555.806 354.172 556.456 354.043 557.101 353.784L557.917 353.447L558.567 353.211C559.478 352.885 560.317 352.722 561.084 352.722C561.895 352.722 562.828 352.93 563.884 353.346L564.4 353.548C565.478 353.964 566.328 354.172 566.95 354.172Z" fill="black"/>
</g>
<g filter="url(#filter7_d_164_243)">
<circle cx="540" cy="140.172" r="32" fill="white"/>
</g>
<g clip-path="url(#clip5_164_243)">
<path d="M540.5 158.172C550.165 158.172 558 150.337 558 140.672C558 131.007 550.165 123.172 540.5 123.172C530.834 123.172 523 131.007 523 140.672C523 150.337 530.835 158.172 540.5 158.172Z" fill="#2196F3"/>
<path fill-rule="evenodd" clip-rule="evenodd" d="M533.269 145.674H544.843V137.187C544.843 135.908 543.807 134.872 542.529 134.872H530.954V143.359C530.954 144.637 531.991 145.674 533.269 145.674ZM546.386 142.588L551.015 145.674V134.872L546.387 137.958L546.386 142.588Z" fill="white"/>
</g>
<defs>
<filter id="filter0_d_164_243" x="242" y="335.172" width="176" height="175" filterUnits="userSpaceOnUse" color-interpolation-filters="sRGB">
<feFlood flood-opacity="0" result="BackgroundImageFix"/>
<feColorMatrix in="SourceAlpha" type="matrix" values="0 0 0 0 0 0 0 0 0 0 0 0 0 0 0 0 0 0 127 0" result="hardAlpha"/>
<feOffset dy="20"/>
<feGaussianBlur stdDeviation="25"/>
<feComposite in2="hardAlpha" operator="out"/>
<feColorMatrix type="matrix" values="0 0 0 0 0 0 0 0 0 0 0 0 0 0 0 0 0 0 0.15 0"/>
<feBlend mode="normal" in2="BackgroundImageFix" result="effect1_dropShadow_164_243"/>
<feBlend mode="normal" in="SourceGraphic" in2="effect1_dropShadow_164_243" result="shape"/>
</filter>
<filter id="filter1_d_164_243" x="105" y="401.172" width="161" height="161" filterUnits="userSpaceOnUse" color-interpolation-filters="sRGB">
<feFlood flood-opacity="0" result="BackgroundImageFix"/>
<feColorMatrix in="SourceAlpha" type="matrix" values="0 0 0 0 0 0 0 0 0 0 0 0 0 0 0 0 0 0 127 0" result="hardAlpha"/>
<feOffset dy="20"/>
<feGaussianBlur stdDeviation="25"/>
<feComposite in2="hardAlpha" operator="out"/>
<feColorMatrix type="matrix" values="0 0 0 0 0 0 0 0 0 0 0 0 0 0 0 0 0 0 0.15 0"/>
<feBlend mode="normal" in2="BackgroundImageFix" result="effect1_dropShadow_164_243"/>
<feBlend mode="normal" in="SourceGraphic" in2="effect1_dropShadow_164_243" result="shape"/>
</filter>
<filter id="filter2_d_164_243" x="112.113" y="0.276367" width="152.056" height="152.056" filterUnits="userSpaceOnUse" color-interpolation-filters="sRGB">
<feFlood flood-opacity="0" result="BackgroundImageFix"/>
<feColorMatrix in="SourceAlpha" type="matrix" values="0 0 0 0 0 0 0 0 0 0 0 0 0 0 0 0 0 0 127 0" result="hardAlpha"/>
<feOffset dy="20"/>
<feGaussianBlur stdDeviation="25"/>
<feComposite in2="hardAlpha" operator="out"/>
<feColorMatrix type="matrix" values="0 0 0 0 0 0 0 0 0 0 0 0 0 0 0 0 0 0 0.15 0"/>
<feBlend mode="normal" in2="BackgroundImageFix" result="effect1_dropShadow_164_243"/>
<feBlend mode="normal" in="SourceGraphic" in2="effect1_dropShadow_164_243" result="shape"/>
</filter>
<filter id="filter3_d_164_243" x="272.566" y="208.027" width="114.366" height="114.366" filterUnits="userSpaceOnUse" color-interpolation-filters="sRGB">
<feFlood flood-opacity="0" result="BackgroundImageFix"/>
<feColorMatrix in="SourceAlpha" type="matrix" values="0 0 0 0 0 0 0 0 0 0 0 0 0 0 0 0 0 0 127 0" result="hardAlpha"/>
<feOffset dy="6"/>
<feGaussianBlur stdDeviation="10"/>
<feComposite in2="hardAlpha" operator="out"/>
<feColorMatrix type="matrix" values="0 0 0 0 0 0 0 0 0 0 0 0 0 0 0 0 0 0 0.1 0"/>
<feBlend mode="normal" in2="BackgroundImageFix" result="effect1_dropShadow_164_243"/>
<feBlend mode="normal" in="SourceGraphic" in2="effect1_dropShadow_164_243" result="shape"/>
</filter>
<filter id="filter4_d_164_243" x="0" y="195.172" width="168" height="168" filterUnits="userSpaceOnUse" color-interpolation-filters="sRGB">
<feFlood flood-opacity="0" result="BackgroundImageFix"/>
<feColorMatrix in="SourceAlpha" type="matrix" values="0 0 0 0 0 0 0 0 0 0 0 0 0 0 0 0 0 0 127 0" result="hardAlpha"/>
<feOffset dy="20"/>
<feGaussianBlur stdDeviation="25"/>
<feComposite in2="hardAlpha" operator="out"/>
<feColorMatrix type="matrix" values="0 0 0 0 0 0 0 0 0 0 0 0 0 0 0 0 0 0 0.15 0"/>
<feBlend mode="normal" in2="BackgroundImageFix" result="effect1_dropShadow_164_243"/>
<feBlend mode="normal" in="SourceGraphic" in2="effect1_dropShadow_164_243" result="shape"/>
</filter>
<filter id="filter5_d_164_243" x="248" y="52.1721" width="166" height="166" filterUnits="userSpaceOnUse" color-interpolation-filters="sRGB">
<feFlood flood-opacity="0" result="BackgroundImageFix"/>
<feColorMatrix in="SourceAlpha" type="matrix" values="0 0 0 0 0 0 0 0 0 0 0 0 0 0 0 0 0 0 127 0" result="hardAlpha"/>
<feOffset dy="20"/>
<feGaussianBlur stdDeviation="25"/>
<feComposite in2="hardAlpha" operator="out"/>
<feColorMatrix type="matrix" values="0 0 0 0 0 0 0 0 0 0 0 0 0 0 0 0 0 0 0.15 0"/>
<feBlend mode="normal" in2="BackgroundImageFix" result="effect1_dropShadow_164_243"/>
<feBlend mode="normal" in="SourceGraphic" in2="effect1_dropShadow_164_243" result="shape"/>
</filter>
<filter id="filter6_d_164_243" x="477" y="274.172" width="166" height="166" filterUnits="userSpaceOnUse" color-interpolation-filters="sRGB">
<feFlood flood-opacity="0" result="BackgroundImageFix"/>
<feColorMatrix in="SourceAlpha" type="matrix" values="0 0 0 0 0 0 0 0 0 0 0 0 0 0 0 0 0 0 127 0" result="hardAlpha"/>
<feOffset dy="20"/>
<feGaussianBlur stdDeviation="25"/>
<feComposite in2="hardAlpha" operator="out"/>
<feColorMatrix type="matrix" values="0 0 0 0 0 0 0 0 0 0 0 0 0 0 0 0 0 0 0.15 0"/>
<feBlend mode="normal" in2="BackgroundImageFix" result="effect1_dropShadow_164_243"/>
<feBlend mode="normal" in="SourceGraphic" in2="effect1_dropShadow_164_243" result="shape"/>
</filter>
<filter id="filter7_d_164_243" x="458" y="78.1721" width="164" height="164" filterUnits="userSpaceOnUse" color-interpolation-filters="sRGB">
<feFlood flood-opacity="0" result="BackgroundImageFix"/>
<feColorMatrix in="SourceAlpha" type="matrix" values="0 0 0 0 0 0 0 0 0 0 0 0 0 0 0 0 0 0 127 0" result="hardAlpha"/>
<feOffset dy="20"/>
<feGaussianBlur stdDeviation="25"/>
<feComposite in2="hardAlpha" operator="out"/>
<feColorMatrix type="matrix" values="0 0 0 0 0 0 0 0 0 0 0 0 0 0 0 0 0 0 0.15 0"/>
<feBlend mode="normal" in2="BackgroundImageFix" result="effect1_dropShadow_164_243"/>
<feBlend mode="normal" in="SourceGraphic" in2="effect1_dropShadow_164_243" result="shape"/>
</filter>
<clipPath id="clip0_164_243">
<rect width="42" height="47" fill="white" transform="translate(309 379.172)"/>
</clipPath>
<clipPath id="clip1_164_243">
<rect width="30" height="30" fill="white" transform="translate(173 41.1721)"/>
</clipPath>
<clipPath id="clip2_164_243">
<rect width="36" height="37" fill="white" transform="translate(68 240.172)"/>
</clipPath>
<clipPath id="clip3_164_243">
<rect width="35" height="44" fill="white" transform="translate(312 93.1721)"/>
</clipPath>
<clipPath id="clip4_164_243">
<rect width="29" height="34" fill="white" transform="translate(546 320.172)"/>
</clipPath>
<clipPath id="clip5_164_243">
<rect width="35" height="35" fill="white" transform="translate(523 123.172)"/>
</clipPath>
</defs>
</svg>
