<svg width="20" height="20" viewBox="0 0 20 20" fill="none" xmlns="http://www.w3.org/2000/svg">
<g opacity="0.6">
<path d="M14 16H5.33333C3.49333 16 2 14.5067 2 12.6667V8C2 7.63333 2.3 7.33333 2.66667 7.33333C3.03333 7.33333 3.33333 7.63333 3.33333 8V12.6667C3.33333 13.7667 4.23333 14.6667 5.33333 14.6667H14C14.3667 14.6667 14.6667 14.9667 14.6667 15.3333C14.6667 15.7 14.3667 16 14 16ZM11.3333 8C10.9667 8 10.6667 8.3 10.6667 8.66667C10.6667 9.03333 10.9667 9.33333 11.3333 9.33333C11.7 9.33333 12 9.03333 12 8.66667C12 8.3 11.7 8 11.3333 8ZM18 6.66667V10.6667C18 12.14 16.8067 13.3333 15.3333 13.3333H7.33333C5.86 13.3333 4.66667 12.14 4.66667 10.6667V6.66667C4.66667 5.19333 5.86 4 7.33333 4H15.3333C16.8067 4 18 5.19333 18 6.66667ZM13.3333 8.66667C13.3333 7.56667 12.4333 6.66667 11.3333 6.66667C10.2333 6.66667 9.33333 7.56667 9.33333 8.66667C9.33333 9.76667 10.2333 10.6667 11.3333 10.6667C12.4333 10.6667 13.3333 9.76667 13.3333 8.66667Z" fill="#E8F3FF"/>
</g>
</svg>
