<svg width="20" height="20" viewBox="0 0 20 20" fill="none" xmlns="http://www.w3.org/2000/svg">
<g opacity="0.6">
<path d="M12.2273 2H7.77273C6.54264 2 5.54545 3.04462 5.54545 4.33324V7.66643C5.54545 8.95504 6.54264 9.99967 7.77273 9.99967H8.18891L9.35664 11.0776C9.54055 11.2483 9.77155 11.3329 10.0019 11.3329C10.2304 11.3329 10.4575 11.2496 10.6383 11.083L11.8334 9.99967H12.2273C13.4574 9.99967 14.4545 8.95504 14.4545 7.66643V4.33324C14.4545 3.04462 13.4574 2 12.2273 2ZM12.058 5.78651L10.4474 7.6091C10.1979 7.86709 9.87718 7.99442 9.55964 7.99442C9.251 7.99442 8.94618 7.87309 8.71264 7.63443L7.94773 6.79247C7.70527 6.52581 7.71545 6.10383 7.97064 5.84984C8.22518 5.59518 8.62864 5.60785 8.87045 5.87317L9.56791 6.64181L11.1238 4.87921C11.3625 4.60856 11.7646 4.59189 12.023 4.84321C12.2807 5.0932 12.2966 5.51519 12.058 5.78518V5.78651ZM6.28364 13.6108L6.74945 15.0368H5.61418L6.07555 13.6228C6.09018 13.5915 6.14682 13.5549 6.18182 13.5549C6.21809 13.5549 6.27218 13.5869 6.28364 13.6108ZM9.36364 14.6668C9.36364 16.5074 7.93882 18 6.18182 18C4.42482 18 3 16.5074 3 14.6668C3 12.8262 4.42482 11.3336 6.18182 11.3336C7.93882 11.3336 9.36364 12.8262 9.36364 14.6668ZM7.80836 16.0407L6.94164 13.3375C6.75964 12.9062 6.50573 12.8149 6.18182 12.8149C5.85791 12.8149 5.60336 12.9062 5.41691 13.3509L4.55527 16.0401C4.48018 16.2747 4.64691 16.5181 4.88364 16.5181C5.03191 16.5181 5.163 16.4194 5.21136 16.2727L5.373 15.7774H6.99191L7.15355 16.2727C7.20127 16.4194 7.333 16.5181 7.48064 16.5181C7.71736 16.5181 7.88409 16.2754 7.80836 16.0407ZM14.8771 15.4454C14.8586 15.6374 14.6945 15.7781 14.5099 15.7781C14.2554 15.7781 13.7883 15.7781 13.4644 15.7781C13.269 15.7781 13.1112 15.6121 13.1112 15.4074V15.0368H14.5252C14.732 15.0368 14.8981 15.2241 14.8771 15.4448V15.4454ZM14.5233 13.8888C14.5048 13.6968 14.34 13.5562 14.1555 13.5562H13.4644C13.269 13.5562 13.1105 13.7222 13.1105 13.9268V14.2975H14.1714C14.3782 14.2975 14.5443 14.1095 14.5233 13.8888ZM17 14.6668C17 16.5074 15.5752 18 13.8182 18C12.0612 18 10.6364 16.5074 10.6364 14.6668C10.6364 12.8262 12.0612 11.3336 13.8182 11.3336C15.5752 11.3336 17 12.8262 17 14.6668ZM15.5822 15.4988C15.6153 15.0688 15.4123 14.6841 15.0954 14.4715C15.187 14.3022 15.2366 14.1055 15.2315 13.8962C15.2163 13.2889 14.7218 12.8149 14.1415 12.8149H13.6018C12.9095 12.8149 12.4035 13.3455 12.4035 14.0002V15.3334C12.4035 15.9881 12.9101 16.5187 13.535 16.5187H14.4972C15.0546 16.5187 15.5376 16.0807 15.5822 15.4988Z" fill="#E8F3FF"/>
</g>
</svg>
