<svg width="20" height="20" viewBox="0 0 20 20" fill="none" xmlns="http://www.w3.org/2000/svg">
<g opacity="0.6">
<path d="M18 6.66667V7.33333H2V6.66667C2 4.826 3.49267 3.33333 5.33333 3.33333H6V2.66667C6 2.29867 6.29867 2 6.66667 2C7.03467 2 7.33333 2.29867 7.33333 2.66667V3.33333H12.6667V2.66667C12.6667 2.29867 12.9653 2 13.3333 2C13.7013 2 14 2.29867 14 2.66667V3.33333H14.6667C16.5073 3.33333 18 4.826 18 6.66667ZM18 13.3333C18 15.9067 15.906 18 13.3333 18C10.7607 18 8.66667 15.9067 8.66667 13.3333C8.66667 10.76 10.7607 8.66667 13.3333 8.66667C15.906 8.66667 18 10.76 18 13.3333ZM14.6667 13.724L14 13.0573V12C14 11.632 13.7013 11.3333 13.3333 11.3333C12.9653 11.3333 12.6667 11.632 12.6667 12V13.3333C12.6667 13.51 12.7367 13.68 12.862 13.8047L13.724 14.6667C13.984 14.9267 14.4067 14.9267 14.6667 14.6667C14.9267 14.4067 14.9267 13.984 14.6667 13.724ZM7.33333 13.3333C7.33333 11.4473 8.20533 9.76667 9.566 8.66667H2V14.6667C2 16.5073 3.49267 18 5.33333 18H9.566C8.20533 16.9 7.33333 15.2193 7.33333 13.3333Z" fill="#E8F3FF"/>
</g>
</svg>
