<svg width="24" height="25" viewBox="0 0 24 25" fill="none" xmlns="http://www.w3.org/2000/svg">
<g clip-path="url(#clip0_179_139)">
<path d="M18.1 23.2723L19.15 24.3223C19.35 24.5223 19.65 24.6723 20 24.6723C20.3 24.6723 20.6 24.5723 20.85 24.3223L23.65 21.5223C23.85 21.3223 24 21.0223 24 20.6723C24 20.3723 23.9 20.0723 23.65 19.8223L17.35 13.5723L12.85 18.0723L14.65 19.8723L16.45 18.0723C16.65 17.8723 17 17.8723 17.2 18.0723C17.4 18.2723 17.4 18.6223 17.2 18.8223L15.4 20.6223L17.3 22.5223L20.05 19.7723C20.25 19.5723 20.6 19.5723 20.8 19.7723C21 19.9723 21 20.3223 20.8 20.5223L18.1 23.2723Z" fill="white"/>
<path d="M4.8 9.97212L6.6 11.7721L11.1 7.27212L4.85 1.02212C4.6 0.772119 4.3 0.672119 4 0.672119C3.7 0.672119 3.4 0.772119 3.15 1.02212L0.35 3.82212C0.1 4.07212 0 4.37212 0 4.67212C0 4.97212 0.1 5.27212 0.35 5.52212L1.4 6.57212L4.15 3.82212C4.35 3.62212 4.7 3.62212 4.9 3.82212C5.1 4.02212 5.1 4.37212 4.9 4.57212L2.15 7.32212L4.05 9.22212L5.85 7.42212C6.05 7.22212 6.4 7.22212 6.6 7.42212C6.8 7.62212 6.8 7.97212 6.6 8.17212L4.8 9.97212Z" fill="white"/>
<path d="M20.15 0.872217C19.85 0.572217 19.35 0.572217 19.05 0.872217L17.5 2.42222L22.2 7.12222L23.75 5.57222C23.9 5.47222 24 5.27222 24 5.07222C24 4.87222 23.9 4.67222 23.8 4.52222L20.15 0.872217Z" fill="white"/>
<path d="M1.88055 18.0862L16.7629 3.20383L21.4645 7.90538L6.5821 22.7877L1.88055 18.0862Z" fill="white"/>
<path d="M0.95 24.6223L5.55 23.2723L1.35 19.0723L1.37836e-07 23.6723C-0.0999999 23.9223 1.3411e-07 24.2223 0.2 24.4223C0.4 24.6723 0.7 24.7223 0.95 24.6223Z" fill="white"/>
</g>
<defs>
<clipPath id="clip0_179_139">
<rect width="24" height="24" fill="white" transform="translate(0 0.672119)"/>
</clipPath>
</defs>
</svg>
