<svg width="20" height="20" viewBox="0 0 20 20" fill="none" xmlns="http://www.w3.org/2000/svg">
<g opacity="0.6">
<path d="M14.75 18H5.54167C3.58667 18 2 16.3709 2 14.3636V6.36364C2 5.96364 2.31875 5.63636 2.70833 5.63636C3.09792 5.63636 3.41667 5.96364 3.41667 6.36364V14.3636C3.41667 15.5636 4.37292 16.5455 5.54167 16.5455H14.75C15.1396 16.5455 15.4583 16.8727 15.4583 17.2727C15.4583 17.6727 15.1396 18 14.75 18ZM10.415 7.90545C11.2437 8.75636 12.5896 8.75636 13.4183 7.90545L18.0367 3.16364C17.3921 2.45091 16.4783 2 15.4583 2H8.375C7.355 2 6.44125 2.45091 5.79667 3.16364L10.415 7.90545ZM14.4242 8.93091C13.7371 9.63636 12.8233 9.99273 11.9167 9.99273C11.01 9.99273 10.1033 9.63636 9.40917 8.93091L5.04583 4.45091C4.91833 4.82182 4.83333 5.22182 4.83333 5.63636V11.4545C4.83333 13.4618 6.42 15.0909 8.375 15.0909H15.4583C17.4133 15.0909 19 13.4618 19 11.4545V5.63636C19 5.22182 18.915 4.82182 18.7875 4.45091L14.4171 8.93818L14.4242 8.93091Z" fill="#E8F3FF"/>
</g>
</svg>
