<svg width="20" height="20" viewBox="0 0 20 20" fill="none" xmlns="http://www.w3.org/2000/svg">
<g opacity="0.6">
<path d="M13.6667 7.33277C15.1393 7.33277 16.3333 8.52665 16.3333 9.99916C16.3333 11.4717 15.1393 12.6655 13.6667 12.6655C12.194 12.6655 11.0001 11.4717 11.0001 9.99916C11.0001 8.52665 12.194 7.33277 13.6667 7.33277ZM10.0001 7.33277C11.4727 7.33277 12.6667 6.1389 12.6667 4.66639C12.6667 3.19387 11.4727 2 10.0001 2C8.52749 2 7.33352 3.19387 7.33352 4.66639C7.33352 6.1389 8.52749 7.33277 10.0001 7.33277ZM6.33355 12.6655C7.80618 12.6655 9.00014 11.4717 9.00014 9.99916C9.00014 8.52665 7.80618 7.33277 6.33355 7.33277C4.86093 7.33277 3.66696 8.52665 3.66696 9.99916C3.66696 11.4717 4.86093 12.6655 6.33355 12.6655ZM17.9692 16.7525C17.4586 14.7387 15.6213 13.3321 13.5 13.3321C12.1121 13.3321 10.8534 13.9421 10.0001 14.924C9.14747 13.9427 7.88884 13.3321 6.50021 13.3321C4.37961 13.3321 2.54166 14.7387 2.03101 16.7525C1.89502 17.2877 2.21901 17.8317 2.75432 17.9677C3.29031 18.1043 3.83429 17.7797 3.96962 17.2444C4.11828 16.6578 4.47494 16.1672 4.94959 15.8285L5.89357 17.0378C6.20756 17.4304 6.80487 17.4304 7.11953 17.0378L8.0715 15.8419C8.53615 16.1805 8.88414 16.6665 9.03081 17.2451C9.03281 17.2537 9.2128 17.9997 10.0008 17.9997C10.7888 17.9997 10.9674 17.2544 10.9694 17.2451C11.1181 16.6585 11.4747 16.1685 11.9494 15.8292L12.8934 17.0384C13.2074 17.431 13.8047 17.431 14.1193 17.0384L15.0713 15.8425C15.5366 16.1812 15.8839 16.6671 16.0306 17.2457C16.1659 17.781 16.7132 18.105 17.2452 17.969C17.7812 17.833 18.1045 17.2891 17.9692 16.7538V16.7525Z" fill="#E8F3FF"/>
</g>
</svg>
