<svg width="20" height="20" viewBox="0 0 20 20" fill="none" xmlns="http://www.w3.org/2000/svg">
<g opacity="0.6">
<path d="M12.3366 14.0423C13.5606 14.7023 14.522 15.792 14.9398 17.1371C15.0023 17.3387 14.9657 17.5589 14.84 17.7292C14.7142 17.8995 14.516 18 14.3044 18H4.9913C4.77975 18 4.58083 17.8995 4.45576 17.7292C4.33069 17.5589 4.29344 17.3394 4.35597 17.1371C4.77509 15.7893 5.73907 14.6983 6.96649 14.0383C7.28116 13.8693 7.67234 13.9399 7.9012 14.2146L9.19781 15.77C9.43464 16.0541 9.87106 16.0541 10.1079 15.77L11.4012 14.2179C11.63 13.9432 12.0219 13.8727 12.3366 14.0423ZM15.4114 3.76322L11.1111 2.24574C10.1877 1.91909 9.1712 1.91842 8.24847 2.24175L3.8956 3.76521C3.35141 3.95548 3.00015 4.45044 3.00015 5.02657C3.00015 5.60336 3.35208 6.09832 3.89627 6.28792L8.22518 7.79808C8.68355 7.95775 9.16587 8.03825 9.64753 8.03825C10.1292 8.03825 10.6108 7.95775 11.0692 7.79808L14.9704 6.4376V9.35082C14.9704 9.71805 15.2684 10.0161 15.6356 10.0161C16.0029 10.0161 16.3009 9.71805 16.3009 9.35082C16.3009 9.35082 16.3036 5.03122 16.3036 5.02524C16.3042 4.44978 15.9543 3.95415 15.4121 3.76255L15.4114 3.76322ZM13.6392 8.31101L11.507 9.05478C10.3108 9.4719 8.98359 9.4719 7.78677 9.05478L5.65591 8.31101V8.68555C5.65591 10.8869 7.44615 12.6772 9.64753 12.6772C11.8489 12.6772 13.6392 10.8869 13.6392 8.68555V8.31034V8.31101Z" fill="#E8F3FF"/>
</g>
</svg>
