<svg width="20" height="20" viewBox="0 0 20 20" fill="none" xmlns="http://www.w3.org/2000/svg">
<g opacity="0.6">
<path d="M2 14.6667C2.00106 15.5504 2.35259 16.3976 2.97748 17.0225C3.60237 17.6474 4.4496 17.9989 5.33333 18H14.6667C15.5504 17.9989 16.3976 17.6474 17.0225 17.0225C17.6474 16.3976 17.9989 15.5504 18 14.6667V8.66667H2V14.6667ZM13.3333 11.6667C13.5311 11.6667 13.7244 11.7253 13.8889 11.8352C14.0533 11.9451 14.1815 12.1013 14.2572 12.284C14.3329 12.4667 14.3527 12.6678 14.3141 12.8618C14.2755 13.0557 14.1803 13.2339 14.0404 13.3738C13.9006 13.5136 13.7224 13.6089 13.5284 13.6475C13.3344 13.686 13.1334 13.6662 12.9506 13.5905C12.7679 13.5149 12.6117 13.3867 12.5019 13.2222C12.392 13.0578 12.3333 12.8645 12.3333 12.6667C12.3333 12.4015 12.4387 12.1471 12.6262 11.9596C12.8138 11.772 13.0681 11.6667 13.3333 11.6667ZM10 11.6667C10.1978 11.6667 10.3911 11.7253 10.5556 11.8352C10.72 11.9451 10.8482 12.1013 10.9239 12.284C10.9996 12.4667 11.0194 12.6678 10.9808 12.8618C10.9422 13.0557 10.847 13.2339 10.7071 13.3738C10.5672 13.5136 10.3891 13.6089 10.1951 13.6475C10.0011 13.686 9.80004 13.6662 9.61731 13.5905C9.43459 13.5149 9.27841 13.3867 9.16853 13.2222C9.05864 13.0578 9 12.8645 9 12.6667C9 12.4015 9.10535 12.1471 9.29289 11.9596C9.48042 11.772 9.73478 11.6667 10 11.6667ZM6.66666 11.6667C6.86445 11.6667 7.05778 11.7253 7.22223 11.8352C7.38668 11.9451 7.51486 12.1013 7.59054 12.284C7.66623 12.4667 7.68603 12.6678 7.64745 12.8618C7.60886 13.0557 7.51362 13.2339 7.37377 13.3738C7.23392 13.5136 7.05574 13.6089 6.86175 13.6475C6.66777 13.686 6.46671 13.6662 6.28398 13.5905C6.10125 13.5149 5.94508 13.3867 5.83519 13.2222C5.72531 13.0578 5.66666 12.8645 5.66666 12.6667C5.66666 12.4015 5.77202 12.1471 5.95956 11.9596C6.14709 11.772 6.40145 11.6667 6.66666 11.6667Z" fill="#E8F3FF"/>
<path d="M14.6667 3.33333H14V2.66667C14 2.48986 13.9298 2.32029 13.8047 2.19526C13.6797 2.07024 13.5101 2 13.3333 2C13.1565 2 12.9869 2.07024 12.8619 2.19526C12.7369 2.32029 12.6667 2.48986 12.6667 2.66667V3.33333H7.33333V2.66667C7.33333 2.48986 7.26309 2.32029 7.13807 2.19526C7.01304 2.07024 6.84347 2 6.66666 2C6.48985 2 6.32028 2.07024 6.19526 2.19526C6.07024 2.32029 6 2.48986 6 2.66667V3.33333H5.33333C4.4496 3.33439 3.60237 3.68592 2.97748 4.31081C2.35259 4.9357 2.00106 5.78293 2 6.66666L2 7.33333H18V6.66666C17.9989 5.78293 17.6474 4.9357 17.0225 4.31081C16.3976 3.68592 15.5504 3.33439 14.6667 3.33333Z" fill="#E8F3FF"/>
</g>
</svg>
